<svg width="164" height="10" viewBox="0 0 164 10" fill="none" xmlns="http://www.w3.org/2000/svg">
<path d="M0.2 5C0.2 7.65097 2.34903 9.8 5 9.8C7.65097 9.8 9.8 7.65097 9.8 5C9.8 2.34903 7.65097 0.2 5 0.2C2.34903 0.2 0.2 2.34903 0.2 5ZM154.4 5C154.4 7.65097 156.549 9.8 159.2 9.8C161.851 9.8 164 7.65097 164 5C164 2.34903 161.851 0.2 159.2 0.2C156.549 0.2 154.4 2.34903 154.4 5ZM7.96538 5.9H8.86538V4.1H7.96538V5.9ZM13.8962 4.1H12.9962V5.9H13.8962V4.1ZM19.8269 5.9H20.7269V4.1H19.8269V5.9ZM25.7577 4.1H24.8577V5.9H25.7577V4.1ZM31.6885 5.9H32.5885V4.1H31.6885V5.9ZM37.6192 4.1H36.7192V5.9H37.6192V4.1ZM43.55 5.9H44.45V4.1H43.55V5.9ZM49.4808 4.1H48.5808V5.9H49.4808V4.1ZM55.4115 5.9H56.3115V4.1H55.4115V5.9ZM61.3423 4.1H60.4423V5.9H61.3423V4.1ZM67.2731 5.9H68.1731V4.1H67.2731V5.9ZM73.2038 4.1H72.3038V5.9H73.2038V4.1ZM79.1346 5.9H80.0346V4.1H79.1346V5.9ZM85.0654 4.1H84.1654V5.9H85.0654V4.1ZM90.9962 5.9H91.8962V4.1H90.9962V5.9ZM96.9269 4.1H96.0269V5.9H96.9269V4.1ZM102.858 5.9H103.758V4.1H102.858V5.9ZM108.788 4.1H107.888V5.9H108.788V4.1ZM114.719 5.9H115.619V4.1H114.719V5.9ZM120.65 4.1H119.75V5.9H120.65V4.1ZM126.581 5.9H127.481V4.1H126.581V5.9ZM132.512 4.1H131.612V5.9H132.512V4.1ZM138.442 5.9H139.342V4.1H138.442V5.9ZM144.373 4.1H143.473V5.9H144.373V4.1ZM150.304 5.9H151.204V4.1H150.304V5.9ZM156.235 4.1H155.335V5.9H156.235V4.1ZM5 5V5.9H7.96538V5V4.1H5V5ZM13.8962 5V5.9H19.8269V5V4.1H13.8962V5ZM25.7577 5V5.9H31.6885V5V4.1H25.7577V5ZM37.6192 5V5.9H43.55V5V4.1H37.6192V5ZM49.4808 5V5.9H55.4115V5V4.1H49.4808V5ZM61.3423 5V5.9H67.2731V5V4.1H61.3423V5ZM73.2038 5V5.9H79.1346V5V4.1H73.2038V5ZM85.0654 5V5.9H90.9962V5V4.1H85.0654V5ZM96.9269 5V5.9H102.858V5V4.1H96.9269V5ZM108.788 5V5.9H114.719V5V4.1H108.788V5ZM120.65 5V5.9H126.581V5V4.1H120.65V5ZM132.512 5V5.9H138.442V5V4.1H132.512V5ZM144.373 5V5.9H150.304V5V4.1H144.373V5ZM156.235 5V5.9H159.2V5V4.1H156.235V5Z" fill="#DBE6FF"/>
</svg>
