<svg width="180" height="168" viewBox="0 0 180 168" fill="none" xmlns="http://www.w3.org/2000/svg">
<path d="M71.1 7.9C71.1 6.60044 70.5838 5.3541 69.6648 4.43518C68.7459 3.51625 67.4996 3 66.2 3H36.8C35.5004 3 34.2541 3.51625 33.3352 4.43518C32.4162 5.3541 31.9 6.60044 31.9 7.9V32.4H7.4C6.10044 32.4 4.8541 32.9162 3.93518 33.8352C3.01625 34.7541 2.5 36.0004 2.5 37.3V66.7C2.5 67.9996 3.01625 69.2459 3.93518 70.1648C4.8541 71.0838 6.10044 71.6 7.4 71.6H31.9V96.1C31.9 97.3996 32.4162 98.6459 33.3352 99.5648C34.2541 100.484 35.5004 101 36.8 101H66.2C67.4996 101 68.7459 100.484 69.6648 99.5648C70.5838 98.6459 71.1 97.3996 71.1 96.1V71.6H95.6C96.8996 71.6 98.1459 71.0838 99.0648 70.1648C99.9838 69.2459 100.5 67.9996 100.5 66.7V37.3C100.5 36.0004 99.9838 34.7541 99.0648 33.8352C98.1459 32.9162 96.8996 32.4 95.6 32.4H71.1V7.9Z" stroke="#82ABFD" stroke-width="5" stroke-linecap="round" stroke-linejoin="round"/>
<path d="M113.88 101.761C122.51 101.761 131.056 103.46 139.029 106.763C147.002 110.065 154.247 114.906 160.349 121.009C166.452 127.111 171.292 134.356 174.595 142.329C177.002 148.142 178.558 154.258 179.224 160.49C179.635 164.334 176.463 167.477 172.597 167.478H55.1629C51.297 167.477 48.1249 164.334 48.5359 160.49C49.2023 154.258 50.7582 148.142 53.1658 142.329C56.4684 134.356 61.3087 127.111 67.4109 121.009C73.5133 114.906 80.7581 110.065 88.7312 106.763C96.7043 103.46 105.25 101.761 113.88 101.761ZM114.923 35C133.358 35 148.302 49.9447 148.303 68.3799C148.303 86.8152 133.358 101.76 114.923 101.76C96.4874 101.76 81.5428 86.8151 81.5428 68.3799C81.5429 49.9447 96.4875 35.0001 114.923 35Z" fill="#82ABFD"/>
<path fill-rule="evenodd" clip-rule="evenodd" d="M128.522 111.623C127.386 111.623 126.297 112.074 125.493 112.879C124.69 113.683 124.239 114.774 124.239 115.911H119.956C118.821 115.911 117.731 116.363 116.928 117.167C116.125 117.972 115.674 119.063 115.674 120.2V160.228C115.674 161.365 116.125 162.456 116.928 163.26C117.731 164.065 118.821 164.517 119.956 164.517H137.087V161.657H119.956C119.578 161.657 119.215 161.507 118.947 161.239C118.679 160.971 118.529 160.607 118.529 160.228V120.2C118.529 119.821 118.679 119.457 118.947 119.189C119.215 118.921 119.578 118.77 119.956 118.77H124.239C124.239 119.908 124.69 120.999 125.493 121.803C126.297 122.607 127.386 123.059 128.522 123.059H139.942C141.078 123.059 142.167 122.607 142.97 121.803C143.773 120.999 144.225 119.908 144.225 118.77H148.507C148.886 118.77 149.249 118.921 149.517 119.189C149.784 119.457 149.935 119.821 149.935 120.2V141.643H152.79V120.2C152.79 119.063 152.339 117.972 151.535 117.167C150.732 116.363 149.643 115.911 148.507 115.911H144.225C144.225 114.774 143.773 113.683 142.97 112.879C142.167 112.074 141.078 111.623 139.942 111.623H128.522ZM127.094 115.911C127.094 115.532 127.245 115.168 127.512 114.9C127.78 114.632 128.143 114.482 128.522 114.482H139.942C140.321 114.482 140.684 114.632 140.951 114.9C141.219 115.168 141.369 115.532 141.369 115.911V118.77C141.369 119.15 141.219 119.513 140.951 119.781C140.684 120.049 140.321 120.2 139.942 120.2H128.522C128.143 120.2 127.78 120.049 127.512 119.781C127.245 119.513 127.094 119.15 127.094 118.77V115.911ZM132.804 133.066V128.777H135.659V133.066H139.942V135.925H135.659V140.214H132.804V135.925H128.522V133.066H132.804ZM138.514 145.932C138.514 145.553 138.665 145.189 138.933 144.921C139.2 144.653 139.563 144.503 139.942 144.503H157.072C157.451 144.503 157.814 144.653 158.082 144.921C158.35 145.189 158.5 145.553 158.5 145.932V155.637C158.5 157.285 158.094 158.907 157.317 160.359C156.541 161.811 155.419 163.049 154.05 163.963L149.299 167.137C149.065 167.294 148.789 167.377 148.507 167.377C148.225 167.377 147.949 167.294 147.715 167.137L142.964 163.963C141.596 163.05 140.473 161.812 139.697 160.36C138.921 158.908 138.515 157.286 138.514 155.639V145.932ZM141.369 147.362V155.637C141.37 156.814 141.66 157.973 142.214 159.01C142.769 160.048 143.571 160.932 144.549 161.584L148.507 164.231L152.466 161.586C153.444 160.933 154.245 160.049 154.8 159.012C155.354 157.974 155.645 156.816 155.645 155.639V147.362H141.369ZM148.089 158.379L153.799 152.661L151.781 150.64L147.08 155.347L145.234 153.499L143.215 155.52L146.07 158.379C146.338 158.647 146.701 158.798 147.08 158.798C147.458 158.798 147.821 158.647 148.089 158.379Z" fill="white"/>
</svg>
