<svg width="180" height="168" viewBox="0 0 180 168" fill="none" xmlns="http://www.w3.org/2000/svg">
<path d="M71.1 7.9C71.1 6.60044 70.5838 5.3541 69.6648 4.43518C68.7459 3.51625 67.4996 3 66.2 3H36.8C35.5004 3 34.2541 3.51625 33.3352 4.43518C32.4163 5.3541 31.9 6.60044 31.9 7.9V32.4H7.4C6.10044 32.4 4.8541 32.9163 3.93518 33.8352C3.01625 34.7541 2.5 36.0004 2.5 37.3V66.7C2.5 67.9996 3.01625 69.2459 3.93518 70.1648C4.8541 71.0838 6.10044 71.6 7.4 71.6H31.9V96.1C31.9 97.3996 32.4163 98.6459 33.3352 99.5648C34.2541 100.484 35.5004 101 36.8 101H66.2C67.4996 101 68.7459 100.484 69.6648 99.5648C70.5838 98.6459 71.1 97.3996 71.1 96.1V71.6H95.6C96.8996 71.6 98.1459 71.0838 99.0648 70.1648C99.9838 69.2459 100.5 67.9996 100.5 66.7V37.3C100.5 36.0004 99.9838 34.7541 99.0648 33.8352C98.1459 32.9163 96.8996 32.4 95.6 32.4H71.1V7.9Z" stroke="#1D68FF" stroke-width="5" stroke-linecap="round" stroke-linejoin="round"/>
<path d="M113.88 101.761C122.51 101.761 131.056 103.46 139.029 106.763C147.002 110.065 154.247 114.906 160.349 121.009C166.452 127.111 171.292 134.356 174.595 142.329C177.002 148.142 178.558 154.258 179.224 160.49C179.635 164.334 176.463 167.477 172.597 167.478H55.1629C51.297 167.477 48.1249 164.334 48.5359 160.49C49.2023 154.258 50.7582 148.142 53.1658 142.329C56.4684 134.356 61.3087 127.111 67.4109 121.009C73.5133 114.906 80.7581 110.065 88.7312 106.763C96.7043 103.46 105.25 101.761 113.88 101.761ZM114.923 35C133.358 35 148.302 49.9447 148.303 68.3799C148.303 86.8152 133.358 101.76 114.923 101.76C96.4874 101.76 81.5428 86.8151 81.5428 68.3799C81.5429 49.9447 96.4875 35.0001 114.923 35Z" fill="#1D68FF"/>
<path fill-rule="evenodd" clip-rule="evenodd" d="M128.52 111.623C127.384 111.623 126.295 112.074 125.491 112.879C124.688 113.683 124.237 114.774 124.237 115.911H119.954C118.819 115.911 117.729 116.363 116.926 117.167C116.123 117.972 115.672 119.063 115.672 120.2V160.228C115.672 161.365 116.123 162.456 116.926 163.26C117.729 164.065 118.819 164.517 119.954 164.517H137.085V161.657H119.954C119.576 161.657 119.213 161.507 118.945 161.239C118.677 160.971 118.527 160.607 118.527 160.228V120.2C118.527 119.821 118.677 119.457 118.945 119.189C119.213 118.921 119.576 118.77 119.954 118.77H124.237C124.237 119.908 124.688 120.999 125.491 121.803C126.295 122.607 127.384 123.059 128.52 123.059H139.94C141.076 123.059 142.165 122.607 142.968 121.803C143.771 120.999 144.223 119.908 144.223 118.77H148.505C148.884 118.77 149.247 118.921 149.515 119.189C149.782 119.457 149.933 119.821 149.933 120.2V141.643H152.788V120.2C152.788 119.063 152.337 117.972 151.533 117.167C150.73 116.363 149.641 115.911 148.505 115.911H144.223C144.223 114.774 143.771 113.683 142.968 112.879C142.165 112.074 141.076 111.623 139.94 111.623H128.52ZM127.092 115.911C127.092 115.532 127.243 115.168 127.51 114.9C127.778 114.632 128.141 114.482 128.52 114.482H139.94C140.319 114.482 140.682 114.632 140.949 114.9C141.217 115.168 141.368 115.532 141.368 115.911V118.77C141.368 119.15 141.217 119.513 140.949 119.781C140.682 120.049 140.319 120.2 139.94 120.2H128.52C128.141 120.2 127.778 120.049 127.51 119.781C127.243 119.513 127.092 119.15 127.092 118.77V115.911ZM132.802 133.066V128.777H135.657V133.066H139.94V135.925H135.657V140.214H132.802V135.925H128.52V133.066H132.802ZM138.512 145.932C138.512 145.553 138.663 145.189 138.931 144.921C139.198 144.653 139.561 144.503 139.94 144.503H157.07C157.449 144.503 157.812 144.653 158.08 144.921C158.348 145.189 158.498 145.553 158.498 145.932V155.637C158.498 157.285 158.092 158.907 157.316 160.359C156.539 161.811 155.417 163.049 154.048 163.963L149.297 167.137C149.063 167.294 148.787 167.377 148.505 167.377C148.223 167.377 147.948 167.294 147.713 167.137L142.962 163.963C141.594 163.05 140.471 161.812 139.695 160.36C138.919 158.908 138.513 157.286 138.512 155.639V145.932ZM141.368 147.362V155.637C141.368 156.814 141.658 157.973 142.212 159.01C142.767 160.048 143.569 160.932 144.547 161.584L148.505 164.231L152.464 161.586C153.442 160.933 154.243 160.049 154.798 159.012C155.353 157.974 155.643 156.816 155.643 155.639V147.362H141.368ZM148.087 158.379L153.797 152.661L151.779 150.64L147.078 155.347L145.232 153.499L143.213 155.52L146.068 158.379C146.336 158.647 146.699 158.798 147.078 158.798C147.456 158.798 147.819 158.647 148.087 158.379Z" fill="white"/>
</svg>
