<svg width="166" height="167" viewBox="0 0 166 167" fill="none" xmlns="http://www.w3.org/2000/svg">
<path d="M82.9324 84.0186C93.7935 84.0186 104.549 86.1581 114.583 90.3145C124.617 94.4707 133.734 100.562 141.414 108.242C149.094 115.922 155.186 125.04 159.343 135.074C162.604 142.949 164.623 151.267 165.342 159.732C165.668 163.584 162.504 166.723 158.638 166.724H7.22734C3.36135 166.724 0.196435 163.585 0.523234 159.732C1.24143 151.267 3.26052 142.949 6.52226 135.074C10.6786 125.04 16.7711 115.922 24.451 108.242C32.1309 100.562 41.2488 94.4708 51.283 90.3145C61.3172 86.1582 72.0715 84.0186 82.9324 84.0186ZM84.2449 0C107.446 6.80333e-05 126.254 18.808 126.254 42.0088C126.254 65.2098 107.446 84.0185 84.2449 84.0186C61.0439 84.0186 42.2361 65.2098 42.2361 42.0088C42.2363 18.8079 61.044 0 84.2449 0Z" fill="#1D68FF"/>
</svg>
