<svg width="748" height="488" viewBox="0 0 748 488" fill="none" xmlns="http://www.w3.org/2000/svg">
<g filter="url(#filter0_f_1627_5602)">
<rect x="72.1992" y="72" width="603.6" height="343.2" fill="url(#paint0_linear_1627_5602)"/>
</g>
<path d="M130.305 352.2L119.27 358.585L116.428 369.631L119.263 380.211L130.305 352.2Z" fill="#1D68FF" fill-opacity="0.6"/>
<path d="M639.677 210.653L655.226 197.24L633.895 223.433C632.498 230.029 632.097 237.365 632.14 241.842L620.004 240.49L633.895 223.433C635.045 218.003 636.87 213.075 639.677 210.653Z" fill="#1D68FF" fill-opacity="0.6"/>
<path d="M244.617 406.2L232.988 426.747L234.349 438.372L245.797 416.279L244.617 406.2Z" fill="#1D68FF" fill-opacity="0.4"/>
<path d="M572.711 339L562.403 356.201L570.756 357.608L580.494 344.582L572.711 339Z" fill="#1D68FF" fill-opacity="0.6"/>
<path d="M500.567 447.185L494.271 415.2L492.428 425.526L508.113 447.185L500.567 447.185Z" fill="#1D68FF" fill-opacity="0.6"/>
<path d="M198.199 207.403L200.409 219.951L197.736 225.415L195.882 212.14L198.199 207.403Z" fill="#1D68FF" fill-opacity="0.8"/>
<path d="M580.156 269.639L578.008 281.772L565.701 284.644L569.486 272.129L580.156 269.639Z" fill="#1D68FF" fill-opacity="0.8"/>
<path d="M122.213 277.439L126.81 291.375L122.213 291.375L113.252 285.012L122.213 277.439Z" fill="#1D68FF" fill-opacity="0.8"/>
<path d="M521.859 295.459L525.053 281.588L516.748 283.003L522.013 291.391L521.859 295.459Z" fill="#1D68FF" fill-opacity="0.8"/>
<path d="M531.469 283.748L554.26 258.814L561.815 276.373L545.751 299.373L531.469 283.748Z" fill="#1D68FF" fill-opacity="0.8"/>
<path d="M481.801 242.305L484.803 262.609L491.836 257.481L490.988 240.678L481.801 242.305Z" fill="#1D68FF" fill-opacity="0.8"/>
<path d="M154.281 271.727L162.435 278.602L172.787 295.305L165.854 273.475L154.281 271.727Z" fill="#1D68FF" fill-opacity="0.8"/>
<path d="M191.297 279.199L213.152 293.489L214.568 312.011L192.524 295.257L191.297 279.199Z" fill="#1D68FF" fill-opacity="0.8"/>
<path d="M515.141 318.869L496.678 330.547L492.988 341.118L511.942 328.034L515.141 318.869Z" fill="#1D68FF" fill-opacity="0.8"/>
<path d="M171.438 342.318L189.228 356.639L197.888 358.944L178.945 344.317L171.438 342.318Z" fill="#1D68FF" fill-opacity="0.8"/>
<path d="M585.953 218.4L581.677 241.258L583.444 247.297L586.453 227.749L585.953 218.4Z" fill="#1D68FF" fill-opacity="0.8"/>
<path d="M210.453 272.36L214.24 288.812L219.575 281.304L220.629 275.61L210.453 272.36Z" fill="#1D68FF" fill-opacity="0.8"/>
<path d="M186.723 229.65L160.234 213.609L167.828 198.599L169.891 226.771L186.723 229.65Z" fill="#1D68FF" fill-opacity="0.6"/>
<path d="M147.157 283.6C140.719 283.6 134.823 278.307 133.152 276.757C131.939 275.827 128.127 270.294 129.454 265.993C130.781 261.692 137.841 260.091 140.72 262.472C143.315 264.619 142.484 269.336 139.11 270.368C134.892 271.657 123.72 271.703 123.017 263.352C122.218 256.523 124.626 251.028 125.636 247.506" stroke="#1D68FF" stroke-width="0.36"/>
<path d="M196.32 268.693C194.164 271.806 194.327 276.43 194.394 277.758C194.364 278.656 195.322 282.352 197.505 283.152C199.687 283.951 202.699 281.072 202.701 278.883C202.703 276.908 200.518 275.73 198.971 277.016C197.038 278.624 193.277 284.012 196.415 287.149C198.907 289.823 201.934 290.499 203.696 291.19" stroke="#DBE6FF" stroke-width="0.6"/>
<path d="M473.267 274.191C474.63 277.654 473.5 281.948 473.157 283.175C472.996 284.024 471.316 287.247 469.102 287.444C466.888 287.642 464.672 284.182 465.133 282.129C465.548 280.278 467.845 279.726 469.023 281.323C470.496 283.319 472.883 289.32 469.278 291.467C466.378 293.343 463.397 293.211 461.601 293.414" stroke="#1D68FF" stroke-width="0.36"/>
<path d="M560.81 233.943C564.204 238.932 563.885 246.293 563.762 248.405C563.799 249.835 562.226 255.706 558.741 256.946C555.257 258.185 550.497 253.557 550.522 250.071C550.544 246.928 554.037 245.084 556.483 247.156C559.542 249.745 565.462 258.38 560.425 263.327C556.424 267.546 551.596 268.578 548.783 269.651" stroke="#DBE6FF" stroke-width="0.6"/>
<path d="M309.199 248.4L353.599 292.8L423.199 223.2" stroke="#1D68FF" stroke-width="12" stroke-linecap="round" stroke-linejoin="round"/>
<path d="M256.063 345.998V367.186H253.461V345.998H256.063ZM238.508 361.303C240.196 361.291 242.106 361.291 244.11 361.232V359.287C241.719 358.912 240.172 357.447 240.172 355.443C240.172 353.053 242.282 351.459 245.375 351.459C248.493 351.459 250.649 353.053 250.649 355.443C250.649 357.436 249.09 358.889 246.711 359.264V361.139C248.575 361.057 250.45 360.904 252.219 360.67L252.407 362.615C247.743 363.412 242.703 363.459 238.883 363.459L238.508 361.303ZM251.844 348.436V350.498H238.953V348.436H244.11V346.068H246.711V348.436H251.844ZM245.375 353.451C243.782 353.475 242.633 354.201 242.657 355.443C242.633 356.662 243.782 357.389 245.375 357.365C247.039 357.389 248.141 356.662 248.141 355.443C248.141 354.201 247.039 353.475 245.375 353.451ZM276.202 346.021V362.053H273.577V360.201H269.429V358.373H273.577V346.021H276.202ZM276.694 364.654V366.764H261.155V360.506H263.757V364.654H276.694ZM258.343 355.537C262.257 355.514 267.507 355.467 272.007 354.904L272.147 356.779C270.401 357.072 268.597 357.271 266.804 357.389V361.467H264.202V357.529C262.222 357.611 260.335 357.623 258.671 357.623L258.343 355.537ZM265.257 346.795C268.351 346.795 270.507 348.318 270.53 350.545C270.507 352.818 268.351 354.271 265.257 354.271C262.116 354.271 259.96 352.818 259.96 350.545C259.96 348.318 262.116 346.795 265.257 346.795ZM265.257 348.717C263.569 348.717 262.421 349.396 262.421 350.545C262.421 351.693 263.569 352.373 265.257 352.373C266.874 352.373 268.022 351.693 268.046 350.545C268.022 349.396 266.874 348.717 265.257 348.717ZM295.053 345.998V354.271H298.193V356.451H295.053V367.139H292.451V345.998H295.053ZM289.451 348.201C289.451 354.436 286.873 359.896 279.818 363.365L278.342 361.35C283.498 358.783 286.287 355.174 286.826 350.357H279.49V348.201H289.451ZM316.129 345.998V357.365H313.504V345.998H316.129ZM304.692 358.35V360.529H313.528V358.35H316.129V366.928H302.114V358.35H304.692ZM304.692 364.818H313.528V362.568H304.692V364.818ZM304.575 346.936C307.833 346.912 310.27 348.951 310.27 351.904C310.27 354.787 307.833 356.826 304.575 356.826C301.293 356.826 298.856 354.787 298.856 351.904C298.856 348.951 301.293 346.912 304.575 346.936ZM304.575 349.115C302.723 349.115 301.387 350.193 301.411 351.904C301.387 353.592 302.723 354.67 304.575 354.693C306.403 354.67 307.715 353.592 307.715 351.904C307.715 350.193 306.403 349.115 304.575 349.115ZM336.128 345.998V367.209H333.503V345.998H336.128ZM324.714 347.545C327.902 347.545 330.222 350.451 330.245 355.021C330.222 359.639 327.902 362.521 324.714 362.521C321.503 362.521 319.183 359.639 319.183 355.021C319.183 350.451 321.503 347.545 324.714 347.545ZM324.714 349.889C322.909 349.889 321.691 351.787 321.691 355.021C321.691 358.279 322.909 360.178 324.714 360.178C326.495 360.178 327.714 358.279 327.714 355.021C327.714 351.787 326.495 349.889 324.714 349.889ZM349.899 346.912C352.993 346.912 355.196 348.623 355.219 351.178C355.196 353.275 353.614 354.857 351.258 355.303V357.014C353.016 356.92 354.786 356.756 356.438 356.521L356.649 358.42C352.243 359.217 347.321 359.287 343.735 359.287L343.454 357.201C344.977 357.213 346.758 357.201 348.633 357.131V355.303C346.208 354.904 344.579 353.311 344.602 351.178C344.579 348.623 346.782 346.912 349.899 346.912ZM349.899 348.904C348.212 348.904 347.016 349.748 347.04 351.178C347.016 352.561 348.212 353.428 349.899 353.451C351.587 353.428 352.735 352.561 352.758 351.178C352.735 349.748 351.587 348.904 349.899 348.904ZM360.282 346.021V352.865H363.141V355.021H360.282V362.193H357.68V346.021H360.282ZM361.032 364.631V366.74H346.36V360.764H348.962V364.631H361.032ZM382.882 362.568V364.725H363.523V362.568H368.656V359.076H365.82V352.162H378.007V349.561H365.773V347.451H380.585V354.248H368.421V356.967H381.077V359.076H377.984V362.568H382.882ZM371.187 362.568H375.429V359.076H371.187V362.568ZM396.154 354.787V356.896H391.865V360.6C393.717 360.518 395.568 360.389 397.326 360.201L397.537 362.123C392.873 362.826 387.975 362.873 383.967 362.873L383.639 360.717C385.385 360.729 387.295 360.729 389.264 360.67V356.896H385.115V347.943H396.061V350.006H387.693V354.787H396.154ZM401.193 345.998V367.209H398.592V345.998H401.193ZM411.325 359.732C411.302 361.525 412.122 363.377 413.95 364.561C415.778 363.283 416.598 361.326 416.622 359.732V358.748H419.177V359.732C419.177 361.936 420.466 364.068 423.302 364.959L421.989 366.904C419.938 366.178 418.579 364.818 417.864 363.107C417.161 364.795 415.895 366.295 413.95 367.068C411.981 366.33 410.727 364.889 410.036 363.178C409.286 364.818 407.938 366.166 405.981 366.904L404.716 364.959C407.458 364.021 408.77 361.818 408.794 359.732V358.748H411.325V359.732ZM409.45 347.123C412.157 347.123 414.337 348.717 414.888 351.061H418.708V345.998H421.309V357.951H418.708V353.17H414.911C414.407 355.584 412.204 357.201 409.45 357.201C406.239 357.201 403.848 355.115 403.848 352.162C403.848 349.232 406.239 347.123 409.45 347.123ZM409.45 349.303C407.669 349.303 406.356 350.428 406.356 352.162C406.356 353.873 407.669 355.045 409.45 355.045C411.184 355.045 412.497 353.873 412.497 352.162C412.497 350.428 411.184 349.303 409.45 349.303ZM428.488 358.701V360.717H437.816V358.701H440.418V366.928H425.91V358.701H428.488ZM428.488 364.865H437.816V362.709H428.488V364.865ZM442.902 355.373V357.506H423.589V355.373H442.902ZM434.582 347.029C434.582 349.303 437.488 351.693 441.871 352.209L440.957 354.271C437.406 353.791 434.605 352.221 433.246 350.076C431.875 352.232 429.062 353.791 425.535 354.271L424.574 352.209C429.003 351.67 431.886 349.373 431.91 347.029V346.232H434.582V347.029ZM461.283 345.998V367.186H458.705V345.998H461.283ZM447.408 348.061V359.639C450.385 359.592 453.549 359.322 456.807 358.678L457.135 360.857C453.408 361.631 449.94 361.865 446.658 361.865H444.83V348.061H447.408ZM480.228 345.998V354.037H483.485V356.17H480.228V367.209H477.626V345.998H480.228ZM474.415 348.014V350.123H467.103V359.85C470.395 359.85 472.997 359.686 475.915 359.17L476.22 361.373C472.938 361.936 470.079 362.029 466.259 362.029H464.501V348.014H474.415ZM486.234 365.287C485.226 365.287 484.406 364.467 484.406 363.459C484.406 362.475 485.226 361.654 486.234 361.654C487.195 361.654 488.039 362.475 488.039 363.459C488.039 364.467 487.195 365.287 486.234 365.287ZM204.176 384.061V397.936H194.145V384.061H204.176ZM196.699 386.1V395.85H201.574V386.1H196.699ZM209.988 381.998V390.131H213.246V392.334H209.988V403.186H207.387V381.998H209.988ZM231.042 381.998V403.209H228.417V381.998H231.042ZM219.628 383.545C222.815 383.545 225.136 386.451 225.159 391.021C225.136 395.639 222.815 398.521 219.628 398.521C216.417 398.521 214.097 395.639 214.097 391.021C214.097 386.451 216.417 383.545 219.628 383.545ZM219.628 385.889C217.823 385.889 216.604 387.787 216.604 391.021C216.604 394.279 217.823 396.178 219.628 396.178C221.409 396.178 222.628 394.279 222.628 391.021C222.628 387.787 221.409 385.889 219.628 385.889ZM242.416 384.295V389.803H244.877V382.373H247.361V402.154H244.877V391.912H242.416V397.725H234.095V384.295H242.416ZM236.533 386.357V395.662H239.978V386.357H236.533ZM251.72 381.998V403.186H249.212V381.998H251.72ZM271.086 381.998V403.209H268.461V381.998H271.086ZM264.992 383.92V386.053H257.399V395.896C261.301 395.885 263.75 395.768 266.563 395.264L266.821 397.42C263.797 397.982 261.055 398.1 256.578 398.1H254.774V383.92H264.992ZM279.812 383.311C283.069 383.311 285.554 385.42 285.577 388.42C285.554 391.01 283.726 392.92 281.147 393.412V396.529C282.905 396.447 284.675 396.307 286.327 396.084L286.515 398.029C282.085 398.826 277.233 398.85 273.601 398.803L273.226 396.67C274.819 396.67 276.647 396.67 278.546 396.623V393.412C275.886 392.967 274.046 391.045 274.069 388.42C274.046 385.42 276.483 383.311 279.812 383.311ZM279.812 385.514C277.96 385.537 276.601 386.639 276.601 388.42C276.601 390.201 277.96 391.326 279.812 391.303C281.64 391.326 282.999 390.201 282.999 388.42C282.999 386.639 281.64 385.537 279.812 385.514ZM290.147 381.998V390.459H293.218V392.662H290.147V403.186H287.546V381.998H290.147ZM315.192 381.998V387.365H318.145V389.545H315.192V394.771H312.59V381.998H315.192ZM315.192 395.779V402.928H301.504V395.779H315.192ZM304.082 397.842V400.818H312.614V397.842H304.082ZM311.067 384.037V386.123H298.504V384.037H303.497V381.857H306.098V384.037H311.067ZM304.786 386.896C307.856 386.896 309.942 388.443 309.965 390.693C309.942 392.967 307.856 394.49 304.786 394.49C301.692 394.49 299.582 392.967 299.582 390.693C299.582 388.443 301.692 386.896 304.786 386.896ZM304.786 388.865C303.168 388.865 302.114 389.545 302.114 390.693C302.114 391.865 303.168 392.545 304.786 392.545C306.403 392.545 307.481 391.865 307.481 390.693C307.481 389.545 306.403 388.865 304.786 388.865ZM323.73 384.482C323.706 389.475 323.144 394.303 320.331 398.475L318.292 397.373C320.636 394.08 321.316 390.646 321.48 386.592H318.902V384.482H323.73ZM328.464 384.482C328.452 386.299 328.417 388.186 328.23 390.061H330.362V382.514H332.823V402.178H330.362V392.17H327.948C327.48 394.795 326.624 397.35 325.066 399.646L323.073 398.521C325.616 394.877 326.109 390.799 326.214 386.592H324.362V384.482H328.464ZM336.925 381.998V403.186H334.417V381.998H336.925ZM348.861 385.373V387.459H338.478V385.373H342.416V382.607H344.994V385.373H348.861ZM343.705 388.584C346.4 388.584 348.322 390.623 348.322 393.506C348.322 396.436 346.4 398.498 343.705 398.498C341.033 398.498 339.064 396.436 339.088 393.506C339.064 390.623 341.033 388.584 343.705 388.584ZM343.705 390.74C342.322 390.74 341.361 391.842 341.385 393.506C341.361 395.217 342.322 396.295 343.705 396.271C345.064 396.295 346.025 395.217 346.025 393.506C346.025 391.842 345.064 390.74 343.705 390.74ZM356.736 381.998V403.186H354.252V392.826H352.189V402.225H349.752V382.443H352.189V390.717H354.252V381.998H356.736ZM382.835 393.811V395.92H374.421V403.162H371.843V395.92H363.523V393.811H382.835ZM381.054 383.193V385.256H374.702C374.855 387.576 377.644 389.803 381.827 390.342L380.89 392.381C377.281 391.877 374.468 390.225 373.179 387.928C371.89 390.225 369.077 391.877 365.515 392.381L364.531 390.342C368.691 389.803 371.48 387.576 371.679 385.256H365.304V383.193H381.054ZM401.311 381.998V403.209H398.686V393.717H394.514V391.537H398.686V388.514H394.514V386.381H398.686V381.998H401.311ZM391.373 387.084C391.373 391.045 393.248 394.959 396.623 396.482L395.053 398.568C392.65 397.385 390.951 395.088 390.061 392.264C389.123 395.182 387.389 397.584 384.975 398.803L383.334 396.74C386.779 395.123 388.701 391.045 388.725 387.084V383.709H391.373V387.084ZM411.395 387.084C411.395 391.021 413.27 394.889 416.645 396.365L415.075 398.451C412.673 397.279 410.985 395.029 410.083 392.264C409.157 395.182 407.434 397.607 404.997 398.85L403.356 396.74C406.802 395.123 408.723 391.045 408.747 387.084V383.709H411.395V387.084ZM421.333 381.998V403.209H418.755V390.951H414.302V388.842H418.755V381.998H421.333ZM445.276 381.998V386.826H448.229V388.959H445.276V393.904H442.674V381.998H445.276ZM439.393 383.287C439.369 388.795 435.76 392.615 429.432 394.303L428.401 392.217C433.311 390.951 436.1 388.455 436.557 385.396H429.408V383.287H439.393ZM445.276 394.748V402.904H431.565V394.748H445.276ZM434.166 396.881V400.842H442.697V396.881H434.166ZM456.157 387.084C456.134 390.857 458.032 394.701 461.313 396.271L459.72 398.357C457.423 397.197 455.77 394.959 454.868 392.264C453.942 395.146 452.208 397.537 449.782 398.756L448.188 396.67C451.587 395.053 453.532 390.998 453.556 387.084V383.709H456.157V387.084ZM465.181 381.998V390.295H468.438V392.521H465.181V403.186H462.579V381.998H465.181ZM485.32 381.998V387.225H488.273V389.381H485.32V394.373H482.718V381.998H485.32ZM474.211 395.217V397.045H482.718V395.217H485.32V402.928H471.633V395.217H474.211ZM474.211 400.865H482.718V399.061H474.211V400.865ZM481.195 383.967V386.053H468.633V383.967H473.625V381.834H476.226V383.967H481.195ZM474.914 386.779C477.984 386.779 480.07 388.256 480.093 390.506C480.07 392.756 477.984 394.232 474.914 394.232C471.82 394.232 469.711 392.756 469.711 390.506C469.711 388.256 471.82 386.779 474.914 386.779ZM474.914 388.701C473.297 388.701 472.242 389.381 472.242 390.506C472.242 391.654 473.297 392.311 474.914 392.311C476.531 392.311 477.609 391.654 477.609 390.506C477.609 389.381 476.531 388.701 474.914 388.701ZM506.303 381.998V403.186H503.725V381.998H506.303ZM492.428 384.061V395.639C495.405 395.592 498.569 395.322 501.827 394.678L502.155 396.857C498.428 397.631 494.959 397.865 491.678 397.865H489.85V384.061H492.428ZM525.247 381.998V390.037H528.505V392.17H525.247V403.209H522.646V381.998H525.247ZM519.435 384.014V386.123H512.122V395.85C515.415 395.85 518.017 395.686 520.935 395.17L521.239 397.373C517.958 397.936 515.099 398.029 511.278 398.029H509.521V384.014H519.435ZM531.254 401.287C530.246 401.287 529.426 400.467 529.426 399.459C529.426 398.475 530.246 397.654 531.254 397.654C532.215 397.654 533.058 398.475 533.058 399.459C533.058 400.467 532.215 401.287 531.254 401.287Z" fill="#121218"/>
<defs>
<filter id="filter0_f_1627_5602" x="0.199219" y="0" width="747.602" height="487.2" filterUnits="userSpaceOnUse" color-interpolation-filters="sRGB">
<feFlood flood-opacity="0" result="BackgroundImageFix"/>
<feBlend mode="normal" in="SourceGraphic" in2="BackgroundImageFix" result="shape"/>
<feGaussianBlur stdDeviation="36" result="effect1_foregroundBlur_1627_5602"/>
</filter>
<linearGradient id="paint0_linear_1627_5602" x1="373.999" y1="72" x2="373.999" y2="474.9" gradientUnits="userSpaceOnUse">
<stop stop-color="white" stop-opacity="0"/>
<stop offset="0.795681" stop-color="#1D68FF" stop-opacity="0.1"/>
<stop offset="1" stop-color="white" stop-opacity="0"/>
</linearGradient>
</defs>
</svg>
