<svg width="88" height="40" viewBox="0 0 88 40" fill="none" xmlns="http://www.w3.org/2000/svg">
<rect x="0.5" y="0.5" width="86.793" height="39" rx="19.5" fill="white"/>
<rect x="0.5" y="0.5" width="86.793" height="39" rx="19.5" stroke="#DBE6FF"/>
<path d="M49.96 22.3496C51.6905 22.4376 53.1226 23.6517 53.541 25.2734C53.6084 25.2591 53.6784 25.252 53.75 25.252H56.791C57.3432 25.252 57.7908 25.6999 57.791 26.252C57.791 26.8042 57.3433 27.252 56.791 27.252H53.75C53.6787 27.2519 53.6091 27.2447 53.542 27.2305C53.1078 28.9151 51.579 30.16 49.7588 30.1602L49.5576 30.1553C47.8308 30.0678 46.4 28.8593 45.9775 27.2432C45.9356 27.2485 45.893 27.2519 45.8496 27.252H31C30.4477 27.252 30 26.8042 30 26.252C30.0002 25.6999 30.4479 25.252 31 25.252H45.8496C45.893 25.252 45.9356 25.2554 45.9775 25.2607C46.4166 23.5828 47.9433 22.3447 49.7588 22.3447L49.96 22.3496ZM49.7588 24.3447C48.7051 24.3447 47.8506 25.1992 47.8506 26.2529C47.8509 27.3064 48.7053 28.1602 49.7588 28.1602C50.8121 28.1599 51.6657 27.3062 51.666 26.2529C51.666 25.1994 50.8123 24.345 49.7588 24.3447ZM39.0176 9.84473C40.7406 9.93241 42.1675 11.1367 42.5928 12.748H56.793L56.8955 12.7529C57.3995 12.8043 57.793 13.2304 57.793 13.748C57.7927 14.2655 57.3994 14.6918 56.8955 14.7432L56.793 14.748H42.5938C42.1519 16.4213 40.6285 17.655 38.8164 17.6553L38.6152 17.6504C36.8898 17.563 35.4598 16.3564 35.0361 14.7422C35.0074 14.7447 34.9786 14.748 34.9492 14.748H31C30.4479 14.748 30.0002 14.3001 30 13.748C30 13.1958 30.4477 12.748 31 12.748H34.9492C34.9785 12.748 35.0075 12.7495 35.0361 12.752C35.4766 11.076 37.0023 9.83984 38.8164 9.83984L39.0176 9.84473ZM38.8164 11.8398C37.7627 11.8398 36.9082 12.6943 36.9082 13.748C36.9084 14.8016 37.7628 15.6553 38.8164 15.6553C39.8696 15.6549 40.7234 14.8013 40.7236 13.748C40.7236 12.6946 39.8698 11.8402 38.8164 11.8398Z" fill="#9DA0A3"/>
</svg>
