<svg width="17" height="21" viewBox="0 0 17 21" fill="none" xmlns="http://www.w3.org/2000/svg">
<path fill-rule="evenodd" clip-rule="evenodd" d="M0.029201 8.04326C0.195538 6.03301 1.11143 4.15873 2.59517 2.79224C4.07891 1.42576 6.02208 0.666916 8.0392 0.66626H8.4712C10.4883 0.666916 12.4315 1.42576 13.9152 2.79224C15.399 4.15873 16.3149 6.03301 16.4812 8.04326C16.6658 10.2877 15.9729 12.5162 14.5482 14.2603L9.7552 20.1223C9.57354 20.3446 9.34471 20.5238 9.08529 20.6468C8.82586 20.7699 8.54233 20.8337 8.2552 20.8337C7.96808 20.8337 7.68454 20.7699 7.42512 20.6468C7.16569 20.5238 6.93687 20.3446 6.7552 20.1223L1.9632 14.2603C0.538163 12.5164 -0.155102 10.2878 0.029201 8.04326ZM8.2552 4.41626C6.99542 4.41626 5.78724 4.91671 4.89644 5.8075C4.00565 6.6983 3.5052 7.90648 3.5052 9.16626C3.5052 10.426 4.00565 11.6342 4.89644 12.525C5.78724 13.4158 6.99542 13.9163 8.2552 13.9163C9.51498 13.9163 10.7232 13.4158 11.614 12.525C12.5048 11.6342 13.0052 10.426 13.0052 9.16626C13.0052 7.90648 12.5048 6.6983 11.614 5.8075C10.7232 4.91671 9.51498 4.41626 8.2552 4.41626Z" fill="#4D5053"/>
</svg>
