<svg width="133" height="131" viewBox="0 0 133 131" fill="none" xmlns="http://www.w3.org/2000/svg">
<rect x="0.75" width="132" height="131" rx="65.5" fill="#EDF0F3"/>
<path d="M66.7505 65.8311C72.1566 65.8311 77.5098 66.8961 82.5044 68.9648C87.4992 71.0337 92.038 74.0668 95.8608 77.8896C99.6835 81.7124 102.716 86.2505 104.785 91.2451C105.958 94.0776 106.808 97.0258 107.325 100.033C107.979 103.843 104.784 107 100.918 107H32.5825C28.7165 107 25.5211 103.843 26.1753 100.033C26.6917 97.0257 27.542 94.0777 28.7153 91.2451C30.7842 86.2504 33.8173 81.7125 37.6401 77.8896C41.4629 74.0669 46.0009 71.0337 50.9956 68.9648C55.9904 66.8959 61.3442 65.8311 66.7505 65.8311ZM67.0835 24C78.6351 24.0001 87.9995 33.3644 87.9995 44.916C87.9994 56.4675 78.635 65.832 67.0835 65.832C55.5319 65.832 46.1676 56.4676 46.1675 44.916C46.1675 33.3643 55.5318 24 67.0835 24Z" fill="white"/>
</svg>
