<svg width="228" height="228" viewBox="0 0 228 228" fill="none" xmlns="http://www.w3.org/2000/svg">
<rect width="228" height="228" rx="114" fill="#EDF0F3"/>
<path d="M113.646 114C121.787 114 129.85 115.604 137.372 118.72C144.894 121.836 151.729 126.402 157.486 132.159C163.244 137.916 167.81 144.751 170.926 152.273C173.147 157.635 174.6 163.271 175.251 169.015C175.687 172.856 172.512 176 168.646 176H58.6455C54.7795 176 51.6045 172.856 52.0401 169.015C52.6913 163.271 54.1444 157.635 56.3653 152.273C59.4811 144.751 64.0476 137.916 69.8047 132.159C75.5619 126.402 82.3969 121.836 89.919 118.72C97.4412 115.604 105.504 114 113.646 114ZM114.146 51C131.543 51 145.646 65.103 145.646 82.5C145.646 99.897 131.543 114 114.146 114C96.7486 114 82.6455 99.897 82.6455 82.5C82.6455 65.103 96.7486 51 114.146 51Z" fill="white"/>
</svg>
