<svg width="82" height="83" viewBox="0 0 82 83" fill="none" xmlns="http://www.w3.org/2000/svg">
<path d="M40.7505 41.8311C46.1566 41.8311 51.5098 42.8961 56.5044 44.9648C61.4992 47.0337 66.038 50.0668 69.8608 53.8896C73.6835 57.7124 76.7158 62.2505 78.7847 67.2451C79.9579 70.0776 80.8083 73.0258 81.3247 76.0332C81.9789 79.8434 78.7844 83 74.9184 83H6.58251C2.71652 83 -0.47891 79.8434 0.175283 76.0332C0.691657 73.0257 1.54204 70.0777 2.71532 67.2451C4.78422 62.2504 7.81733 57.7125 11.6401 53.8896C15.4629 50.0669 20.0009 47.0337 24.9956 44.9648C29.9904 42.8959 35.3442 41.8311 40.7505 41.8311ZM41.0835 0C52.6351 7.83426e-05 61.9995 9.36439 61.9995 20.916C61.9994 32.4675 52.635 41.832 41.0835 41.832C29.5319 41.832 20.1676 32.4676 20.1675 20.916C20.1675 9.36434 29.5318 0 41.0835 0Z" fill="white"/>
</svg>
