<svg width="21" height="20" viewBox="0 0 21 20" fill="none" xmlns="http://www.w3.org/2000/svg">
<path d="M19.3549 10C19.3549 11.2004 19.1405 12.389 18.7239 13.498C18.3073 14.607 17.6966 15.6146 16.9269 16.4634C16.1571 17.3122 15.2432 17.9855 14.2375 18.4448C13.2317 18.9042 12.1538 19.1406 11.0651 19.1406C9.97651 19.1406 8.89854 18.9042 7.89279 18.4448C6.88703 17.9855 5.97317 17.3122 5.2034 16.4634C4.43363 15.6146 3.82301 14.607 3.40641 13.498C2.98981 12.389 2.77539 11.2004 2.77539 10L6.31722 10C6.31722 10.6875 6.44002 11.3683 6.67863 12.0034C6.91723 12.6386 7.26696 13.2157 7.70785 13.7019C8.14873 14.188 8.67214 14.5736 9.24818 14.8367C9.82423 15.0998 10.4416 15.2353 11.0651 15.2353C11.6886 15.2353 12.306 15.0998 12.8821 14.8367C13.4581 14.5736 13.9815 14.188 14.4224 13.7019C14.8633 13.2157 15.213 12.6386 15.4516 12.0034C15.6902 11.3683 15.813 10.6875 15.813 10H19.3549Z" fill="#1D68FF"/>
<path d="M1.75 1.82642L8.1293 4.50796C8.60518 4.708 8.58284 5.38977 8.09489 5.55822L1.75 7.74868" stroke="#1D68FF" stroke-width="1.6875" stroke-linecap="round"/>
<path d="M13.3831 6.625C12.8321 6.625 12.3754 6.17416 12.4826 5.63372C12.5357 5.36605 12.6103 5.10346 12.7058 4.84911C12.9173 4.28608 13.2273 3.77451 13.6181 3.34358C14.0089 2.91266 14.4729 2.57084 14.9835 2.33762C15.4941 2.10441 16.0414 1.98438 16.5941 1.98438C17.1468 1.98438 17.6941 2.10441 18.2047 2.33762C18.7153 2.57084 19.1792 2.91266 19.5701 3.34358C19.9609 3.77451 20.2709 4.28608 20.4824 4.84911C20.5779 5.10346 20.6525 5.36605 20.7056 5.63372C20.8128 6.17416 20.3561 6.625 19.8051 6.625L19.7617 6.625C19.2347 6.625 18.8243 6.18433 18.639 5.69102C18.5278 5.39491 18.3648 5.12586 18.1592 4.89923C17.9537 4.6726 17.7097 4.49282 17.4411 4.37017C17.1726 4.24752 16.8848 4.18439 16.5941 4.18439C16.3034 4.18439 16.0156 4.24752 15.7471 4.37017C15.4785 4.49282 15.2345 4.6726 15.029 4.89923C14.8234 5.12586 14.6604 5.39491 14.5492 5.69102C14.3638 6.18433 13.9535 6.625 13.4265 6.625L13.3831 6.625Z" fill="#1D68FF"/>
</svg>
