<svg width="21" height="21" viewBox="0 0 21 21" fill="none" xmlns="http://www.w3.org/2000/svg">
<path d="M10.5098 0.75C16.0328 0.75 20.5098 5.227 20.5098 10.75C20.5098 16.273 16.0328 20.75 10.5098 20.75C4.98677 20.75 0.509766 16.273 0.509766 10.75C0.509766 5.227 4.98677 0.75 10.5098 0.75ZM10.5098 4.75C10.2445 4.75 9.9902 4.85536 9.80266 5.04289C9.61512 5.23043 9.50977 5.48478 9.50977 5.75V10.75C9.50982 11.0152 9.61522 11.2695 9.80277 11.457L12.8028 14.457C12.9914 14.6392 13.244 14.74 13.5062 14.7377C13.7684 14.7354 14.0192 14.6302 14.2046 14.4448C14.39 14.2594 14.4952 14.0086 14.4974 13.7464C14.4997 13.4842 14.3989 13.2316 14.2168 13.043L11.5098 10.336V5.75C11.5098 5.48478 11.4044 5.23043 11.2169 5.04289C11.0293 4.85536 10.775 4.75 10.5098 4.75Z" fill="#4D5053"/>
</svg>
