<svg width="527" height="184" viewBox="0 0 527 184" fill="none" xmlns="http://www.w3.org/2000/svg">
<g filter="url(#filter0_dddd_2451_443)">
<mask id="path-1-inside-1_2451_443" fill="white">
<path d="M167.376 4.24332C168.157 3.22606 169.68 3.19578 170.5 4.1818L178.831 14.1987C182.63 18.7677 188.265 21.4103 194.208 21.4103H478C489.046 21.4103 498 30.3646 498 41.4103V118C498 129.046 489.046 138 478 138H25C13.9543 138 5 129.046 5 118V41.4103C5 30.3646 13.9543 21.4103 25 21.4103H144.337C150.553 21.4103 156.415 18.5201 160.201 13.5896L167.376 4.24332Z"/>
</mask>
<path d="M167.376 4.24332C168.157 3.22606 169.68 3.19578 170.5 4.1818L178.831 14.1987C182.63 18.7677 188.265 21.4103 194.208 21.4103H478C489.046 21.4103 498 30.3646 498 41.4103V118C498 129.046 489.046 138 478 138H25C13.9543 138 5 129.046 5 118V41.4103C5 30.3646 13.9543 21.4103 25 21.4103H144.337C150.553 21.4103 156.415 18.5201 160.201 13.5896L167.376 4.24332Z" fill="#121218" fill-opacity="0.3"/>
<path d="M167.376 4.24332L168.962 5.46125L168.962 5.46123L167.376 4.24332ZM170.5 4.1818L172.038 2.90296L172.038 2.90294L170.5 4.1818ZM160.201 13.5896L158.614 12.3717L160.201 13.5896ZM178.831 14.1987L180.368 12.9199L178.831 14.1987ZM167.376 4.24332L168.962 5.46123L168.962 5.46067L170.5 4.1818L172.038 2.90294C170.397 0.930085 167.351 0.991723 165.79 3.02542L167.376 4.24332ZM170.5 4.1818L168.962 5.46064L177.293 15.4776L178.831 14.1987L180.368 12.9199L172.038 2.90296L170.5 4.1818ZM194.208 21.4103V23.4103H478V21.4103V19.4103H194.208V21.4103ZM498 41.4103H496V118H498H500V41.4103H498ZM478 138V136H25V138V140H478V138ZM5 118H7V41.4103H5H3V118H5ZM25 21.4103V23.4103H144.337V21.4103V19.4103H25V21.4103ZM160.201 13.5896L161.787 14.8075L168.962 5.46125L167.376 4.24332L165.79 3.0254L158.614 12.3717L160.201 13.5896ZM144.337 21.4103V23.4103C151.174 23.4103 157.623 20.2311 161.787 14.8075L160.201 13.5896L158.614 12.3717C155.207 16.8091 149.931 19.4103 144.337 19.4103V21.4103ZM5 41.4103H7C7 31.4692 15.0589 23.4103 25 23.4103V21.4103V19.4103C12.8497 19.4103 3 29.2601 3 41.4103H5ZM25 138V136C15.0589 136 7 127.941 7 118H5H3C3 130.15 12.8497 140 25 140V138ZM498 118H496C496 127.941 487.941 136 478 136V138V140C490.15 140 500 130.15 500 118H498ZM478 21.4103V23.4103C487.941 23.4103 496 31.4692 496 41.4103H498H500C500 29.2601 490.15 19.4103 478 19.4103V21.4103ZM178.831 14.1987L177.293 15.4776C181.473 20.5034 187.671 23.4103 194.208 23.4103V21.4103V19.4103C188.859 19.4103 183.788 17.032 180.368 12.9199L178.831 14.1987Z" fill="#1D68FF" mask="url(#path-1-inside-1_2451_443)"/>
</g>
<defs>
<filter id="filter0_dddd_2451_443" x="0" y="0.460938" width="527" height="183.539" filterUnits="userSpaceOnUse" color-interpolation-filters="sRGB">
<feFlood flood-opacity="0" result="BackgroundImageFix"/>
<feColorMatrix in="SourceAlpha" type="matrix" values="0 0 0 0 0 0 0 0 0 0 0 0 0 0 0 0 0 0 127 0" result="hardAlpha"/>
<feOffset dx="1" dy="2"/>
<feGaussianBlur stdDeviation="2.5"/>
<feColorMatrix type="matrix" values="0 0 0 0 0.113725 0 0 0 0 0.407843 0 0 0 0 1 0 0 0 0.2 0"/>
<feBlend mode="normal" in2="BackgroundImageFix" result="effect1_dropShadow_2451_443"/>
<feColorMatrix in="SourceAlpha" type="matrix" values="0 0 0 0 0 0 0 0 0 0 0 0 0 0 0 0 0 0 127 0" result="hardAlpha"/>
<feOffset dx="4" dy="8"/>
<feGaussianBlur stdDeviation="4.5"/>
<feColorMatrix type="matrix" values="0 0 0 0 0.113725 0 0 0 0 0.407843 0 0 0 0 1 0 0 0 0.17 0"/>
<feBlend mode="normal" in2="effect1_dropShadow_2451_443" result="effect2_dropShadow_2451_443"/>
<feColorMatrix in="SourceAlpha" type="matrix" values="0 0 0 0 0 0 0 0 0 0 0 0 0 0 0 0 0 0 127 0" result="hardAlpha"/>
<feOffset dx="9" dy="18"/>
<feGaussianBlur stdDeviation="6"/>
<feColorMatrix type="matrix" values="0 0 0 0 0.113725 0 0 0 0 0.407843 0 0 0 0 1 0 0 0 0.1 0"/>
<feBlend mode="normal" in2="effect2_dropShadow_2451_443" result="effect3_dropShadow_2451_443"/>
<feColorMatrix in="SourceAlpha" type="matrix" values="0 0 0 0 0 0 0 0 0 0 0 0 0 0 0 0 0 0 127 0" result="hardAlpha"/>
<feOffset dx="15" dy="32"/>
<feGaussianBlur stdDeviation="7"/>
<feColorMatrix type="matrix" values="0 0 0 0 0.113725 0 0 0 0 0.407843 0 0 0 0 1 0 0 0 0.03 0"/>
<feBlend mode="normal" in2="effect3_dropShadow_2451_443" result="effect4_dropShadow_2451_443"/>
<feBlend mode="normal" in="SourceGraphic" in2="effect4_dropShadow_2451_443" result="shape"/>
</filter>
</defs>
</svg>
