<svg width="193" height="34" viewBox="0 0 193 34" fill="none" xmlns="http://www.w3.org/2000/svg">
<path d="M11 6L181 5.99999" stroke="url(#paint0_linear_1758_6432)" stroke-linecap="round" stroke-dasharray="2.4 2.4"/>
<circle cx="11" cy="6" r="6" fill="#ED5151"/>
<circle cx="54" cy="6" r="6" fill="#FF732D"/>
<circle cx="97" cy="6" r="6" fill="#FFCC00"/>
<circle cx="140" cy="6" r="6" fill="#64DF48"/>
<circle cx="183" cy="6" r="6" fill="#1D68FF"/>
<path d="M3.86719 18.0938C4.375 18.0938 4.82812 18.1816 5.22656 18.3574C5.62891 18.5293 5.94141 18.7734 6.16406 19.0898C6.39062 19.4062 6.50391 19.7695 6.50391 20.1797C6.50391 20.5898 6.39062 20.9551 6.16406 21.2754C5.94141 21.5957 5.62891 21.8438 5.22656 22.0195C4.82812 22.1953 4.375 22.2812 3.86719 22.2773C3.35938 22.2812 2.90625 22.1953 2.50781 22.0195C2.11328 21.8438 1.80469 21.5977 1.58203 21.2812C1.35938 20.9609 1.25 20.5938 1.25391 20.1797C1.25 19.7695 1.35742 19.4062 1.57617 19.0898C1.79883 18.7734 2.10938 18.5293 2.50781 18.3574C2.90625 18.1816 3.35938 18.0938 3.86719 18.0938ZM3.86719 18.7148C3.50391 18.7109 3.17773 18.7734 2.88867 18.9023C2.59961 19.0273 2.37305 19.2031 2.20898 19.4297C2.04492 19.6523 1.96484 19.9023 1.96875 20.1797C1.96484 20.4648 2.04297 20.7207 2.20312 20.9473C2.36719 21.1699 2.59375 21.3438 2.88281 21.4688C3.17578 21.5938 3.50391 21.6562 3.86719 21.6562C4.23828 21.6562 4.57031 21.5938 4.86328 21.4688C5.15625 21.3438 5.38477 21.1699 5.54883 20.9473C5.7168 20.7207 5.80078 20.4648 5.80078 20.1797C5.80078 19.9023 5.7168 19.6523 5.54883 19.4297C5.38477 19.2031 5.1543 19.0273 4.85742 18.9023C4.56445 18.7734 4.23438 18.7109 3.86719 18.7148ZM8.92969 27.9258H8.20312V17.5781H8.92969V27.9258ZM0.9375 23.2383C3.56641 23.2383 5.71875 23.1133 7.39453 22.8633L7.45312 23.4375C6.49609 23.6055 5.44531 23.7246 4.30078 23.7949V27.5859H3.5625V23.8301C3.07812 23.8535 2.60938 23.8691 2.15625 23.877C1.70703 23.8848 1.16406 23.8906 0.527344 23.8945L0.421875 23.2383H0.9375ZM18.9877 23.8477H18.2494V21.3867H16.3509V20.7539H18.2494V17.5781H18.9877V23.8477ZM18.9877 27.7617H12.2963V24.4336H18.9877V27.7617ZM13.0228 27.1523H18.2611V25.0312H13.0228V27.1523ZM16.4916 19.3359H10.4681V18.7266H13.1166V17.4727H13.8431V18.7266H16.4916V19.3359ZM13.4798 19.9336C13.9369 19.9336 14.3451 20.0117 14.7045 20.168C15.0638 20.3203 15.3431 20.5371 15.5423 20.8184C15.7455 21.0957 15.847 21.4141 15.847 21.7734C15.847 22.1367 15.7455 22.457 15.5423 22.7344C15.3431 23.0078 15.0638 23.2207 14.7045 23.373C14.3451 23.5254 13.9369 23.6016 13.4798 23.6016C13.0189 23.6016 12.6068 23.5254 12.2435 23.373C11.8841 23.2207 11.6029 23.0078 11.3998 22.7344C11.2005 22.457 11.1009 22.1367 11.1009 21.7734C11.1009 21.4141 11.2005 21.0957 11.3998 20.8184C11.6029 20.5371 11.8841 20.3203 12.2435 20.168C12.6068 20.0117 13.0189 19.9336 13.4798 19.9336ZM13.4798 20.5195C13.1556 20.5195 12.8666 20.5742 12.6127 20.6836C12.3588 20.7891 12.1615 20.9375 12.0209 21.1289C11.8802 21.3203 11.8119 21.5352 11.8158 21.7734C11.8119 22.0156 11.8802 22.2324 12.0209 22.4238C12.1615 22.6113 12.3588 22.7578 12.6127 22.8633C12.8666 22.9688 13.1556 23.0234 13.4798 23.0273C13.8002 23.0234 14.0873 22.9688 14.3412 22.8633C14.5951 22.7578 14.7923 22.6113 14.933 22.4238C15.0736 22.2324 15.1439 22.0156 15.1439 21.7734C15.1439 21.5352 15.0716 21.3203 14.9271 21.1289C14.7865 20.9375 14.5892 20.7891 14.3353 20.6836C14.0853 20.5742 13.8002 20.5195 13.4798 20.5195Z" fill="#4D5053"/>
<path d="M48.5664 19.0312C48.5664 19.5 48.7539 19.9434 49.1289 20.3613C49.5078 20.7754 49.9844 21.123 50.5586 21.4043C51.1328 21.6855 51.707 21.8711 52.2812 21.9609L52 22.5469C51.4727 22.4492 50.9531 22.2891 50.4414 22.0664C49.9297 21.8398 49.4707 21.5586 49.0645 21.2227C48.6621 20.8828 48.3613 20.5039 48.1621 20.0859C47.9629 20.5 47.6602 20.877 47.2539 21.2168C46.8516 21.5566 46.3965 21.8398 45.8887 22.0664C45.3809 22.2891 44.8672 22.4492 44.3477 22.5469L44.0547 21.9609C44.625 21.8711 45.1973 21.6855 45.7715 21.4043C46.3457 21.123 46.8203 20.7754 47.1953 20.3613C47.5703 19.9434 47.7578 19.5 47.7578 19.0312V18.8672H44.3594V18.2578H51.9531V18.8672H48.5664V19.0312ZM52.8789 24.1523H48.5078V27.9023H47.793V24.1523H43.457V23.5195H52.8789V24.1523ZM56.8548 18.3516C57.39 18.3516 57.8666 18.4531 58.2845 18.6562C58.7025 18.8555 59.0287 19.1367 59.263 19.5C59.4974 19.8594 59.6166 20.2734 59.6205 20.7422C59.6166 21.2148 59.4974 21.6328 59.263 21.9961C59.0287 22.3555 58.7025 22.6348 58.2845 22.834C57.8705 23.0332 57.3939 23.1328 56.8548 23.1328C56.3197 23.1328 55.8412 23.0332 55.4193 22.834C55.0013 22.6348 54.6752 22.3535 54.4408 21.9902C54.2064 21.627 54.0892 21.2109 54.0892 20.7422C54.0892 20.2773 54.2064 19.8633 54.4408 19.5C54.6791 19.1367 55.0072 18.8555 55.4252 18.6562C55.8431 18.4531 56.3197 18.3516 56.8548 18.3516ZM56.8548 19.0078C56.4642 19.0078 56.1127 19.082 55.8002 19.2305C55.4916 19.3789 55.2494 19.5859 55.0736 19.8516C54.8978 20.1133 54.8119 20.4102 54.8158 20.7422C54.8119 21.0742 54.8978 21.373 55.0736 21.6387C55.2494 21.9043 55.4916 22.1113 55.8002 22.2598C56.1127 22.4082 56.4642 22.4805 56.8548 22.4766C57.2455 22.4805 57.5951 22.4082 57.9037 22.2598C58.2123 22.1113 58.4545 21.9043 58.6302 21.6387C58.806 21.373 58.8939 21.0742 58.8939 20.7422C58.8939 20.4102 58.806 20.1133 58.6302 19.8516C58.4545 19.5859 58.2123 19.3789 57.9037 19.2305C57.5951 19.082 57.2455 19.0078 56.8548 19.0078ZM61.8822 27.9258H61.1439V17.5781H61.8822V27.9258ZM54.3236 24.9375C55.4525 24.9375 56.5248 24.9141 57.5404 24.8672C58.556 24.8164 59.5189 24.7227 60.4291 24.5859L60.4877 25.1484C59.7533 25.2852 58.9877 25.3867 58.1908 25.4531C57.3978 25.5156 56.6634 25.5547 55.9877 25.5703C55.3119 25.5859 54.5306 25.5938 53.6439 25.5938L53.5267 24.9375H54.3236Z" fill="#4D5053"/>
<path d="M92.1641 18.9141V19.043C92.1562 19.5508 92.1348 20.0254 92.0996 20.4668C92.0684 20.9082 91.9961 21.4102 91.8828 21.9727L91.1445 21.9141C91.2656 21.3242 91.3438 20.8047 91.3789 20.3555C91.418 19.9062 91.4375 19.4609 91.4375 19.0195H87.0664V18.3867H92.1641V18.9141ZM89.4688 22.9512C90.8086 22.8965 91.9844 22.8008 92.9961 22.6641L93.043 23.2266C92.0781 23.3867 91.0527 23.4941 89.9668 23.5488C88.8809 23.5996 87.7266 23.625 86.5039 23.625L86.4219 23.0039C87.2773 23.0039 88.0508 22.9941 88.7422 22.9746V20.6484H89.4688V22.9512ZM94.4844 21.0117H96.0781V21.6445H94.4844V25.3711H93.7461V17.5781H94.4844V21.0117ZM94.8242 27.668H88.0391V24.6562H88.7773V27.0469H94.8242V27.668ZM104.964 23.4609H104.226V17.5781H104.964V23.4609ZM104.964 27.7617H98.308V24.0938H104.964V27.7617ZM99.0345 27.1523H104.238V24.7031H99.0345V27.1523ZM100.031 19.0078C100.027 19.5039 100.144 19.9785 100.382 20.4316C100.624 20.8809 100.951 21.2754 101.361 21.6152C101.771 21.9551 102.226 22.2148 102.726 22.3945L102.351 22.9688C101.742 22.7461 101.199 22.4121 100.722 21.9668C100.245 21.5215 99.8939 21.0039 99.6673 20.4141C99.4486 21.043 99.099 21.5996 98.6185 22.084C98.142 22.5684 97.5931 22.9336 96.972 23.1797L96.597 22.5938C97.097 22.4062 97.5502 22.1309 97.9564 21.7676C98.3666 21.4043 98.6908 20.9844 98.9291 20.5078C99.1673 20.0273 99.2884 19.5273 99.2923 19.0078V17.9883H100.031V19.0078Z" fill="#4D5053"/>
<path d="M137.977 23.7422H137.238V20.9531H135V20.332H137.238V17.5781H137.977V23.7422ZM134.578 24.0938C135.289 24.0938 135.9 24.168 136.412 24.3164C136.928 24.4648 137.322 24.6816 137.596 24.9668C137.873 25.252 138.012 25.5938 138.012 25.9922C138.012 26.3906 137.873 26.7324 137.596 27.0176C137.322 27.3027 136.928 27.5195 136.412 27.668C135.9 27.8203 135.289 27.8984 134.578 27.9023C133.867 27.8984 133.254 27.8203 132.738 27.668C132.227 27.5195 131.834 27.3027 131.561 27.0176C131.287 26.7324 131.152 26.3906 131.156 25.9922C131.152 25.5938 131.287 25.252 131.561 24.9668C131.834 24.6816 132.227 24.4648 132.738 24.3164C133.254 24.168 133.867 24.0938 134.578 24.0938ZM134.578 24.6797C134.031 24.6797 133.553 24.7324 133.143 24.8379C132.736 24.9434 132.424 25.0957 132.205 25.2949C131.986 25.4941 131.879 25.7266 131.883 25.9922C131.879 26.2578 131.986 26.4883 132.205 26.6836C132.424 26.8789 132.736 27.0293 133.143 27.1348C133.553 27.2402 134.031 27.293 134.578 27.293C135.125 27.293 135.602 27.2402 136.008 27.1348C136.418 27.0293 136.732 26.8789 136.951 26.6836C137.174 26.4883 137.285 26.2578 137.285 25.9922C137.285 25.7266 137.174 25.4941 136.951 25.2949C136.732 25.0957 136.418 24.9434 136.008 24.8379C135.602 24.7324 135.125 24.6797 134.578 24.6797ZM132.949 19.5234C132.949 19.9766 133.062 20.416 133.289 20.8418C133.52 21.2676 133.832 21.6445 134.227 21.9727C134.621 22.2969 135.062 22.543 135.551 22.7109L135.164 23.3086C134.578 23.0898 134.059 22.7676 133.605 22.3418C133.156 21.9121 132.822 21.4238 132.604 20.877C132.385 21.498 132.037 22.0488 131.561 22.5293C131.084 23.0098 130.535 23.3711 129.914 23.6133L129.527 23.0156C130.027 22.832 130.48 22.5625 130.887 22.207C131.293 21.8516 131.615 21.4434 131.854 20.9824C132.092 20.5176 132.211 20.0352 132.211 19.5352V18.9961H129.785V18.375H135.34V18.9961H132.949V19.5234ZM142.82 19.2656C142.82 19.7383 142.937 20.1934 143.171 20.6309C143.406 21.0684 143.722 21.4551 144.12 21.791C144.523 22.123 144.968 22.375 145.456 22.5469L145.046 23.1445C144.468 22.9219 143.953 22.5938 143.499 22.1602C143.046 21.7227 142.708 21.2227 142.486 20.6602C142.275 21.293 141.939 21.8516 141.478 22.3359C141.017 22.8164 140.48 23.1797 139.867 23.4258L139.468 22.8281C139.972 22.6367 140.421 22.3613 140.816 22.002C141.214 21.6426 141.527 21.2246 141.753 20.748C141.984 20.2676 142.101 19.7578 142.105 19.2188V18.1055H142.82V19.2656ZM147.519 20.3555H149.113V20.9883H147.519V23.918H146.781V17.5781H147.519V20.3555ZM144.226 24.1992C144.925 24.1992 145.527 24.2715 146.031 24.416C146.538 24.5605 146.927 24.7715 147.197 25.0488C147.466 25.3262 147.601 25.6562 147.601 26.0391C147.601 26.4258 147.466 26.7559 147.197 27.0293C146.927 27.3066 146.54 27.5176 146.036 27.6621C145.533 27.8066 144.929 27.8789 144.226 27.8789C143.519 27.8789 142.911 27.8066 142.404 27.6621C141.896 27.5176 141.507 27.3066 141.238 27.0293C140.968 26.7559 140.835 26.4258 140.839 26.0391C140.835 25.6562 140.968 25.3262 141.238 25.0488C141.507 24.7715 141.896 24.5605 142.404 24.416C142.915 24.2715 143.523 24.1992 144.226 24.1992ZM144.226 24.8086C143.687 24.8086 143.216 24.8594 142.814 24.9609C142.411 25.0586 142.101 25.2012 141.882 25.3887C141.667 25.5723 141.562 25.7891 141.566 26.0391C141.562 26.293 141.667 26.5137 141.882 26.7012C142.101 26.8887 142.41 27.0332 142.808 27.1348C143.21 27.2363 143.683 27.2891 144.226 27.293C144.765 27.2891 145.234 27.2363 145.632 27.1348C146.035 27.0332 146.343 26.8887 146.558 26.7012C146.777 26.5137 146.886 26.293 146.886 26.0391C146.886 25.7891 146.777 25.5723 146.558 25.3887C146.343 25.2012 146.035 25.0586 145.632 24.9609C145.234 24.8594 144.765 24.8086 144.226 24.8086Z" fill="#4D5053"/>
<path d="M180.508 20.7773H182.102V21.4102H180.508V25.2305H179.77V17.5664H180.508V20.7773ZM181.012 27.668H174.109V24.4336H174.836V27.0469H181.012V27.668ZM175.375 18.3281C175.879 18.3281 176.332 18.4355 176.734 18.6504C177.141 18.8613 177.459 19.1582 177.689 19.541C177.924 19.9199 178.043 20.3516 178.047 20.8359C178.043 21.3242 177.924 21.7617 177.689 22.1484C177.459 22.5312 177.141 22.8301 176.734 23.0449C176.332 23.2598 175.879 23.3672 175.375 23.3672C174.867 23.3672 174.408 23.2598 173.998 23.0449C173.592 22.8301 173.271 22.5312 173.037 22.1484C172.807 21.7617 172.691 21.3242 172.691 20.8359C172.691 20.3516 172.807 19.9199 173.037 19.541C173.271 19.1582 173.592 18.8613 173.998 18.6504C174.408 18.4355 174.867 18.3281 175.375 18.3281ZM175.375 18.9727C175.008 18.9727 174.674 19.0547 174.373 19.2188C174.076 19.3789 173.842 19.6016 173.67 19.8867C173.498 20.1719 173.414 20.4883 173.418 20.8359C173.414 21.1875 173.498 21.5078 173.67 21.7969C173.842 22.082 174.076 22.3066 174.373 22.4707C174.674 22.6309 175.008 22.7109 175.375 22.7109C175.742 22.7109 176.074 22.6309 176.371 22.4707C176.668 22.3066 176.9 22.082 177.068 21.7969C177.24 21.5117 177.328 21.1914 177.332 20.8359C177.328 20.4844 177.24 20.168 177.068 19.8867C176.9 19.6016 176.668 19.3789 176.371 19.2188C176.074 19.0547 175.742 18.9727 175.375 18.9727ZM190.964 23.4609H190.226V17.5781H190.964V23.4609ZM190.964 27.7617H184.308V24.0938H190.964V27.7617ZM185.035 27.1523H190.238V24.7031H185.035V27.1523ZM186.031 19.0078C186.027 19.5039 186.144 19.9785 186.382 20.4316C186.624 20.8809 186.951 21.2754 187.361 21.6152C187.771 21.9551 188.226 22.2148 188.726 22.3945L188.351 22.9688C187.742 22.7461 187.199 22.4121 186.722 21.9668C186.245 21.5215 185.894 21.0039 185.667 20.4141C185.449 21.043 185.099 21.5996 184.619 22.084C184.142 22.5684 183.593 22.9336 182.972 23.1797L182.597 22.5938C183.097 22.4062 183.55 22.1309 183.956 21.7676C184.367 21.4043 184.691 20.9844 184.929 20.5078C185.167 20.0273 185.288 19.5273 185.292 19.0078V17.9883H186.031V19.0078Z" fill="#4D5053"/>
<defs>
<linearGradient id="paint0_linear_1758_6432" x1="11" y1="6.5" x2="181" y2="6.49999" gradientUnits="userSpaceOnUse">
<stop stop-color="#ED5151"/>
<stop offset="0.25" stop-color="#FF732D"/>
<stop offset="0.495192" stop-color="#FFCC00"/>
<stop offset="0.75" stop-color="#A1F68E"/>
<stop offset="1" stop-color="#1D68FF"/>
</linearGradient>
</defs>
</svg>
