<svg width="18" height="21" viewBox="0 0 18 21" fill="none" xmlns="http://www.w3.org/2000/svg">
<path fill-rule="evenodd" clip-rule="evenodd" d="M0.771389 7.75395C0.937725 5.7437 1.85361 3.86942 3.33735 2.50294C4.82109 1.13645 6.76427 0.37761 8.78139 0.376953H9.21339C11.2305 0.37761 13.1737 1.13645 14.6574 2.50294C16.1412 3.86942 17.0571 5.7437 17.2234 7.75395C17.408 9.99836 16.7151 12.2269 15.2904 13.971L10.4974 19.833C10.3157 20.0553 10.0869 20.2345 9.82747 20.3575C9.56805 20.4806 9.28451 20.5444 8.99739 20.5444C8.71026 20.5444 8.42673 20.4806 8.1673 20.3575C7.90788 20.2345 7.67905 20.0553 7.49739 19.833L2.70539 13.971C1.28035 12.2271 0.587085 9.99849 0.771389 7.75395ZM8.99739 4.12695C7.73761 4.12695 6.52943 4.6274 5.63863 5.5182C4.74783 6.40899 4.24739 7.61717 4.24739 8.87695C4.24739 10.1367 4.74783 11.3449 5.63863 12.2357C6.52943 13.1265 7.73761 13.627 8.99739 13.627C10.2572 13.627 11.4653 13.1265 12.3561 12.2357C13.2469 11.3449 13.7474 10.1367 13.7474 8.87695C13.7474 7.61717 13.2469 6.40899 12.3561 5.5182C11.4653 4.6274 10.2572 4.12695 8.99739 4.12695Z" fill="#C5C8CB"/>
</svg>
