<svg width="17" height="17" viewBox="0 0 17 17" fill="none" xmlns="http://www.w3.org/2000/svg">
<path d="M1.71596 11.1285L0.765961 15.2285C0.733189 15.3784 0.734313 15.5337 0.769249 15.6831C0.804186 15.8325 0.872053 15.9722 0.967893 16.092C1.06373 16.2118 1.18512 16.3086 1.3232 16.3755C1.46127 16.4424 1.61255 16.4776 1.76596 16.4785C1.83742 16.4862 1.9095 16.4862 1.98096 16.4785L6.10596 15.5285L14.026 7.63852L9.60596 3.22852L1.71596 11.1285Z" fill="#C5C8CB"/>
<path d="M16.5148 3.68879L13.5648 0.738794C13.3709 0.545826 13.1084 0.4375 12.8348 0.4375C12.5613 0.4375 12.2988 0.545826 12.1048 0.738794L10.4648 2.37879L14.8798 6.79379L16.5198 5.15379C16.6158 5.05733 16.6918 4.94289 16.7435 4.81703C16.7952 4.69116 16.8216 4.55633 16.8211 4.42026C16.8207 4.28418 16.7934 4.14954 16.7408 4.02403C16.6883 3.89851 16.6115 3.7846 16.5148 3.68879Z" fill="#C5C8CB"/>
</svg>
