<svg width="17" height="17" viewBox="0 0 17 17" fill="none" xmlns="http://www.w3.org/2000/svg">
<path d="M8.74219 0.460938C13.1606 0.460938 16.7422 4.04254 16.7422 8.46094C16.7422 12.8793 13.1606 16.4609 8.74219 16.4609C4.32379 16.4609 0.742188 12.8793 0.742188 8.46094C0.742188 4.04254 4.32379 0.460938 8.74219 0.460938ZM8.74219 3.66094C8.53001 3.66094 8.32653 3.74522 8.1765 3.89525C8.02647 4.04528 7.94219 4.24876 7.94219 4.46094V8.46094C7.94223 8.67309 8.02655 8.87654 8.17659 9.02654L10.5766 11.4265C10.7275 11.5723 10.9296 11.6529 11.1393 11.6511C11.3491 11.6493 11.5497 11.5651 11.698 11.4168C11.8464 11.2685 11.9305 11.0678 11.9323 10.8581C11.9341 10.6483 11.8535 10.4462 11.7078 10.2953L9.54219 8.12974V4.46094C9.54219 4.24876 9.4579 4.04528 9.30787 3.89525C9.15784 3.74522 8.95436 3.66094 8.74219 3.66094Z" fill="#C5C8CB"/>
</svg>
