<svg width="1300" height="521" viewBox="0 0 1300 521" fill="none" xmlns="http://www.w3.org/2000/svg">
<g clip-path="url(#clip0_2450_583)">
<g filter="url(#filter0_d_2450_583)">
<path d="M631.501 791.997C614.348 715.285 628.077 621.496 680.5 562.906C744.669 491.187 817 450.997 862 427.497C907 403.997 977.365 366.157 1011.5 325.997C1054 275.997 1063.43 211.778 1070.5 154.997C1078.88 87.6833 1099.19 19.8 1158 -14.0034C1228.5 -54.5254 1325.25 -112.94 1377 -108.524C1401.57 -106.428 1420.47 -100.223 1435.63 -92.1482C1420.89 -102.38 1413.5 -109.433 1424.49 -108.525C1439.15 -107.312 1448.91 -94.3634 1455.34 -79.2765C1455.62 -79.0563 1455.9 -78.8357 1456.18 -78.6147C1492.53 -55.4512 1539.7 -27.5986 1518.5 -29.351C1496.35 -31.1819 1483.62 -56.8507 1456.18 -78.6147C1455.93 -78.778 1455.67 -78.941 1455.42 -79.1038C1464.97 -56.5665 1467.13 -29.35 1467.13 -29.35L1498.02 300.267L1281.22 562.906L1171.57 731.317C1171.57 731.317 837.037 992.324 694.158 871.982C641.776 827.862 646.443 858.82 631.501 791.997Z" fill="url(#paint0_linear_2450_583)" fill-opacity="0.4" shape-rendering="crispEdges"/>
</g>
<g filter="url(#filter1_d_2450_583)">
<path d="M603.247 777.372C586.094 700.66 599.823 606.871 652.246 548.281C716.415 476.562 788.746 436.372 833.746 412.872C878.746 389.372 949.111 351.532 983.246 311.372C1025.75 261.372 1035.18 197.153 1042.25 140.372C1050.63 73.0583 1070.94 5.17505 1129.75 -28.6284C1200.25 -69.1504 1297 -127.565 1348.75 -123.149C1373.32 -121.053 1392.21 -114.848 1407.37 -106.773C1392.64 -117.005 1385.24 -124.058 1396.24 -123.15C1410.9 -121.937 1420.66 -108.988 1427.09 -93.9015C1427.37 -93.6813 1427.65 -93.4607 1427.93 -93.2397C1464.27 -70.0762 1511.45 -42.2236 1490.25 -43.976C1468.1 -45.8069 1455.36 -71.4757 1427.93 -93.2397C1427.67 -93.403 1427.42 -93.566 1427.16 -93.7288C1436.72 -71.1915 1438.88 -43.975 1438.88 -43.975L1469.76 285.642L1281.5 560.5L1143.32 716.692C1143.32 716.692 808.783 977.699 665.904 857.357C613.522 813.237 618.189 844.195 603.247 777.372Z" fill="url(#paint1_linear_2450_583)" fill-opacity="0.4" shape-rendering="crispEdges"/>
</g>
<g filter="url(#filter2_d_2450_583)">
<path d="M643.442 -215.447C653.687 -137.512 631.65 -45.3203 574.212 8.36281C503.904 74.0738 428.277 107.655 381.361 127.049C334.445 146.443 260.987 177.859 223.407 214.815C176.618 260.827 161.498 323.949 149.395 379.874C135.046 446.172 108.766 511.974 47.1748 540.399C-26.6574 574.474 -128.235 624.029 -179.382 615.017C-203.67 610.737 -221.935 602.873 -236.314 593.478C-222.548 604.984 -215.812 612.668 -226.682 610.783C-241.18 608.268 -249.744 594.5 -254.803 578.9C-255.064 578.656 -255.323 578.411 -255.581 578.166C-289.716 551.854 -334.219 519.906 -313.26 523.542C-291.363 527.34 -280.965 554.043 -255.581 578.166C-255.341 578.352 -255.101 578.537 -254.861 578.722C-262.37 555.422 -262.093 528.121 -262.093 528.121L-263.466 197.064L-24.1172 -45.1999L100.113 -203.163C100.113 -203.163 456.587 -433.302 588.166 -300.7C636.406 -252.085 634.518 -283.336 643.442 -215.447Z" fill="url(#paint2_linear_2450_583)" fill-opacity="0.4" shape-rendering="crispEdges"/>
</g>
<g filter="url(#filter3_d_2450_583)">
<path d="M679.442 -191.443C689.687 -113.508 667.65 -21.3164 610.212 32.3667C539.904 98.0777 464.277 131.659 417.361 151.053C370.445 170.447 296.987 201.863 259.407 238.819C212.618 284.83 197.498 347.953 185.395 403.878C171.046 470.176 144.766 535.978 83.1748 564.403C9.34258 598.477 -92.2346 648.033 -143.382 639.021C-167.67 634.741 -185.935 626.877 -200.314 617.482C-186.548 628.988 -179.812 636.672 -190.682 634.787C-205.18 632.272 -213.744 618.504 -218.803 602.904C-219.064 602.66 -219.323 602.415 -219.581 602.17C-253.716 575.858 -298.219 543.91 -277.26 547.546C-255.363 551.344 -244.965 578.047 -219.581 602.17C-219.341 602.356 -219.101 602.541 -218.861 602.726C-226.37 579.426 -226.093 552.125 -226.093 552.125L-227.466 221.068L11.8828 -21.196L136.113 -179.159C136.113 -179.159 492.587 -409.299 624.166 -276.696C672.406 -228.081 670.518 -259.332 679.442 -191.443Z" fill="url(#paint3_linear_2450_583)" fill-opacity="0.4" shape-rendering="crispEdges"/>
</g>
<g filter="url(#filter4_d_2450_583)">
<path d="M462.074 109.996C539.074 68.9961 584.509 25.9947 615.074 -18.5039C654.908 -21.3372 724.239 -21.0025 730.639 -21.0025C737.039 -21.0025 850.306 -9.00345 906.139 -3.00391L1193.64 -43.0039L1193.5 -42.6536C1189.31 -32.416 1181.88 -14.2799 1150.64 -21.0025C1119.04 -27.8025 1078.14 52.1641 1066.14 92.9975C1061.14 118.497 1056.72 147.495 1051.64 186.496C1039.14 282.496 1004.81 312.829 989.64 328.996C971.807 346.329 926.04 374.496 861.64 408.496C781.14 450.996 704.64 506.996 681.14 542.496C662.34 570.896 612.973 586.664 587.139 589.997C391.306 593.164 10.3745 575.496 71.5745 543.496C148.075 503.496 156.639 412.996 173.139 347.496C189.639 281.996 224.074 233.496 261.074 205.996C298.074 178.496 447.463 117.776 462.074 109.996Z" fill="url(#paint4_linear_2450_583)" fill-opacity="0.4" shape-rendering="crispEdges"/>
</g>
<g filter="url(#filter5_dddd_2450_583)">
<path d="M140.262 304.395V306.049H122.709V304.395H130.465V302.311H125.008V295.027H127.027V297.111H135.943V295.027H137.984V302.311H132.484V304.395H140.262ZM138.113 307.768V313.826H136.051V309.4H124.664V307.768H138.113ZM127.027 300.678H135.943V298.637H127.027V300.678ZM149.086 297.842C149.064 300.227 150.805 302.461 153.748 303.363L152.781 304.932C150.557 304.244 148.925 302.805 148.076 300.979C147.227 302.998 145.541 304.577 143.221 305.34L142.189 303.729C145.176 302.762 147.023 300.42 147.023 297.863V297.455H142.812V295.779H153.232V297.455H149.086V297.842ZM157.508 294.576V298.916H160.301V300.592H157.508V305.125H155.467V294.576H157.508ZM147.195 306.006V308.176H155.467V306.006H157.508V313.59H145.176V306.006H147.195ZM147.195 311.936H155.467V309.766H147.195V311.936ZM177.181 294.598V300.785H179.974V302.482H177.181V308.992H175.14V294.598H177.181ZM173.55 296.832V298.486H162.078V296.832H166.804V294.576H168.845V296.832H173.55ZM167.814 299.41C170.586 299.41 172.476 300.85 172.476 303.041C172.476 305.232 170.586 306.65 167.814 306.65C165.021 306.65 163.131 305.232 163.131 303.041C163.131 300.85 165.021 299.41 167.814 299.41ZM167.814 300.979C166.181 300.979 165.086 301.773 165.107 303.041C165.086 304.287 166.181 305.061 167.814 305.061C169.447 305.061 170.543 304.287 170.564 303.041C170.543 301.773 169.447 300.979 167.814 300.979ZM177.998 311.764V313.418H164.978V307.854H167.019V311.764H177.998ZM197.622 296.273C197.601 298.83 200.738 301.236 204.519 301.73L203.724 303.406C200.577 302.901 197.805 301.269 196.57 299.002C195.302 301.279 192.541 302.901 189.415 303.406L188.599 301.73C192.38 301.236 195.474 298.852 195.495 296.273V295.221H197.622V296.273ZM205.314 305.297V306.973H197.494V313.826H195.495V306.973H187.761V305.297H205.314ZM223.376 294.576V313.826H221.335V294.576H223.376ZM214.675 300.764C214.675 303.836 216.716 306.973 219.702 308.24L218.585 309.809C216.372 308.842 214.6 306.844 213.708 304.416C212.838 306.983 211.098 309.121 208.853 310.131L207.714 308.562C210.7 307.23 212.677 303.986 212.677 300.764V299.496H208.294V297.863H212.655V294.963H214.675V297.863H218.993V299.496H214.675V300.764ZM242.685 300.205V301.838H229.429V295.264H231.448V300.205H242.685ZM244.704 304.266V305.898H227.087V304.266H244.704ZM242.814 311.699V313.375H229.278V307.725H231.319V311.699H242.814ZM257.862 306.521V308.477H266.692V306.521H268.712V313.59H255.821V306.521H257.862ZM257.862 311.936H266.692V310.045H257.862V311.936ZM268.712 294.598V305.641H266.671V294.598H268.712ZM252.835 302.891C256.466 302.912 261.257 302.912 265.446 302.354L265.575 303.814C263.921 304.094 262.213 304.276 260.526 304.373V307.059H258.507V304.48C256.562 304.566 254.715 304.566 253.092 304.566L252.835 302.891ZM260.376 295.951C260.376 297.82 262.159 299.41 265.016 300.012L264.114 301.537C261.88 301.054 260.204 299.926 259.366 298.4C258.528 300.044 256.852 301.301 254.553 301.859L253.63 300.27C256.53 299.625 258.292 297.928 258.292 295.951V295.049H260.376V295.951ZM289.03 294.576V313.826H287.096V294.576H289.03ZM284.969 295.07V312.881H283.036V303.943H279.276C278.127 306.178 276.3 308.133 273.583 309.723L272.422 308.262C276.504 305.834 278.47 302.601 278.825 298.637H273.325V296.961H280.844C280.834 298.841 280.576 300.635 279.985 302.311H283.036V295.07H284.969ZM295.62 310.518L293.901 316.447H292.075L293.213 310.518H295.62ZM320.422 294.576V304.48H318.402V294.576H320.422ZM320.443 305.404V310.217H309.83V312H321.088V313.633H307.854V308.67H318.424V307.016H307.789V305.404H320.443ZM311.484 296.574C311.463 299.152 313.332 301.494 316.275 302.418L315.266 304.008C313.021 303.277 311.334 301.752 310.475 299.797C309.594 301.902 307.875 303.578 305.576 304.373L304.545 302.762C307.553 301.752 309.4 299.238 309.4 296.574V295.092H311.484V296.574ZM330.9 299.152C330.9 301.58 332.705 303.814 335.67 304.738L334.682 306.35C332.469 305.651 330.793 304.19 329.934 302.311C329.074 304.33 327.409 305.898 325.143 306.65L324.154 305.061C327.098 304.115 328.881 301.752 328.881 299.152V298.701H324.691V297.047H328.881V294.705H330.922V297.047H335.09V298.701H330.9V299.152ZM340.203 294.598V308.928H338.162V302.074H334.424V300.42H338.162V294.598H340.203ZM340.719 311.764V313.418H327.699V307.66H329.74V311.764H340.719ZM361.381 304.631V306.264H343.828V304.631H361.381ZM359.404 311.764V313.418H346.041V307.832H348.103V311.764H359.404ZM352.594 295.221C356.761 295.199 359.469 296.66 359.469 299.066C359.469 301.494 356.761 302.955 352.594 302.977C348.404 302.955 345.719 301.494 345.719 299.066C345.719 296.66 348.404 295.199 352.594 295.221ZM352.594 296.854C349.65 296.854 347.803 297.691 347.824 299.066C347.803 300.484 349.65 301.301 352.594 301.301C355.537 301.301 357.363 300.484 357.363 299.066C357.363 297.691 355.537 296.854 352.594 296.854ZM385.581 294.598V308.691H383.54V301.451H379.867V299.797H383.54V294.598H385.581ZM386.097 311.764V313.418H373.078V307.424H375.119V311.764H386.097ZM376.429 298.486C376.429 300.893 378.169 303.299 381.07 304.266L380.017 305.898C377.858 305.136 376.257 303.589 375.419 301.688C374.581 303.804 372.895 305.512 370.607 306.328L369.554 304.674C372.519 303.664 374.345 301.129 374.345 298.486V297.734H370.177V296.059H380.554V297.734H376.429V298.486ZM406.802 304.309V305.963H399.154V309.701H397.134V305.963H389.185V304.309H406.802ZM404.525 295.479V302.311H391.441V295.479H404.525ZM393.439 297.09V300.699H402.505V297.09H393.439ZM404.847 311.764V313.418H391.376V307.875H393.417V311.764H404.847ZM423.876 294.576V302.246H426.862V303.943H423.876V313.805H421.835V294.576H423.876ZM418.849 296.596C418.827 302.16 416.378 307.123 410.04 310.26L408.901 308.67C413.725 306.264 416.346 302.783 416.765 298.293H409.868V296.596H418.849ZM434.333 295.801C437.298 295.801 439.511 297.67 439.511 300.377C439.511 302.762 437.792 304.491 435.364 304.867V307.918C437.072 307.843 438.78 307.714 440.37 307.51L440.52 309.035C436.46 309.744 431.97 309.766 428.64 309.744L428.317 308.068C429.811 308.058 431.529 308.047 433.323 308.004V304.867C430.831 304.513 429.134 302.772 429.155 300.377C429.134 297.67 431.304 295.801 434.333 295.801ZM434.333 297.52C432.485 297.541 431.132 298.658 431.132 300.377C431.132 302.096 432.485 303.234 434.333 303.213C436.159 303.234 437.491 302.096 437.513 300.377C437.491 298.658 436.159 297.541 434.333 297.52ZM443.571 294.576V302.396H446.536V304.115H443.571V313.826H441.53V294.576H443.571ZM469.383 294.576V299.561H472.176V301.301H469.383V306.178H467.342V294.576H469.383ZM469.383 307.188V313.59H457.094V307.188H469.383ZM459.092 308.799V311.936H467.364V308.799H459.092ZM465.753 296.531V298.164H454.28V296.531H459.006V294.426H461.047V296.531H465.753ZM460.016 299.002C462.788 299.002 464.678 300.377 464.678 302.439C464.678 304.523 462.788 305.877 460.016 305.898C457.202 305.877 455.333 304.523 455.333 302.439C455.333 300.377 457.202 299.002 460.016 299.002ZM460.016 300.57C458.383 300.549 457.288 301.279 457.309 302.439C457.288 303.643 458.383 304.352 460.016 304.352C461.649 304.352 462.745 303.643 462.766 302.439C462.745 301.279 461.649 300.549 460.016 300.57ZM478.702 296.854C478.68 301.172 478.143 305.619 475.457 309.4L473.868 308.498C476.113 305.49 476.79 302.16 476.94 298.529H474.319V296.854H478.702ZM482.977 296.854C482.977 298.476 482.945 300.248 482.741 302.031H484.997V295.07H486.93V312.881H484.997V303.686H482.504C482.064 306.081 481.258 308.455 479.776 310.561L478.186 309.637C480.678 306.296 481.129 302.246 481.215 298.529H479.282V296.854H482.977ZM490.582 294.576V313.826H488.627V294.576H490.582ZM497.151 296.445L496.957 307.51H494.83L494.637 296.445H497.151ZM495.905 312.15C495.067 312.15 494.358 311.463 494.379 310.625C494.358 309.787 495.067 309.1 495.905 309.1C496.721 309.1 497.43 309.787 497.43 310.625C497.43 311.463 496.721 312.15 495.905 312.15ZM123.59 332.445H126.469L131.389 344.498H131.582L136.502 332.445H139.381V348H137.125V336.764H136.975L132.42 347.979H130.551L125.975 336.742H125.846V348H123.59V332.445ZM144.445 352.383C143.972 352.383 143.521 352.361 143.221 352.318V350.406C143.478 350.428 143.93 350.449 144.252 350.449C144.961 350.449 145.562 350.385 146.099 348.924L146.379 348.15L142.103 336.334H144.553L147.496 345.379H147.625L150.568 336.334H153.039L148.226 349.547C147.56 351.395 146.357 352.383 144.445 352.383ZM155.761 332.445H158.64L163.56 344.498H163.754L168.674 332.445H171.552V348H169.297V336.764H169.146L164.591 347.979H162.722L158.146 336.742H158.017V348H155.761V332.445ZM180.226 348.236C176.789 348.236 174.683 345.873 174.683 342.242C174.683 338.654 176.832 336.184 180.076 336.184C182.74 336.184 185.253 337.838 185.253 342.049V342.865H176.96C177.025 345.078 178.325 346.346 180.248 346.346C181.558 346.346 182.396 345.787 182.783 345.078H185.103C184.587 346.969 182.783 348.236 180.226 348.236ZM176.982 341.146H182.998C182.998 339.363 181.859 338.074 180.097 338.074C178.26 338.074 177.068 339.492 176.982 341.146ZM192.552 348.236C189.738 348.236 187.675 345.959 187.675 342.199C187.675 338.396 189.759 336.184 192.574 336.184C194.744 336.184 195.538 337.494 195.947 338.225H196.054V332.445H198.353V348H196.119V346.174H195.947C195.517 346.947 194.679 348.236 192.552 348.236ZM193.068 346.281C195.023 346.281 196.119 344.605 196.119 342.156C196.119 339.729 195.044 338.139 193.068 338.139C191.027 338.139 190.017 339.857 190.017 342.156C190.017 344.498 191.07 346.281 193.068 346.281ZM201.999 348V336.334H204.298V348H201.999ZM203.159 334.529C202.364 334.529 201.698 333.928 201.698 333.176C201.698 332.424 202.364 331.822 203.159 331.822C203.933 331.822 204.599 332.424 204.599 333.176C204.599 333.928 203.933 334.529 203.159 334.529ZM222.64 336.205V337.838H209.384V331.264H211.403V336.205H222.64ZM224.659 340.266V341.898H207.042V340.266H224.659ZM222.769 347.699V349.375H209.233V343.725H211.274V347.699H222.769ZM248.817 330.598V344.777H246.776V338.096H242.78V336.398H246.776V330.598H248.817ZM242.909 332.037C242.887 337.064 239.428 340.846 233.907 342.629L233.048 340.996C237.334 339.61 240.245 336.989 240.675 333.734H234.036V332.037H242.909ZM249.311 347.764V349.418H236.421V343.316H238.483V347.764H249.311ZM267.567 330.576V335.432H270.36V337.086H267.567V342.006H265.526V330.576H267.567ZM262.282 331.951C262.282 336.936 258.909 340.523 253.258 342.156L252.42 340.502C256.921 339.224 259.704 336.721 260.069 333.605H253.28V331.951H262.282ZM261.422 342.221C265.311 342.221 267.782 343.66 267.782 346.002C267.782 348.365 265.311 349.805 261.422 349.805C257.555 349.805 255.02 348.365 255.042 346.002C255.02 343.66 257.555 342.221 261.422 342.221ZM261.422 343.832C258.737 343.832 257.04 344.648 257.061 346.002C257.04 347.355 258.737 348.193 261.422 348.193C264.086 348.193 265.784 347.355 265.784 346.002C265.784 344.648 264.086 343.832 261.422 343.832ZM282.063 331.779C282.063 336.678 278.711 340.158 273.125 341.727L272.288 340.137C276.724 338.891 279.485 336.484 279.893 333.455H273.297V331.779H282.063ZM288.164 330.598V341.49H286.123V337.107H282.149V335.41H286.123V330.598H288.164ZM288.164 342.285V349.568H275.575V342.285H288.164ZM277.573 343.918V347.936H286.145V343.918H277.573ZM298.922 334.594C298.922 337.086 300.77 339.428 303.735 340.373L302.682 341.963C300.469 341.232 298.793 339.718 297.934 337.795C297.064 339.89 295.356 341.544 293.057 342.35L292.004 340.738C294.99 339.729 296.838 337.236 296.86 334.594V333.756H292.541V332.102H303.155V333.756H298.922V334.594ZM307.752 330.598V344.648H305.711V330.598H307.752ZM308.332 347.764V349.418H295.162V343.316H297.225V347.764H308.332ZM333.543 330.576V340.373H331.502V338.525H326.625V336.936H331.502V334.852H326.861C325.669 337.838 322.768 339.804 318.504 340.803L317.795 339.127C322.414 338.106 324.917 335.969 325.25 333.133H318.805V331.457H327.484C327.484 332.08 327.431 332.671 327.334 333.24H331.502V330.576H333.543ZM333.543 341.189V346.066H323.016V348H334.123V349.633H320.996V344.52H331.502V342.801H320.953V341.189H333.543ZM347.888 332.639V333.82C347.888 335.432 347.888 337.924 347.33 341.361L345.31 341.211C345.794 338.128 345.847 335.904 345.869 334.293H338.049V332.639H347.888ZM342.947 338.139V343.896C344.999 343.832 347.083 343.692 349.006 343.445L349.113 344.971C345.095 345.615 340.627 345.701 337.211 345.68L336.974 344.025C338.178 344.015 339.52 344.004 340.928 343.961V338.139H342.947ZM352.164 330.576V338.525H355.107V340.266H352.164V349.826H350.101V330.576H352.164ZM378.878 330.576V349.826H376.816V330.576H378.878ZM373.142 332.639C373.142 338.268 370.736 343.166 364.14 346.324L363.066 344.67C368.19 342.231 370.682 338.762 371.08 334.271H363.99V332.639H373.142ZM397.671 330.598V336.27H400.464V337.988H397.671V344.734H395.63V330.598H397.671ZM398.488 347.764V349.418H385.468V343.338H387.509V347.764H398.488ZM385.296 331.973V335.045H390.345V331.973H392.365V341.555H383.298V331.973H385.296ZM385.296 339.922H390.345V336.656H385.296V339.922ZM408.493 331.951C411.544 331.93 413.714 333.82 413.735 336.527C413.714 339.234 411.544 341.125 408.493 341.125C405.464 341.125 403.23 339.234 403.251 336.527C403.23 333.82 405.464 331.93 408.493 331.951ZM408.493 333.713C406.624 333.713 405.249 334.83 405.271 336.527C405.249 338.225 406.624 339.342 408.493 339.342C410.362 339.342 411.737 338.225 411.737 336.527C411.737 334.83 410.362 333.713 408.493 333.713ZM418.14 330.576V349.869H416.099V330.576H418.14ZM402.327 344.025C405.829 344.025 410.685 343.982 414.896 343.381L415.046 344.863C410.685 345.701 406.023 345.723 402.585 345.723L402.327 344.025ZM444.403 330.576V349.826H442.448V339.836H440.063V348.902H438.151V331.092H440.063V338.182H442.448V330.576H444.403ZM436.239 333.025C436.218 338.096 434.542 342.629 429.042 345.744L427.86 344.326C432.136 341.909 433.94 338.633 434.263 334.701H428.677V333.025H436.239ZM463.561 330.598V344.584H461.52V330.598H463.561ZM464.141 347.764V349.418H450.971V343.166H453.034V347.764H464.141ZM453.12 331.887C456.02 331.887 458.233 333.863 458.233 336.656C458.233 339.492 456.02 341.447 453.12 341.447C450.219 341.447 447.985 339.492 447.985 336.656C447.985 333.863 450.219 331.887 453.12 331.887ZM453.12 333.67C451.315 333.67 449.983 334.895 449.983 336.656C449.983 338.461 451.315 339.664 453.12 339.664C454.881 339.664 456.235 338.461 456.235 336.656C456.235 334.895 454.881 333.67 453.12 333.67ZM483.057 331.865V340.158H474.055V331.865H483.057ZM476.053 333.498V338.525H481.059V333.498H476.053ZM488.428 330.576V335.045H491.221V336.742H488.428V341.49H486.387V330.576H488.428ZM488.729 342.564V344.197H483.465C483.744 346.023 486.247 347.71 489.524 348.193L488.772 349.762C485.85 349.311 483.444 347.968 482.326 346.131C481.231 347.979 478.835 349.311 475.924 349.74L475.172 348.172C478.47 347.71 480.919 346.077 481.252 344.197H475.946V342.564H488.729ZM510.529 340.008V341.641H502.752V343.531H508.381V349.59H495.082V343.531H500.733V341.641H492.977V340.008H510.529ZM502.752 330.512V332.338H508.768V333.949H502.881C503.085 335.797 505.738 337.161 509.584 337.473L508.983 338.998C505.631 338.697 502.935 337.634 501.742 335.861C500.539 337.634 497.843 338.697 494.524 338.998L493.901 337.473C497.757 337.161 500.389 335.797 500.625 333.949H494.738V332.338H500.733V330.512H502.752ZM497.102 345.164V347.936H506.404V345.164H497.102ZM523.5 332.596V334.229H512.672V332.596H517.184V330.404H519.203V332.596H523.5ZM518.172 335.109C520.771 335.109 522.598 336.549 522.619 338.697C522.598 340.846 520.771 342.264 518.172 342.264C515.551 342.264 513.746 340.846 513.746 338.697C513.746 336.549 515.551 335.109 518.172 335.109ZM518.172 336.656C516.646 336.656 515.658 337.451 515.658 338.697C515.658 339.943 516.646 340.717 518.172 340.717C519.676 340.717 520.707 339.943 520.729 338.697C520.707 337.451 519.676 336.656 518.172 336.656ZM528.699 330.576V342.973H526.658V340.502H523.543V338.848H526.658V336.721H523.564V335.066H526.658V330.576H528.699ZM522.297 343.166C526.336 343.166 528.807 344.369 528.807 346.475C528.807 348.559 526.336 349.805 522.297 349.783C518.236 349.805 515.766 348.559 515.766 346.475C515.766 344.369 518.236 343.166 522.297 343.166ZM522.297 344.734C519.525 344.734 517.893 345.336 517.893 346.475C517.893 347.592 519.525 348.236 522.297 348.215C525.004 348.236 526.637 347.592 526.637 346.475C526.637 345.336 525.004 344.734 522.297 344.734ZM554.404 330.598V344.777H552.363V338.096H548.367V336.398H552.363V330.598H554.404ZM548.496 332.037C548.474 337.064 545.015 340.846 539.494 342.629L538.634 340.996C542.921 339.61 545.832 336.989 546.261 333.734H539.623V332.037H548.496ZM554.898 347.764V349.418H542.008V343.316H544.07V347.764H554.898ZM573.154 330.576V335.432H575.947V337.086H573.154V342.006H571.113V330.576H573.154ZM567.869 331.951C567.869 336.936 564.496 340.523 558.845 342.156L558.007 340.502C562.508 339.224 565.291 336.721 565.656 333.605H558.867V331.951H567.869ZM567.009 342.221C570.898 342.221 573.369 343.66 573.369 346.002C573.369 348.365 570.898 349.805 567.009 349.805C563.142 349.805 560.607 348.365 560.628 346.002C560.607 343.66 563.142 342.221 567.009 342.221ZM567.009 343.832C564.324 343.832 562.626 344.648 562.648 346.002C562.626 347.355 564.324 348.193 567.009 348.193C569.673 348.193 571.371 347.355 571.371 346.002C571.371 344.648 569.673 343.832 567.009 343.832ZM588.423 332.037V333.111C588.402 334.4 588.402 336.312 587.929 338.805L585.91 338.611C586.328 336.474 586.393 334.927 586.425 333.713H578.712V332.037H588.423ZM583.503 336.355V340.33C585.566 340.266 587.693 340.115 589.626 339.836L589.755 341.318C585.738 342.027 581.14 342.092 577.745 342.113L577.552 340.459C578.734 340.448 580.077 340.438 581.484 340.395V336.355H583.503ZM592.935 330.576V336.699H595.578V338.418H592.935V345.035H590.851V330.576H592.935ZM593.558 347.764V349.418H580.474V343.725H582.515V347.764H593.558ZM613.361 330.576V349.869H611.32V330.576H613.361ZM607.474 332.316V339.342H600.556V343.553C603.671 343.542 606.4 343.402 609.622 342.865L609.816 344.541C606.4 345.121 603.499 345.25 600.105 345.25H598.472V337.709H605.39V333.971H598.45V332.316H607.474ZM638.979 331.156V332.703H636.186V336.033H638.893V337.602H624.778V336.033H627.507V332.703H624.692V331.156H638.979ZM640.634 339.02V340.631H623.081V339.02H640.634ZM638.421 342.135V346.539H627.206V348.086H638.958V349.633H625.208V345.1H636.401V343.66H625.186V342.135H638.421ZM629.526 336.033H634.145V332.703H629.526V336.033ZM659.169 330.598V343.66H657.235V337.172H654.872V342.006H652.96V330.941H654.872V335.496H657.235V330.598H659.169ZM650.876 332.037V337.559H645.591V340.115C647.975 340.094 649.791 339.986 651.907 339.557L652.122 341.168C649.716 341.662 647.739 341.748 644.882 341.748H643.614V336.055H648.921V333.691H643.571V332.037H650.876ZM653.669 343.209C653.669 345.572 656.526 347.635 660.157 348.15L659.341 349.74C656.386 349.278 653.841 347.85 652.659 345.809C651.456 347.85 648.921 349.278 645.977 349.74L645.161 348.15C648.77 347.635 651.628 345.572 651.628 343.209V342.758H653.669V343.209ZM679.981 340.158V341.791H662.428V340.158H670.163V338.16H664.126V336.506H666.854V332.832H664.04V331.178H678.327V332.832H675.534V336.506H678.241V338.16H672.204V340.158H679.981ZM677.833 343.467V349.59H664.534V343.467H677.833ZM666.553 345.057V347.936H675.856V345.057H666.553ZM668.874 336.506H673.493V332.832H668.874V336.506ZM698.065 330.576V340.91H696.024V330.576H698.065ZM687.473 341.834V344.004H696.045V341.834H698.065V349.59H685.475V341.834H687.473ZM687.473 347.914H696.045V345.615H687.473V347.914ZM687.623 331.457C690.567 331.457 692.737 333.283 692.737 335.926C692.737 338.568 690.567 340.395 687.623 340.373C684.68 340.395 682.489 338.568 682.489 335.926C682.489 333.283 684.68 331.457 687.623 331.457ZM687.623 333.176C685.797 333.154 684.487 334.293 684.487 335.926C684.487 337.58 685.797 338.697 687.623 338.697C689.428 338.697 690.739 337.58 690.739 335.926C690.739 334.293 689.428 333.154 687.623 333.176ZM717.76 330.576V349.826H715.719V330.576H717.76ZM704.977 332.445V343.166C707.781 343.145 710.735 342.919 713.828 342.285L714.108 344.004C710.692 344.691 707.598 344.928 704.569 344.928H702.957V332.445H704.977ZM736.445 330.576V338.031H739.539V339.707H736.445V349.869H734.404V330.576H736.445ZM731.268 332.424V334.078H724.307V343.381C727.54 343.37 729.968 343.23 732.707 342.736L732.965 344.455C729.957 344.992 727.4 345.1 723.813 345.078H722.266V332.424H731.268ZM743.314 348.15C742.477 348.15 741.768 347.463 741.789 346.625C741.768 345.787 742.477 345.1 743.314 345.1C744.131 345.1 744.84 345.787 744.84 346.625C744.84 347.463 744.131 348.15 743.314 348.15Z" fill="#121218"/>
</g>
<g filter="url(#filter6_dddd_2450_583)">
<path d="M29.3373 262.178C32.5451 256.379 39.8476 254.278 45.6469 257.486L72.0698 272.101C77.8688 275.309 79.9697 282.61 76.7621 288.41L62.895 313.481L87.9614 327.345C93.7608 330.553 95.8614 337.855 92.6537 343.655L78.0395 370.078C74.8318 375.877 67.5302 377.978 61.7309 374.77L36.6635 360.905L22.8012 385.969C19.5935 391.769 12.292 393.869 6.49261 390.662L-19.9302 376.047C-25.7295 372.84 -27.831 365.538 -24.6236 359.739L-10.7613 334.674L-35.8297 320.809C-41.6288 317.601 -43.7297 310.3 -40.522 304.5L-25.9078 278.078C-22.7001 272.278 -15.3976 270.178 -9.59821 273.385L15.4692 287.249L29.3373 262.178Z" fill="#DBE6FF" fill-opacity="0.2"/>
</g>
<g filter="url(#filter7_dddd_2450_583)">
<path d="M101.827 -30.0075C99.9292 -36.3573 103.537 -43.0438 109.887 -44.9421L146.53 -55.8962C152.879 -57.7943 159.565 -54.1854 161.463 -47.8359L171.398 -14.6018L204.631 -24.5366C210.981 -26.4348 217.668 -22.8261 219.566 -16.4763L230.52 20.1663C232.419 26.5159 228.81 33.2018 222.46 35.1002L189.227 45.0357L199.161 78.2622C201.059 84.612 197.45 91.2986 191.1 93.1968L154.457 104.151C148.108 106.049 141.422 102.44 139.523 96.0906L129.59 62.8634L96.362 72.7975C90.0123 74.6957 83.3257 71.0863 81.4275 64.7365L70.4734 28.0939C68.5754 21.7443 72.1841 15.0582 78.5337 13.16L111.762 3.22593L101.827 -30.0075Z" fill="#DBE6FF" fill-opacity="0.2"/>
</g>
<g filter="url(#filter8_dddd_2450_583)">
<path d="M-11.7438 -60.4191C-9.71786 -66.7292 -2.96045 -70.2028 3.34971 -68.1768L65.6967 -48.1595C72.0069 -46.1335 75.4797 -39.3749 73.4537 -33.0648L56.6038 19.4134L109.08 36.2618C115.39 38.2877 118.863 45.0453 116.837 51.3553L96.8203 113.703C94.7942 120.013 88.0357 123.486 81.7256 121.46L29.2497 104.612L12.4055 157.079C10.3796 163.389 3.62204 166.862 -2.68802 164.837L-65.036 144.82C-71.3459 142.794 -74.8185 136.036 -72.7928 129.726L-55.9479 77.2576L-108.419 60.4113C-114.729 58.3851 -118.202 51.6276 -116.176 45.3176L-96.1588 -17.0294C-94.1328 -23.3395 -87.3752 -26.8121 -81.0651 -24.7862L-28.5936 -7.93994L-11.7438 -60.4191Z" fill="#DBE6FF" fill-opacity="0.2"/>
</g>
<g filter="url(#filter9_dddd_2450_583)">
<path d="M1083.01 420.479C1088.99 423.322 1091.54 430.48 1088.7 436.466L1079.5 455.84C1076.65 461.827 1069.5 464.375 1063.51 461.531L1043.56 452.055L1034.08 472.008C1031.24 477.995 1024.08 480.542 1018.09 477.699L998.718 468.498C992.732 465.655 990.184 458.497 993.027 452.51L1002.5 432.557L982.555 423.083C976.569 420.24 974.021 413.081 976.864 407.095L986.066 387.721C988.909 381.735 996.067 379.187 1002.05 382.03L1022 391.504L1031.48 371.556C1034.32 365.57 1041.48 363.021 1047.46 365.864L1066.84 375.066C1072.82 377.909 1075.37 385.068 1072.53 391.054L1063.05 411.002L1083.01 420.479Z" fill="#DBE6FF" fill-opacity="0.2"/>
</g>
<g filter="url(#filter10_dddd_2450_583)">
<path d="M1243.66 302.295C1250.03 300.462 1256.67 304.14 1258.51 310.509L1259.95 315.531C1261.78 321.9 1258.11 328.549 1251.74 330.381L1242.2 333.124L1244.95 342.658C1246.78 349.027 1243.1 355.676 1236.73 357.509L1231.71 358.954C1225.34 360.787 1218.69 357.109 1216.86 350.74L1214.12 341.205L1204.59 343.948C1198.22 345.781 1191.57 342.104 1189.74 335.735L1188.29 330.713C1186.46 324.344 1190.14 317.695 1196.51 315.862L1206.03 313.119L1203.29 303.589C1201.46 297.22 1205.14 290.571 1211.51 288.739L1216.53 287.293C1222.9 285.461 1229.55 289.139 1231.38 295.507L1234.12 305.038L1243.66 302.295Z" fill="#1D68FF" fill-opacity="0.03"/>
</g>
<g filter="url(#filter11_dddd_2450_583)">
<path d="M511.565 152.145C512.32 150.069 514.614 148.998 516.69 149.753L526.149 153.193C528.225 153.948 529.296 156.242 528.542 158.318L525.277 167.296L534.248 170.558C536.324 171.313 537.395 173.607 536.64 175.683L533.2 185.143C532.445 187.219 530.15 188.29 528.074 187.535L519.103 184.273L515.842 193.244C515.087 195.32 512.792 196.391 510.716 195.636L501.257 192.196C499.18 191.441 498.109 189.146 498.864 187.07L502.125 178.1L493.149 174.835C491.073 174.081 490.001 171.785 490.756 169.709L494.196 160.25C494.951 158.174 497.246 157.103 499.322 157.858L508.3 161.122L511.565 152.145Z" fill="white" fill-opacity="0.2"/>
</g>
<g filter="url(#filter12_d_2450_583)">
<path d="M-440.435 88.5C-370.935 52 -335.935 4.66803 -299.435 -33.9986C-259.601 -36.832 -196.835 -33.9986 -190.435 -33.9986C-184.035 -33.9986 -70.7679 -21.9995 -14.9346 -16L272.565 -56L272.422 -55.6496C268.231 -45.4121 260.807 -27.276 229.566 -33.9986C197.966 -40.7986 157.065 39.168 145.065 80.0014C140.065 105.501 135.645 134.499 130.566 173.5C118.066 269.5 83.7331 299.833 68.5664 316C50.7331 333.333 4.96643 361.5 -59.4336 395.5C-139.934 438 -216.434 494 -239.934 529.5C-258.734 557.9 -308.101 573.668 -333.934 577.001C-529.768 580.168 -911.636 563.501 -850.436 531.501C-773.936 491.501 -764.435 400 -747.935 334.5C-731.435 269 -703.434 225.5 -666.434 198C-629.434 170.5 -455.089 96.1964 -440.435 88.5Z" fill="url(#paint5_linear_2450_583)" fill-opacity="0.4" shape-rendering="crispEdges"/>
</g>
<g filter="url(#filter13_dddd_2450_583)">
<circle cx="747" cy="393" r="10" fill="white" fill-opacity="0.2"/>
</g>
<g filter="url(#filter14_dddd_2450_583)">
<circle cx="45.5" cy="80" r="6.5" fill="white" fill-opacity="0.2"/>
</g>
<circle cx="208.5" cy="409.5" r="6.5" fill="white" fill-opacity="0.2"/>
<circle cx="422" cy="260" r="13" fill="white" fill-opacity="0.2"/>
<g filter="url(#filter15_dddd_2450_583)">
<circle cx="571" cy="452" r="23" fill="white" fill-opacity="0.2"/>
</g>
<g filter="url(#filter16_dddd_2450_583)">
<circle cx="93.5" cy="511.5" r="36.5" fill="white" fill-opacity="0.2"/>
</g>
<g filter="url(#filter17_dddd_2450_583)">
<path d="M152 199.325C152 197.668 153.343 196.325 155 196.325H161.849C163.047 196.325 164.13 197.037 164.604 198.136L179.709 233.141H180.374L195.478 198.136C195.953 197.037 197.035 196.325 198.233 196.325H205.082C206.739 196.325 208.082 197.668 208.082 199.325V244C208.082 245.657 206.739 247 205.082 247H201.846C200.189 247 198.846 245.657 198.846 244V212.143H198.329L184.256 245.04C183.783 246.144 182.698 246.86 181.497 246.86H178.588C177.386 246.86 176.299 246.142 175.828 245.036L161.753 212.003H161.31V244C161.31 245.657 159.967 247 158.31 247H155C153.343 247 152 245.657 152 244V199.325Z" fill="#1D68FF"/>
<path d="M217.102 200.897C215.872 198.898 217.31 196.325 219.657 196.325H223.433C224.497 196.325 225.482 196.888 226.02 197.806L238.303 218.723H238.82L251.103 197.806C251.642 196.888 252.626 196.325 253.69 196.325H257.477C259.822 196.325 261.26 198.893 260.035 200.892L243.402 228.032V244C243.402 245.657 242.058 247 240.402 247H236.796C235.139 247 233.796 245.657 233.796 244V228.032L217.102 200.897Z" fill="#1D68FF"/>
<path d="M269.041 199.325C269.041 197.668 270.384 196.325 272.041 196.325H278.891C280.088 196.325 281.171 197.037 281.645 198.136L296.75 233.141H297.415L312.52 198.136C312.994 197.037 314.077 196.325 315.274 196.325H322.124C323.781 196.325 325.124 197.668 325.124 199.325V244C325.124 245.657 323.781 247 322.124 247H318.887C317.231 247 315.887 245.657 315.887 244V212.143H315.37L301.297 245.04C300.825 246.144 299.74 246.86 298.539 246.86H295.629C294.427 246.86 293.341 246.142 292.869 245.036L278.795 212.003H278.351V244C278.351 245.657 277.008 247 275.351 247H272.041C270.384 247 269.041 245.657 269.041 244V199.325Z" fill="#1D68FF"/>
<path d="M338.025 247C336.368 247 335.025 245.657 335.025 244V199.325C335.025 197.668 336.368 196.325 338.025 196.325H366.827C368.484 196.325 369.827 197.668 369.827 199.325V200.954C369.827 202.611 368.484 203.954 366.827 203.954H344.631V217.813H364.98C366.637 217.813 367.98 219.156 367.98 220.813V222.442C367.98 224.099 366.637 225.442 364.98 225.442H344.631V239.301H366.975C368.632 239.301 369.975 240.644 369.975 242.301V244C369.975 245.657 368.632 247 366.975 247H338.025Z" fill="#1D68FF"/>
<path d="M397.24 247H382.063C380.406 247 379.063 245.657 379.063 244V199.325C379.063 197.668 380.406 196.325 382.063 196.325H397.536C413.496 196.325 423.175 205.844 423.175 221.592C423.175 237.411 413.496 247 397.24 247ZM388.669 239.091H396.723C407.88 239.091 413.57 233.281 413.57 221.592C413.57 209.973 407.88 204.234 397.018 204.234H388.669V239.091Z" fill="#1D68FF"/>
<path d="M434.229 247C432.572 247 431.229 245.657 431.229 244V214.119C431.229 212.462 432.572 211.119 434.229 211.119H437.687C439.344 211.119 440.687 212.462 440.687 214.119V244C440.687 245.657 439.344 247 437.687 247H434.229ZM436.032 205.729C433.077 205.729 430.564 203.559 430.564 200.83C430.564 198.17 433.077 196 436.032 196C439.062 196 441.5 198.17 441.5 200.83C441.5 203.559 439.062 205.729 436.032 205.729Z" fill="#1D68FF"/>
</g>
<g filter="url(#filter18_dddd_2450_583)">
<circle cx="126" cy="250" r="4" fill="white"/>
</g>
<g filter="url(#filter19_dddd_2450_583)">
<circle cx="468" cy="250" r="4" fill="white"/>
</g>
<g filter="url(#filter20_dddd_2450_583)">
<circle cx="468" cy="193" r="4" fill="white"/>
</g>
<g filter="url(#filter21_dddd_2450_583)">
<circle cx="126" cy="193" r="4" fill="white"/>
</g>
<g filter="url(#filter22_dddd_2450_583)">
<path d="M771.259 728.806C766.541 650.342 795.031 559.936 856.116 510.442C930.887 449.858 1008.7 421.699 1056.86 405.665C1105.03 389.631 1180.52 363.479 1220.62 329.268C1270.54 286.674 1290.08 224.776 1306.1 169.846C1325.09 104.726 1355.95 40.9432 1419.39 16.9368C1495.45 -11.8409 1600.27 -54.1024 1650.65 -41.5021C1674.58 -35.5187 1692.24 -26.3847 1705.92 -15.9986C1693 -28.4469 1686.83 -36.5876 1697.54 -33.9395C1711.82 -30.4076 1719.39 -16.0698 1723.34 -0.151495C1723.58 0.110699 1723.82 0.373071 1724.06 0.6356C1756.25 29.2914 1798.39 64.3012 1777.74 59.1951C1756.17 53.8603 1747.68 26.4907 1724.06 0.6356C1723.83 0.433629 1723.61 0.231982 1723.38 0.030661C1729.23 23.8023 1727.02 51.0151 1727.02 51.0151L1705.02 381.344L1449.17 606.107L1314.1 754.907C1314.1 754.907 942.27 959.308 820.379 817.748C775.691 765.85 775.368 797.156 771.259 728.806Z" fill="url(#paint6_linear_2450_583)" fill-opacity="0.4"/>
</g>
</g>
<defs>
<filter id="filter0_d_2450_583" x="593.516" y="-139.762" width="961.262" height="1074.45" filterUnits="userSpaceOnUse" color-interpolation-filters="sRGB">
<feFlood flood-opacity="0" result="BackgroundImageFix"/>
<feColorMatrix in="SourceAlpha" type="matrix" values="0 0 0 0 0 0 0 0 0 0 0 0 0 0 0 0 0 0 127 0" result="hardAlpha"/>
<feMorphology radius="1" operator="dilate" in="SourceAlpha" result="effect1_dropShadow_2450_583"/>
<feOffset/>
<feGaussianBlur stdDeviation="15"/>
<feComposite in2="hardAlpha" operator="out"/>
<feColorMatrix type="matrix" values="0 0 0 0 0.113782 0 0 0 0 0.409188 0 0 0 0 1 0 0 0 0.4 0"/>
<feBlend mode="normal" in2="BackgroundImageFix" result="effect1_dropShadow_2450_583"/>
<feBlend mode="normal" in="SourceGraphic" in2="effect1_dropShadow_2450_583" result="shape"/>
</filter>
<filter id="filter1_d_2450_583" x="565.262" y="-154.387" width="961.262" height="1074.45" filterUnits="userSpaceOnUse" color-interpolation-filters="sRGB">
<feFlood flood-opacity="0" result="BackgroundImageFix"/>
<feColorMatrix in="SourceAlpha" type="matrix" values="0 0 0 0 0 0 0 0 0 0 0 0 0 0 0 0 0 0 127 0" result="hardAlpha"/>
<feMorphology radius="1" operator="dilate" in="SourceAlpha" result="effect1_dropShadow_2450_583"/>
<feOffset/>
<feGaussianBlur stdDeviation="15"/>
<feComposite in2="hardAlpha" operator="out"/>
<feColorMatrix type="matrix" values="0 0 0 0 0.113782 0 0 0 0 0.409188 0 0 0 0 1 0 0 0 0.4 0"/>
<feBlend mode="normal" in2="BackgroundImageFix" result="effect1_dropShadow_2450_583"/>
<feBlend mode="normal" in="SourceGraphic" in2="effect1_dropShadow_2450_583" result="shape"/>
</filter>
<filter id="filter2_d_2450_583" x="-349.656" y="-372.871" width="1026.52" height="1019.96" filterUnits="userSpaceOnUse" color-interpolation-filters="sRGB">
<feFlood flood-opacity="0" result="BackgroundImageFix"/>
<feColorMatrix in="SourceAlpha" type="matrix" values="0 0 0 0 0 0 0 0 0 0 0 0 0 0 0 0 0 0 127 0" result="hardAlpha"/>
<feMorphology radius="1" operator="dilate" in="SourceAlpha" result="effect1_dropShadow_2450_583"/>
<feOffset/>
<feGaussianBlur stdDeviation="15"/>
<feComposite in2="hardAlpha" operator="out"/>
<feColorMatrix type="matrix" values="0 0 0 0 0.113782 0 0 0 0 0.409188 0 0 0 0 1 0 0 0 0.4 0"/>
<feBlend mode="normal" in2="BackgroundImageFix" result="effect1_dropShadow_2450_583"/>
<feBlend mode="normal" in="SourceGraphic" in2="effect1_dropShadow_2450_583" result="shape"/>
</filter>
<filter id="filter3_d_2450_583" x="-313.656" y="-348.867" width="1026.52" height="1019.96" filterUnits="userSpaceOnUse" color-interpolation-filters="sRGB">
<feFlood flood-opacity="0" result="BackgroundImageFix"/>
<feColorMatrix in="SourceAlpha" type="matrix" values="0 0 0 0 0 0 0 0 0 0 0 0 0 0 0 0 0 0 127 0" result="hardAlpha"/>
<feMorphology radius="1" operator="dilate" in="SourceAlpha" result="effect1_dropShadow_2450_583"/>
<feOffset/>
<feGaussianBlur stdDeviation="15"/>
<feComposite in2="hardAlpha" operator="out"/>
<feColorMatrix type="matrix" values="0 0 0 0 0.113782 0 0 0 0 0.409188 0 0 0 0 1 0 0 0 0.4 0"/>
<feBlend mode="normal" in2="BackgroundImageFix" result="effect1_dropShadow_2450_583"/>
<feBlend mode="normal" in="SourceGraphic" in2="effect1_dropShadow_2450_583" result="shape"/>
</filter>
<filter id="filter4_d_2450_583" x="33.9961" y="-74.0039" width="1190.64" height="695.363" filterUnits="userSpaceOnUse" color-interpolation-filters="sRGB">
<feFlood flood-opacity="0" result="BackgroundImageFix"/>
<feColorMatrix in="SourceAlpha" type="matrix" values="0 0 0 0 0 0 0 0 0 0 0 0 0 0 0 0 0 0 127 0" result="hardAlpha"/>
<feMorphology radius="1" operator="dilate" in="SourceAlpha" result="effect1_dropShadow_2450_583"/>
<feOffset/>
<feGaussianBlur stdDeviation="15"/>
<feComposite in2="hardAlpha" operator="out"/>
<feColorMatrix type="matrix" values="0 0 0 0 0.113782 0 0 0 0 0.409188 0 0 0 0 1 0 0 0 0.4 0"/>
<feBlend mode="normal" in2="BackgroundImageFix" result="effect1_dropShadow_2450_583"/>
<feBlend mode="normal" in="SourceGraphic" in2="effect1_dropShadow_2450_583" result="shape"/>
</filter>
<filter id="filter5_dddd_2450_583" x="117.711" y="291.426" width="656.129" height="106.957" filterUnits="userSpaceOnUse" color-interpolation-filters="sRGB">
<feFlood flood-opacity="0" result="BackgroundImageFix"/>
<feColorMatrix in="SourceAlpha" type="matrix" values="0 0 0 0 0 0 0 0 0 0 0 0 0 0 0 0 0 0 127 0" result="hardAlpha"/>
<feOffset dx="1" dy="2"/>
<feGaussianBlur stdDeviation="2.5"/>
<feColorMatrix type="matrix" values="0 0 0 0 0.113725 0 0 0 0 0.407843 0 0 0 0 1 0 0 0 0.2 0"/>
<feBlend mode="normal" in2="BackgroundImageFix" result="effect1_dropShadow_2450_583"/>
<feColorMatrix in="SourceAlpha" type="matrix" values="0 0 0 0 0 0 0 0 0 0 0 0 0 0 0 0 0 0 127 0" result="hardAlpha"/>
<feOffset dx="4" dy="8"/>
<feGaussianBlur stdDeviation="4.5"/>
<feColorMatrix type="matrix" values="0 0 0 0 0.113725 0 0 0 0 0.407843 0 0 0 0 1 0 0 0 0.17 0"/>
<feBlend mode="normal" in2="effect1_dropShadow_2450_583" result="effect2_dropShadow_2450_583"/>
<feColorMatrix in="SourceAlpha" type="matrix" values="0 0 0 0 0 0 0 0 0 0 0 0 0 0 0 0 0 0 127 0" result="hardAlpha"/>
<feOffset dx="9" dy="18"/>
<feGaussianBlur stdDeviation="6"/>
<feColorMatrix type="matrix" values="0 0 0 0 0.113725 0 0 0 0 0.407843 0 0 0 0 1 0 0 0 0.1 0"/>
<feBlend mode="normal" in2="effect2_dropShadow_2450_583" result="effect3_dropShadow_2450_583"/>
<feColorMatrix in="SourceAlpha" type="matrix" values="0 0 0 0 0 0 0 0 0 0 0 0 0 0 0 0 0 0 127 0" result="hardAlpha"/>
<feOffset dx="15" dy="32"/>
<feGaussianBlur stdDeviation="7"/>
<feColorMatrix type="matrix" values="0 0 0 0 0.113725 0 0 0 0 0.407843 0 0 0 0 1 0 0 0 0.03 0"/>
<feBlend mode="normal" in2="effect3_dropShadow_2450_583" result="effect4_dropShadow_2450_583"/>
<feBlend mode="normal" in="SourceGraphic" in2="effect4_dropShadow_2450_583" result="shape"/>
</filter>
<filter id="filter6_dddd_2450_583" x="-60.0234" y="252.984" width="172.18" height="203.18" filterUnits="userSpaceOnUse" color-interpolation-filters="sRGB">
<feFlood flood-opacity="0" result="BackgroundImageFix"/>
<feColorMatrix in="SourceAlpha" type="matrix" values="0 0 0 0 0 0 0 0 0 0 0 0 0 0 0 0 0 0 127 0" result="hardAlpha"/>
<feOffset dy="3"/>
<feGaussianBlur stdDeviation="3"/>
<feColorMatrix type="matrix" values="0 0 0 0 0.113725 0 0 0 0 0.407843 0 0 0 0 1 0 0 0 0.07 0"/>
<feBlend mode="normal" in2="BackgroundImageFix" result="effect1_dropShadow_2450_583"/>
<feColorMatrix in="SourceAlpha" type="matrix" values="0 0 0 0 0 0 0 0 0 0 0 0 0 0 0 0 0 0 127 0" result="hardAlpha"/>
<feOffset dy="11"/>
<feGaussianBlur stdDeviation="5.5"/>
<feColorMatrix type="matrix" values="0 0 0 0 0.113725 0 0 0 0 0.407843 0 0 0 0 1 0 0 0 0.06 0"/>
<feBlend mode="normal" in2="effect1_dropShadow_2450_583" result="effect2_dropShadow_2450_583"/>
<feColorMatrix in="SourceAlpha" type="matrix" values="0 0 0 0 0 0 0 0 0 0 0 0 0 0 0 0 0 0 127 0" result="hardAlpha"/>
<feOffset dy="26"/>
<feGaussianBlur stdDeviation="7.5"/>
<feColorMatrix type="matrix" values="0 0 0 0 0.113725 0 0 0 0 0.407843 0 0 0 0 1 0 0 0 0.03 0"/>
<feBlend mode="normal" in2="effect2_dropShadow_2450_583" result="effect3_dropShadow_2450_583"/>
<feColorMatrix in="SourceAlpha" type="matrix" values="0 0 0 0 0 0 0 0 0 0 0 0 0 0 0 0 0 0 127 0" result="hardAlpha"/>
<feOffset dy="46"/>
<feGaussianBlur stdDeviation="9"/>
<feColorMatrix type="matrix" values="0 0 0 0 0.113725 0 0 0 0 0.407843 0 0 0 0 1 0 0 0 0.01 0"/>
<feBlend mode="normal" in2="effect3_dropShadow_2450_583" result="effect4_dropShadow_2450_583"/>
<feBlend mode="normal" in="SourceGraphic" in2="effect4_dropShadow_2450_583" result="shape"/>
</filter>
<filter id="filter7_dddd_2450_583" x="51.9688" y="-59.4023" width="197.059" height="228.059" filterUnits="userSpaceOnUse" color-interpolation-filters="sRGB">
<feFlood flood-opacity="0" result="BackgroundImageFix"/>
<feColorMatrix in="SourceAlpha" type="matrix" values="0 0 0 0 0 0 0 0 0 0 0 0 0 0 0 0 0 0 127 0" result="hardAlpha"/>
<feOffset dy="3"/>
<feGaussianBlur stdDeviation="3"/>
<feColorMatrix type="matrix" values="0 0 0 0 0.113725 0 0 0 0 0.407843 0 0 0 0 1 0 0 0 0.07 0"/>
<feBlend mode="normal" in2="BackgroundImageFix" result="effect1_dropShadow_2450_583"/>
<feColorMatrix in="SourceAlpha" type="matrix" values="0 0 0 0 0 0 0 0 0 0 0 0 0 0 0 0 0 0 127 0" result="hardAlpha"/>
<feOffset dy="11"/>
<feGaussianBlur stdDeviation="5.5"/>
<feColorMatrix type="matrix" values="0 0 0 0 0.113725 0 0 0 0 0.407843 0 0 0 0 1 0 0 0 0.06 0"/>
<feBlend mode="normal" in2="effect1_dropShadow_2450_583" result="effect2_dropShadow_2450_583"/>
<feColorMatrix in="SourceAlpha" type="matrix" values="0 0 0 0 0 0 0 0 0 0 0 0 0 0 0 0 0 0 127 0" result="hardAlpha"/>
<feOffset dy="26"/>
<feGaussianBlur stdDeviation="7.5"/>
<feColorMatrix type="matrix" values="0 0 0 0 0.113725 0 0 0 0 0.407843 0 0 0 0 1 0 0 0 0.03 0"/>
<feBlend mode="normal" in2="effect2_dropShadow_2450_583" result="effect3_dropShadow_2450_583"/>
<feColorMatrix in="SourceAlpha" type="matrix" values="0 0 0 0 0 0 0 0 0 0 0 0 0 0 0 0 0 0 127 0" result="hardAlpha"/>
<feOffset dy="46"/>
<feGaussianBlur stdDeviation="9"/>
<feColorMatrix type="matrix" values="0 0 0 0 0.113725 0 0 0 0 0.407843 0 0 0 0 1 0 0 0 0.01 0"/>
<feBlend mode="normal" in2="effect3_dropShadow_2450_583" result="effect4_dropShadow_2450_583"/>
<feBlend mode="normal" in="SourceGraphic" in2="effect4_dropShadow_2450_583" result="shape"/>
</filter>
<filter id="filter8_dddd_2450_583" x="-134.754" y="-71.7539" width="270.168" height="301.168" filterUnits="userSpaceOnUse" color-interpolation-filters="sRGB">
<feFlood flood-opacity="0" result="BackgroundImageFix"/>
<feColorMatrix in="SourceAlpha" type="matrix" values="0 0 0 0 0 0 0 0 0 0 0 0 0 0 0 0 0 0 127 0" result="hardAlpha"/>
<feOffset dy="3"/>
<feGaussianBlur stdDeviation="3"/>
<feColorMatrix type="matrix" values="0 0 0 0 0.113725 0 0 0 0 0.407843 0 0 0 0 1 0 0 0 0.07 0"/>
<feBlend mode="normal" in2="BackgroundImageFix" result="effect1_dropShadow_2450_583"/>
<feColorMatrix in="SourceAlpha" type="matrix" values="0 0 0 0 0 0 0 0 0 0 0 0 0 0 0 0 0 0 127 0" result="hardAlpha"/>
<feOffset dy="11"/>
<feGaussianBlur stdDeviation="5.5"/>
<feColorMatrix type="matrix" values="0 0 0 0 0.113725 0 0 0 0 0.407843 0 0 0 0 1 0 0 0 0.06 0"/>
<feBlend mode="normal" in2="effect1_dropShadow_2450_583" result="effect2_dropShadow_2450_583"/>
<feColorMatrix in="SourceAlpha" type="matrix" values="0 0 0 0 0 0 0 0 0 0 0 0 0 0 0 0 0 0 127 0" result="hardAlpha"/>
<feOffset dy="26"/>
<feGaussianBlur stdDeviation="7.5"/>
<feColorMatrix type="matrix" values="0 0 0 0 0.113725 0 0 0 0 0.407843 0 0 0 0 1 0 0 0 0.03 0"/>
<feBlend mode="normal" in2="effect2_dropShadow_2450_583" result="effect3_dropShadow_2450_583"/>
<feColorMatrix in="SourceAlpha" type="matrix" values="0 0 0 0 0 0 0 0 0 0 0 0 0 0 0 0 0 0 127 0" result="hardAlpha"/>
<feOffset dy="46"/>
<feGaussianBlur stdDeviation="9"/>
<feColorMatrix type="matrix" values="0 0 0 0 0.113725 0 0 0 0 0.407843 0 0 0 0 1 0 0 0 0.01 0"/>
<feBlend mode="normal" in2="effect3_dropShadow_2450_583" result="effect4_dropShadow_2450_583"/>
<feBlend mode="normal" in="SourceGraphic" in2="effect4_dropShadow_2450_583" result="shape"/>
</filter>
<filter id="filter9_dddd_2450_583" x="957.699" y="361.703" width="150.164" height="181.16" filterUnits="userSpaceOnUse" color-interpolation-filters="sRGB">
<feFlood flood-opacity="0" result="BackgroundImageFix"/>
<feColorMatrix in="SourceAlpha" type="matrix" values="0 0 0 0 0 0 0 0 0 0 0 0 0 0 0 0 0 0 127 0" result="hardAlpha"/>
<feOffset dy="3"/>
<feGaussianBlur stdDeviation="3"/>
<feColorMatrix type="matrix" values="0 0 0 0 0.113725 0 0 0 0 0.407843 0 0 0 0 1 0 0 0 0.07 0"/>
<feBlend mode="normal" in2="BackgroundImageFix" result="effect1_dropShadow_2450_583"/>
<feColorMatrix in="SourceAlpha" type="matrix" values="0 0 0 0 0 0 0 0 0 0 0 0 0 0 0 0 0 0 127 0" result="hardAlpha"/>
<feOffset dy="11"/>
<feGaussianBlur stdDeviation="5.5"/>
<feColorMatrix type="matrix" values="0 0 0 0 0.113725 0 0 0 0 0.407843 0 0 0 0 1 0 0 0 0.06 0"/>
<feBlend mode="normal" in2="effect1_dropShadow_2450_583" result="effect2_dropShadow_2450_583"/>
<feColorMatrix in="SourceAlpha" type="matrix" values="0 0 0 0 0 0 0 0 0 0 0 0 0 0 0 0 0 0 127 0" result="hardAlpha"/>
<feOffset dy="26"/>
<feGaussianBlur stdDeviation="7.5"/>
<feColorMatrix type="matrix" values="0 0 0 0 0.113725 0 0 0 0 0.407843 0 0 0 0 1 0 0 0 0.03 0"/>
<feBlend mode="normal" in2="effect2_dropShadow_2450_583" result="effect3_dropShadow_2450_583"/>
<feColorMatrix in="SourceAlpha" type="matrix" values="0 0 0 0 0 0 0 0 0 0 0 0 0 0 0 0 0 0 127 0" result="hardAlpha"/>
<feOffset dy="46"/>
<feGaussianBlur stdDeviation="9"/>
<feColorMatrix type="matrix" values="0 0 0 0 0.113725 0 0 0 0 0.407843 0 0 0 0 1 0 0 0 0.01 0"/>
<feBlend mode="normal" in2="effect3_dropShadow_2450_583" result="effect4_dropShadow_2450_583"/>
<feBlend mode="normal" in="SourceGraphic" in2="effect4_dropShadow_2450_583" result="shape"/>
</filter>
<filter id="filter10_dddd_2450_583" x="1169.82" y="283.824" width="108.602" height="139.602" filterUnits="userSpaceOnUse" color-interpolation-filters="sRGB">
<feFlood flood-opacity="0" result="BackgroundImageFix"/>
<feColorMatrix in="SourceAlpha" type="matrix" values="0 0 0 0 0 0 0 0 0 0 0 0 0 0 0 0 0 0 127 0" result="hardAlpha"/>
<feOffset dy="3"/>
<feGaussianBlur stdDeviation="3"/>
<feColorMatrix type="matrix" values="0 0 0 0 0.113725 0 0 0 0 0.407843 0 0 0 0 1 0 0 0 0.07 0"/>
<feBlend mode="normal" in2="BackgroundImageFix" result="effect1_dropShadow_2450_583"/>
<feColorMatrix in="SourceAlpha" type="matrix" values="0 0 0 0 0 0 0 0 0 0 0 0 0 0 0 0 0 0 127 0" result="hardAlpha"/>
<feOffset dy="11"/>
<feGaussianBlur stdDeviation="5.5"/>
<feColorMatrix type="matrix" values="0 0 0 0 0.113725 0 0 0 0 0.407843 0 0 0 0 1 0 0 0 0.06 0"/>
<feBlend mode="normal" in2="effect1_dropShadow_2450_583" result="effect2_dropShadow_2450_583"/>
<feColorMatrix in="SourceAlpha" type="matrix" values="0 0 0 0 0 0 0 0 0 0 0 0 0 0 0 0 0 0 127 0" result="hardAlpha"/>
<feOffset dy="26"/>
<feGaussianBlur stdDeviation="7.5"/>
<feColorMatrix type="matrix" values="0 0 0 0 0.113725 0 0 0 0 0.407843 0 0 0 0 1 0 0 0 0.03 0"/>
<feBlend mode="normal" in2="effect2_dropShadow_2450_583" result="effect3_dropShadow_2450_583"/>
<feColorMatrix in="SourceAlpha" type="matrix" values="0 0 0 0 0 0 0 0 0 0 0 0 0 0 0 0 0 0 127 0" result="hardAlpha"/>
<feOffset dy="46"/>
<feGaussianBlur stdDeviation="9"/>
<feColorMatrix type="matrix" values="0 0 0 0 0.113725 0 0 0 0 0.407843 0 0 0 0 1 0 0 0 0.01 0"/>
<feBlend mode="normal" in2="effect3_dropShadow_2450_583" result="effect4_dropShadow_2450_583"/>
<feBlend mode="normal" in="SourceGraphic" in2="effect4_dropShadow_2450_583" result="shape"/>
</filter>
<filter id="filter11_dddd_2450_583" x="472.516" y="146.512" width="82.3672" height="113.367" filterUnits="userSpaceOnUse" color-interpolation-filters="sRGB">
<feFlood flood-opacity="0" result="BackgroundImageFix"/>
<feColorMatrix in="SourceAlpha" type="matrix" values="0 0 0 0 0 0 0 0 0 0 0 0 0 0 0 0 0 0 127 0" result="hardAlpha"/>
<feOffset dy="3"/>
<feGaussianBlur stdDeviation="3"/>
<feColorMatrix type="matrix" values="0 0 0 0 0.113725 0 0 0 0 0.407843 0 0 0 0 1 0 0 0 0.07 0"/>
<feBlend mode="normal" in2="BackgroundImageFix" result="effect1_dropShadow_2450_583"/>
<feColorMatrix in="SourceAlpha" type="matrix" values="0 0 0 0 0 0 0 0 0 0 0 0 0 0 0 0 0 0 127 0" result="hardAlpha"/>
<feOffset dy="11"/>
<feGaussianBlur stdDeviation="5.5"/>
<feColorMatrix type="matrix" values="0 0 0 0 0.113725 0 0 0 0 0.407843 0 0 0 0 1 0 0 0 0.06 0"/>
<feBlend mode="normal" in2="effect1_dropShadow_2450_583" result="effect2_dropShadow_2450_583"/>
<feColorMatrix in="SourceAlpha" type="matrix" values="0 0 0 0 0 0 0 0 0 0 0 0 0 0 0 0 0 0 127 0" result="hardAlpha"/>
<feOffset dy="26"/>
<feGaussianBlur stdDeviation="7.5"/>
<feColorMatrix type="matrix" values="0 0 0 0 0.113725 0 0 0 0 0.407843 0 0 0 0 1 0 0 0 0.03 0"/>
<feBlend mode="normal" in2="effect2_dropShadow_2450_583" result="effect3_dropShadow_2450_583"/>
<feColorMatrix in="SourceAlpha" type="matrix" values="0 0 0 0 0 0 0 0 0 0 0 0 0 0 0 0 0 0 127 0" result="hardAlpha"/>
<feOffset dy="46"/>
<feGaussianBlur stdDeviation="9"/>
<feColorMatrix type="matrix" values="0 0 0 0 0.113725 0 0 0 0 0.407843 0 0 0 0 1 0 0 0 0.01 0"/>
<feBlend mode="normal" in2="effect3_dropShadow_2450_583" result="effect4_dropShadow_2450_583"/>
<feBlend mode="normal" in="SourceGraphic" in2="effect4_dropShadow_2450_583" result="shape"/>
</filter>
<filter id="filter12_d_2450_583" x="-888" y="-87" width="1191.57" height="695.383" filterUnits="userSpaceOnUse" color-interpolation-filters="sRGB">
<feFlood flood-opacity="0" result="BackgroundImageFix"/>
<feColorMatrix in="SourceAlpha" type="matrix" values="0 0 0 0 0 0 0 0 0 0 0 0 0 0 0 0 0 0 127 0" result="hardAlpha"/>
<feMorphology radius="1" operator="dilate" in="SourceAlpha" result="effect1_dropShadow_2450_583"/>
<feOffset/>
<feGaussianBlur stdDeviation="15"/>
<feComposite in2="hardAlpha" operator="out"/>
<feColorMatrix type="matrix" values="0 0 0 0 0.113782 0 0 0 0 0.409188 0 0 0 0 1 0 0 0 0.4 0"/>
<feBlend mode="normal" in2="BackgroundImageFix" result="effect1_dropShadow_2450_583"/>
<feBlend mode="normal" in="SourceGraphic" in2="effect1_dropShadow_2450_583" result="shape"/>
</filter>
<filter id="filter13_dddd_2450_583" x="719" y="380" width="56" height="87" filterUnits="userSpaceOnUse" color-interpolation-filters="sRGB">
<feFlood flood-opacity="0" result="BackgroundImageFix"/>
<feColorMatrix in="SourceAlpha" type="matrix" values="0 0 0 0 0 0 0 0 0 0 0 0 0 0 0 0 0 0 127 0" result="hardAlpha"/>
<feOffset dy="3"/>
<feGaussianBlur stdDeviation="3"/>
<feColorMatrix type="matrix" values="0 0 0 0 0.113725 0 0 0 0 0.407843 0 0 0 0 1 0 0 0 0.07 0"/>
<feBlend mode="normal" in2="BackgroundImageFix" result="effect1_dropShadow_2450_583"/>
<feColorMatrix in="SourceAlpha" type="matrix" values="0 0 0 0 0 0 0 0 0 0 0 0 0 0 0 0 0 0 127 0" result="hardAlpha"/>
<feOffset dy="11"/>
<feGaussianBlur stdDeviation="5.5"/>
<feColorMatrix type="matrix" values="0 0 0 0 0.113725 0 0 0 0 0.407843 0 0 0 0 1 0 0 0 0.06 0"/>
<feBlend mode="normal" in2="effect1_dropShadow_2450_583" result="effect2_dropShadow_2450_583"/>
<feColorMatrix in="SourceAlpha" type="matrix" values="0 0 0 0 0 0 0 0 0 0 0 0 0 0 0 0 0 0 127 0" result="hardAlpha"/>
<feOffset dy="26"/>
<feGaussianBlur stdDeviation="7.5"/>
<feColorMatrix type="matrix" values="0 0 0 0 0.113725 0 0 0 0 0.407843 0 0 0 0 1 0 0 0 0.03 0"/>
<feBlend mode="normal" in2="effect2_dropShadow_2450_583" result="effect3_dropShadow_2450_583"/>
<feColorMatrix in="SourceAlpha" type="matrix" values="0 0 0 0 0 0 0 0 0 0 0 0 0 0 0 0 0 0 127 0" result="hardAlpha"/>
<feOffset dy="46"/>
<feGaussianBlur stdDeviation="9"/>
<feColorMatrix type="matrix" values="0 0 0 0 0.113725 0 0 0 0 0.407843 0 0 0 0 1 0 0 0 0.01 0"/>
<feBlend mode="normal" in2="effect3_dropShadow_2450_583" result="effect4_dropShadow_2450_583"/>
<feBlend mode="normal" in="SourceGraphic" in2="effect4_dropShadow_2450_583" result="shape"/>
</filter>
<filter id="filter14_dddd_2450_583" x="21" y="70.5" width="49" height="80" filterUnits="userSpaceOnUse" color-interpolation-filters="sRGB">
<feFlood flood-opacity="0" result="BackgroundImageFix"/>
<feColorMatrix in="SourceAlpha" type="matrix" values="0 0 0 0 0 0 0 0 0 0 0 0 0 0 0 0 0 0 127 0" result="hardAlpha"/>
<feOffset dy="3"/>
<feGaussianBlur stdDeviation="3"/>
<feColorMatrix type="matrix" values="0 0 0 0 0.113725 0 0 0 0 0.407843 0 0 0 0 1 0 0 0 0.07 0"/>
<feBlend mode="normal" in2="BackgroundImageFix" result="effect1_dropShadow_2450_583"/>
<feColorMatrix in="SourceAlpha" type="matrix" values="0 0 0 0 0 0 0 0 0 0 0 0 0 0 0 0 0 0 127 0" result="hardAlpha"/>
<feOffset dy="11"/>
<feGaussianBlur stdDeviation="5.5"/>
<feColorMatrix type="matrix" values="0 0 0 0 0.113725 0 0 0 0 0.407843 0 0 0 0 1 0 0 0 0.06 0"/>
<feBlend mode="normal" in2="effect1_dropShadow_2450_583" result="effect2_dropShadow_2450_583"/>
<feColorMatrix in="SourceAlpha" type="matrix" values="0 0 0 0 0 0 0 0 0 0 0 0 0 0 0 0 0 0 127 0" result="hardAlpha"/>
<feOffset dy="26"/>
<feGaussianBlur stdDeviation="7.5"/>
<feColorMatrix type="matrix" values="0 0 0 0 0.113725 0 0 0 0 0.407843 0 0 0 0 1 0 0 0 0.03 0"/>
<feBlend mode="normal" in2="effect2_dropShadow_2450_583" result="effect3_dropShadow_2450_583"/>
<feColorMatrix in="SourceAlpha" type="matrix" values="0 0 0 0 0 0 0 0 0 0 0 0 0 0 0 0 0 0 127 0" result="hardAlpha"/>
<feOffset dy="46"/>
<feGaussianBlur stdDeviation="9"/>
<feColorMatrix type="matrix" values="0 0 0 0 0.113725 0 0 0 0 0.407843 0 0 0 0 1 0 0 0 0.01 0"/>
<feBlend mode="normal" in2="effect3_dropShadow_2450_583" result="effect4_dropShadow_2450_583"/>
<feBlend mode="normal" in="SourceGraphic" in2="effect4_dropShadow_2450_583" result="shape"/>
</filter>
<filter id="filter15_dddd_2450_583" x="530" y="426" width="82" height="113" filterUnits="userSpaceOnUse" color-interpolation-filters="sRGB">
<feFlood flood-opacity="0" result="BackgroundImageFix"/>
<feColorMatrix in="SourceAlpha" type="matrix" values="0 0 0 0 0 0 0 0 0 0 0 0 0 0 0 0 0 0 127 0" result="hardAlpha"/>
<feOffset dy="3"/>
<feGaussianBlur stdDeviation="3"/>
<feColorMatrix type="matrix" values="0 0 0 0 0.113725 0 0 0 0 0.407843 0 0 0 0 1 0 0 0 0.07 0"/>
<feBlend mode="normal" in2="BackgroundImageFix" result="effect1_dropShadow_2450_583"/>
<feColorMatrix in="SourceAlpha" type="matrix" values="0 0 0 0 0 0 0 0 0 0 0 0 0 0 0 0 0 0 127 0" result="hardAlpha"/>
<feOffset dy="11"/>
<feGaussianBlur stdDeviation="5.5"/>
<feColorMatrix type="matrix" values="0 0 0 0 0.113725 0 0 0 0 0.407843 0 0 0 0 1 0 0 0 0.06 0"/>
<feBlend mode="normal" in2="effect1_dropShadow_2450_583" result="effect2_dropShadow_2450_583"/>
<feColorMatrix in="SourceAlpha" type="matrix" values="0 0 0 0 0 0 0 0 0 0 0 0 0 0 0 0 0 0 127 0" result="hardAlpha"/>
<feOffset dy="26"/>
<feGaussianBlur stdDeviation="7.5"/>
<feColorMatrix type="matrix" values="0 0 0 0 0.113725 0 0 0 0 0.407843 0 0 0 0 1 0 0 0 0.03 0"/>
<feBlend mode="normal" in2="effect2_dropShadow_2450_583" result="effect3_dropShadow_2450_583"/>
<feColorMatrix in="SourceAlpha" type="matrix" values="0 0 0 0 0 0 0 0 0 0 0 0 0 0 0 0 0 0 127 0" result="hardAlpha"/>
<feOffset dy="46"/>
<feGaussianBlur stdDeviation="9"/>
<feColorMatrix type="matrix" values="0 0 0 0 0.113725 0 0 0 0 0.407843 0 0 0 0 1 0 0 0 0.01 0"/>
<feBlend mode="normal" in2="effect3_dropShadow_2450_583" result="effect4_dropShadow_2450_583"/>
<feBlend mode="normal" in="SourceGraphic" in2="effect4_dropShadow_2450_583" result="shape"/>
</filter>
<filter id="filter16_dddd_2450_583" x="39" y="472" width="109" height="140" filterUnits="userSpaceOnUse" color-interpolation-filters="sRGB">
<feFlood flood-opacity="0" result="BackgroundImageFix"/>
<feColorMatrix in="SourceAlpha" type="matrix" values="0 0 0 0 0 0 0 0 0 0 0 0 0 0 0 0 0 0 127 0" result="hardAlpha"/>
<feOffset dy="3"/>
<feGaussianBlur stdDeviation="3"/>
<feColorMatrix type="matrix" values="0 0 0 0 0.113725 0 0 0 0 0.407843 0 0 0 0 1 0 0 0 0.07 0"/>
<feBlend mode="normal" in2="BackgroundImageFix" result="effect1_dropShadow_2450_583"/>
<feColorMatrix in="SourceAlpha" type="matrix" values="0 0 0 0 0 0 0 0 0 0 0 0 0 0 0 0 0 0 127 0" result="hardAlpha"/>
<feOffset dy="11"/>
<feGaussianBlur stdDeviation="5.5"/>
<feColorMatrix type="matrix" values="0 0 0 0 0.113725 0 0 0 0 0.407843 0 0 0 0 1 0 0 0 0.06 0"/>
<feBlend mode="normal" in2="effect1_dropShadow_2450_583" result="effect2_dropShadow_2450_583"/>
<feColorMatrix in="SourceAlpha" type="matrix" values="0 0 0 0 0 0 0 0 0 0 0 0 0 0 0 0 0 0 127 0" result="hardAlpha"/>
<feOffset dy="26"/>
<feGaussianBlur stdDeviation="7.5"/>
<feColorMatrix type="matrix" values="0 0 0 0 0.113725 0 0 0 0 0.407843 0 0 0 0 1 0 0 0 0.03 0"/>
<feBlend mode="normal" in2="effect2_dropShadow_2450_583" result="effect3_dropShadow_2450_583"/>
<feColorMatrix in="SourceAlpha" type="matrix" values="0 0 0 0 0 0 0 0 0 0 0 0 0 0 0 0 0 0 127 0" result="hardAlpha"/>
<feOffset dy="46"/>
<feGaussianBlur stdDeviation="9"/>
<feColorMatrix type="matrix" values="0 0 0 0 0.113725 0 0 0 0 0.407843 0 0 0 0 1 0 0 0 0.01 0"/>
<feBlend mode="normal" in2="effect3_dropShadow_2450_583" result="effect4_dropShadow_2450_583"/>
<feBlend mode="normal" in="SourceGraphic" in2="effect4_dropShadow_2450_583" result="shape"/>
</filter>
<filter id="filter17_dddd_2450_583" x="147" y="193" width="323.5" height="100" filterUnits="userSpaceOnUse" color-interpolation-filters="sRGB">
<feFlood flood-opacity="0" result="BackgroundImageFix"/>
<feColorMatrix in="SourceAlpha" type="matrix" values="0 0 0 0 0 0 0 0 0 0 0 0 0 0 0 0 0 0 127 0" result="hardAlpha"/>
<feOffset dx="1" dy="2"/>
<feGaussianBlur stdDeviation="2.5"/>
<feColorMatrix type="matrix" values="0 0 0 0 0.113725 0 0 0 0 0.407843 0 0 0 0 1 0 0 0 0.2 0"/>
<feBlend mode="normal" in2="BackgroundImageFix" result="effect1_dropShadow_2450_583"/>
<feColorMatrix in="SourceAlpha" type="matrix" values="0 0 0 0 0 0 0 0 0 0 0 0 0 0 0 0 0 0 127 0" result="hardAlpha"/>
<feOffset dx="4" dy="8"/>
<feGaussianBlur stdDeviation="4.5"/>
<feColorMatrix type="matrix" values="0 0 0 0 0.113725 0 0 0 0 0.407843 0 0 0 0 1 0 0 0 0.17 0"/>
<feBlend mode="normal" in2="effect1_dropShadow_2450_583" result="effect2_dropShadow_2450_583"/>
<feColorMatrix in="SourceAlpha" type="matrix" values="0 0 0 0 0 0 0 0 0 0 0 0 0 0 0 0 0 0 127 0" result="hardAlpha"/>
<feOffset dx="9" dy="18"/>
<feGaussianBlur stdDeviation="6"/>
<feColorMatrix type="matrix" values="0 0 0 0 0.113725 0 0 0 0 0.407843 0 0 0 0 1 0 0 0 0.1 0"/>
<feBlend mode="normal" in2="effect2_dropShadow_2450_583" result="effect3_dropShadow_2450_583"/>
<feColorMatrix in="SourceAlpha" type="matrix" values="0 0 0 0 0 0 0 0 0 0 0 0 0 0 0 0 0 0 127 0" result="hardAlpha"/>
<feOffset dx="15" dy="32"/>
<feGaussianBlur stdDeviation="7"/>
<feColorMatrix type="matrix" values="0 0 0 0 0.113725 0 0 0 0 0.407843 0 0 0 0 1 0 0 0 0.03 0"/>
<feBlend mode="normal" in2="effect3_dropShadow_2450_583" result="effect4_dropShadow_2450_583"/>
<feBlend mode="normal" in="SourceGraphic" in2="effect4_dropShadow_2450_583" result="shape"/>
</filter>
<filter id="filter18_dddd_2450_583" x="117" y="243" width="42" height="57" filterUnits="userSpaceOnUse" color-interpolation-filters="sRGB">
<feFlood flood-opacity="0" result="BackgroundImageFix"/>
<feColorMatrix in="SourceAlpha" type="matrix" values="0 0 0 0 0 0 0 0 0 0 0 0 0 0 0 0 0 0 127 0" result="hardAlpha"/>
<feOffset dx="1" dy="2"/>
<feGaussianBlur stdDeviation="2.5"/>
<feColorMatrix type="matrix" values="0 0 0 0 0.113725 0 0 0 0 0.407843 0 0 0 0 1 0 0 0 0.2 0"/>
<feBlend mode="normal" in2="BackgroundImageFix" result="effect1_dropShadow_2450_583"/>
<feColorMatrix in="SourceAlpha" type="matrix" values="0 0 0 0 0 0 0 0 0 0 0 0 0 0 0 0 0 0 127 0" result="hardAlpha"/>
<feOffset dx="4" dy="8"/>
<feGaussianBlur stdDeviation="4.5"/>
<feColorMatrix type="matrix" values="0 0 0 0 0.113725 0 0 0 0 0.407843 0 0 0 0 1 0 0 0 0.17 0"/>
<feBlend mode="normal" in2="effect1_dropShadow_2450_583" result="effect2_dropShadow_2450_583"/>
<feColorMatrix in="SourceAlpha" type="matrix" values="0 0 0 0 0 0 0 0 0 0 0 0 0 0 0 0 0 0 127 0" result="hardAlpha"/>
<feOffset dx="9" dy="18"/>
<feGaussianBlur stdDeviation="6"/>
<feColorMatrix type="matrix" values="0 0 0 0 0.113725 0 0 0 0 0.407843 0 0 0 0 1 0 0 0 0.1 0"/>
<feBlend mode="normal" in2="effect2_dropShadow_2450_583" result="effect3_dropShadow_2450_583"/>
<feColorMatrix in="SourceAlpha" type="matrix" values="0 0 0 0 0 0 0 0 0 0 0 0 0 0 0 0 0 0 127 0" result="hardAlpha"/>
<feOffset dx="15" dy="32"/>
<feGaussianBlur stdDeviation="7"/>
<feColorMatrix type="matrix" values="0 0 0 0 0.113725 0 0 0 0 0.407843 0 0 0 0 1 0 0 0 0.03 0"/>
<feBlend mode="normal" in2="effect3_dropShadow_2450_583" result="effect4_dropShadow_2450_583"/>
<feBlend mode="normal" in="SourceGraphic" in2="effect4_dropShadow_2450_583" result="shape"/>
</filter>
<filter id="filter19_dddd_2450_583" x="459" y="243" width="42" height="57" filterUnits="userSpaceOnUse" color-interpolation-filters="sRGB">
<feFlood flood-opacity="0" result="BackgroundImageFix"/>
<feColorMatrix in="SourceAlpha" type="matrix" values="0 0 0 0 0 0 0 0 0 0 0 0 0 0 0 0 0 0 127 0" result="hardAlpha"/>
<feOffset dx="1" dy="2"/>
<feGaussianBlur stdDeviation="2.5"/>
<feColorMatrix type="matrix" values="0 0 0 0 0.113725 0 0 0 0 0.407843 0 0 0 0 1 0 0 0 0.2 0"/>
<feBlend mode="normal" in2="BackgroundImageFix" result="effect1_dropShadow_2450_583"/>
<feColorMatrix in="SourceAlpha" type="matrix" values="0 0 0 0 0 0 0 0 0 0 0 0 0 0 0 0 0 0 127 0" result="hardAlpha"/>
<feOffset dx="4" dy="8"/>
<feGaussianBlur stdDeviation="4.5"/>
<feColorMatrix type="matrix" values="0 0 0 0 0.113725 0 0 0 0 0.407843 0 0 0 0 1 0 0 0 0.17 0"/>
<feBlend mode="normal" in2="effect1_dropShadow_2450_583" result="effect2_dropShadow_2450_583"/>
<feColorMatrix in="SourceAlpha" type="matrix" values="0 0 0 0 0 0 0 0 0 0 0 0 0 0 0 0 0 0 127 0" result="hardAlpha"/>
<feOffset dx="9" dy="18"/>
<feGaussianBlur stdDeviation="6"/>
<feColorMatrix type="matrix" values="0 0 0 0 0.113725 0 0 0 0 0.407843 0 0 0 0 1 0 0 0 0.1 0"/>
<feBlend mode="normal" in2="effect2_dropShadow_2450_583" result="effect3_dropShadow_2450_583"/>
<feColorMatrix in="SourceAlpha" type="matrix" values="0 0 0 0 0 0 0 0 0 0 0 0 0 0 0 0 0 0 127 0" result="hardAlpha"/>
<feOffset dx="15" dy="32"/>
<feGaussianBlur stdDeviation="7"/>
<feColorMatrix type="matrix" values="0 0 0 0 0.113725 0 0 0 0 0.407843 0 0 0 0 1 0 0 0 0.03 0"/>
<feBlend mode="normal" in2="effect3_dropShadow_2450_583" result="effect4_dropShadow_2450_583"/>
<feBlend mode="normal" in="SourceGraphic" in2="effect4_dropShadow_2450_583" result="shape"/>
</filter>
<filter id="filter20_dddd_2450_583" x="459" y="186" width="42" height="57" filterUnits="userSpaceOnUse" color-interpolation-filters="sRGB">
<feFlood flood-opacity="0" result="BackgroundImageFix"/>
<feColorMatrix in="SourceAlpha" type="matrix" values="0 0 0 0 0 0 0 0 0 0 0 0 0 0 0 0 0 0 127 0" result="hardAlpha"/>
<feOffset dx="1" dy="2"/>
<feGaussianBlur stdDeviation="2.5"/>
<feColorMatrix type="matrix" values="0 0 0 0 0.113725 0 0 0 0 0.407843 0 0 0 0 1 0 0 0 0.2 0"/>
<feBlend mode="normal" in2="BackgroundImageFix" result="effect1_dropShadow_2450_583"/>
<feColorMatrix in="SourceAlpha" type="matrix" values="0 0 0 0 0 0 0 0 0 0 0 0 0 0 0 0 0 0 127 0" result="hardAlpha"/>
<feOffset dx="4" dy="8"/>
<feGaussianBlur stdDeviation="4.5"/>
<feColorMatrix type="matrix" values="0 0 0 0 0.113725 0 0 0 0 0.407843 0 0 0 0 1 0 0 0 0.17 0"/>
<feBlend mode="normal" in2="effect1_dropShadow_2450_583" result="effect2_dropShadow_2450_583"/>
<feColorMatrix in="SourceAlpha" type="matrix" values="0 0 0 0 0 0 0 0 0 0 0 0 0 0 0 0 0 0 127 0" result="hardAlpha"/>
<feOffset dx="9" dy="18"/>
<feGaussianBlur stdDeviation="6"/>
<feColorMatrix type="matrix" values="0 0 0 0 0.113725 0 0 0 0 0.407843 0 0 0 0 1 0 0 0 0.1 0"/>
<feBlend mode="normal" in2="effect2_dropShadow_2450_583" result="effect3_dropShadow_2450_583"/>
<feColorMatrix in="SourceAlpha" type="matrix" values="0 0 0 0 0 0 0 0 0 0 0 0 0 0 0 0 0 0 127 0" result="hardAlpha"/>
<feOffset dx="15" dy="32"/>
<feGaussianBlur stdDeviation="7"/>
<feColorMatrix type="matrix" values="0 0 0 0 0.113725 0 0 0 0 0.407843 0 0 0 0 1 0 0 0 0.03 0"/>
<feBlend mode="normal" in2="effect3_dropShadow_2450_583" result="effect4_dropShadow_2450_583"/>
<feBlend mode="normal" in="SourceGraphic" in2="effect4_dropShadow_2450_583" result="shape"/>
</filter>
<filter id="filter21_dddd_2450_583" x="117" y="186" width="42" height="57" filterUnits="userSpaceOnUse" color-interpolation-filters="sRGB">
<feFlood flood-opacity="0" result="BackgroundImageFix"/>
<feColorMatrix in="SourceAlpha" type="matrix" values="0 0 0 0 0 0 0 0 0 0 0 0 0 0 0 0 0 0 127 0" result="hardAlpha"/>
<feOffset dx="1" dy="2"/>
<feGaussianBlur stdDeviation="2.5"/>
<feColorMatrix type="matrix" values="0 0 0 0 0.113725 0 0 0 0 0.407843 0 0 0 0 1 0 0 0 0.2 0"/>
<feBlend mode="normal" in2="BackgroundImageFix" result="effect1_dropShadow_2450_583"/>
<feColorMatrix in="SourceAlpha" type="matrix" values="0 0 0 0 0 0 0 0 0 0 0 0 0 0 0 0 0 0 127 0" result="hardAlpha"/>
<feOffset dx="4" dy="8"/>
<feGaussianBlur stdDeviation="4.5"/>
<feColorMatrix type="matrix" values="0 0 0 0 0.113725 0 0 0 0 0.407843 0 0 0 0 1 0 0 0 0.17 0"/>
<feBlend mode="normal" in2="effect1_dropShadow_2450_583" result="effect2_dropShadow_2450_583"/>
<feColorMatrix in="SourceAlpha" type="matrix" values="0 0 0 0 0 0 0 0 0 0 0 0 0 0 0 0 0 0 127 0" result="hardAlpha"/>
<feOffset dx="9" dy="18"/>
<feGaussianBlur stdDeviation="6"/>
<feColorMatrix type="matrix" values="0 0 0 0 0.113725 0 0 0 0 0.407843 0 0 0 0 1 0 0 0 0.1 0"/>
<feBlend mode="normal" in2="effect2_dropShadow_2450_583" result="effect3_dropShadow_2450_583"/>
<feColorMatrix in="SourceAlpha" type="matrix" values="0 0 0 0 0 0 0 0 0 0 0 0 0 0 0 0 0 0 127 0" result="hardAlpha"/>
<feOffset dx="15" dy="32"/>
<feGaussianBlur stdDeviation="7"/>
<feColorMatrix type="matrix" values="0 0 0 0 0.113725 0 0 0 0 0.407843 0 0 0 0 1 0 0 0 0.03 0"/>
<feBlend mode="normal" in2="effect3_dropShadow_2450_583" result="effect4_dropShadow_2450_583"/>
<feBlend mode="normal" in="SourceGraphic" in2="effect4_dropShadow_2450_583" result="shape"/>
</filter>
<filter id="filter22_dddd_2450_583" x="752.754" y="-46.7891" width="1048.46" height="978.473" filterUnits="userSpaceOnUse" color-interpolation-filters="sRGB">
<feFlood flood-opacity="0" result="BackgroundImageFix"/>
<feColorMatrix in="SourceAlpha" type="matrix" values="0 0 0 0 0 0 0 0 0 0 0 0 0 0 0 0 0 0 127 0" result="hardAlpha"/>
<feOffset dy="3"/>
<feGaussianBlur stdDeviation="3"/>
<feColorMatrix type="matrix" values="0 0 0 0 0.113725 0 0 0 0 0.407843 0 0 0 0 1 0 0 0 0.07 0"/>
<feBlend mode="normal" in2="BackgroundImageFix" result="effect1_dropShadow_2450_583"/>
<feColorMatrix in="SourceAlpha" type="matrix" values="0 0 0 0 0 0 0 0 0 0 0 0 0 0 0 0 0 0 127 0" result="hardAlpha"/>
<feOffset dy="11"/>
<feGaussianBlur stdDeviation="5.5"/>
<feColorMatrix type="matrix" values="0 0 0 0 0.113725 0 0 0 0 0.407843 0 0 0 0 1 0 0 0 0.06 0"/>
<feBlend mode="normal" in2="effect1_dropShadow_2450_583" result="effect2_dropShadow_2450_583"/>
<feColorMatrix in="SourceAlpha" type="matrix" values="0 0 0 0 0 0 0 0 0 0 0 0 0 0 0 0 0 0 127 0" result="hardAlpha"/>
<feOffset dy="26"/>
<feGaussianBlur stdDeviation="7.5"/>
<feColorMatrix type="matrix" values="0 0 0 0 0.113725 0 0 0 0 0.407843 0 0 0 0 1 0 0 0 0.03 0"/>
<feBlend mode="normal" in2="effect2_dropShadow_2450_583" result="effect3_dropShadow_2450_583"/>
<feColorMatrix in="SourceAlpha" type="matrix" values="0 0 0 0 0 0 0 0 0 0 0 0 0 0 0 0 0 0 127 0" result="hardAlpha"/>
<feOffset dy="46"/>
<feGaussianBlur stdDeviation="9"/>
<feColorMatrix type="matrix" values="0 0 0 0 0.113725 0 0 0 0 0.407843 0 0 0 0 1 0 0 0 0.01 0"/>
<feBlend mode="normal" in2="effect3_dropShadow_2450_583" result="effect4_dropShadow_2450_583"/>
<feBlend mode="normal" in="SourceGraphic" in2="effect4_dropShadow_2450_583" result="shape"/>
</filter>
<linearGradient id="paint0_linear_2450_583" x1="1267" y1="384.496" x2="995.5" y2="152.996" gradientUnits="userSpaceOnUse">
<stop stop-color="#1D68FF"/>
<stop offset="1" stop-color="#CDDEFF"/>
</linearGradient>
<linearGradient id="paint1_linear_2450_583" x1="1238.75" y1="369.871" x2="967.246" y2="138.371" gradientUnits="userSpaceOnUse">
<stop stop-color="#1D68FF"/>
<stop offset="1" stop-color="#CDDEFF"/>
</linearGradient>
<linearGradient id="paint2_linear_2450_583" x1="-25.8596" y1="133.768" x2="223.918" y2="388.553" gradientUnits="userSpaceOnUse">
<stop stop-color="#1D68FF"/>
<stop offset="1" stop-color="#CDDEFF"/>
</linearGradient>
<linearGradient id="paint3_linear_2450_583" x1="10.1404" y1="157.772" x2="259.918" y2="412.557" gradientUnits="userSpaceOnUse">
<stop stop-color="#1D68FF"/>
<stop offset="1" stop-color="#CDDEFF"/>
</linearGradient>
<linearGradient id="paint4_linear_2450_583" x1="1493.64" y1="-53.5039" x2="585.141" y2="-65.5039" gradientUnits="userSpaceOnUse">
<stop stop-color="#1D68FF"/>
<stop offset="1" stop-color="#B6CEFF"/>
</linearGradient>
<linearGradient id="paint5_linear_2450_583" x1="572.566" y1="-66.5" x2="-335.934" y2="-78.5" gradientUnits="userSpaceOnUse">
<stop stop-color="#1D68FF"/>
<stop offset="1" stop-color="#B6CEFF"/>
</linearGradient>
<linearGradient id="paint6_linear_2450_583" x1="1463.54" y1="427.709" x2="1232.37" y2="155.927" gradientUnits="userSpaceOnUse">
<stop stop-color="#1D68FF"/>
<stop offset="1" stop-color="#CDDEFF"/>
</linearGradient>
<clipPath id="clip0_2450_583">
<rect width="1300" height="521" rx="20" fill="white"/>
</clipPath>
</defs>
</svg>
