<svg width="1920" height="429" viewBox="0 0 1920 429" fill="none" xmlns="http://www.w3.org/2000/svg">
<g clip-path="url(#clip0_2446_13823)">
<g filter="url(#filter0_dddd_2446_13823)">
<rect x="578" y="63" width="607" height="66" rx="33" fill="white" fill-opacity="0.7"/>
<path d="M631.556 94.3535L633.275 88.4238H635.101L633.962 94.3535H631.556ZM635.874 94.3535L637.593 88.4238H639.419L638.281 94.3535H635.874ZM656.914 86.5977V100.777H654.873V94.0957H650.876V92.3984H654.873V86.5977H656.914ZM651.005 88.0371C650.984 93.0645 647.525 96.8457 642.003 98.6289L641.144 96.9961C645.43 95.6104 648.341 92.9893 648.771 89.7344H642.132V88.0371H651.005ZM657.408 103.764V105.418H644.517V99.3164H646.58V103.764H657.408ZM674.343 86.5762V91.4316H677.136V93.0859H674.343V98.0059H672.302V86.5762H674.343ZM669.058 87.9512C669.058 92.9355 665.685 96.5234 660.035 98.1562L659.197 96.502C663.698 95.2236 666.48 92.7207 666.845 89.6055H660.056V87.9512H669.058ZM668.199 98.2207C672.088 98.2207 674.558 99.6602 674.558 102.002C674.558 104.365 672.088 105.805 668.199 105.805C664.332 105.805 661.796 104.365 661.818 102.002C661.796 99.6602 664.332 98.2207 668.199 98.2207ZM668.199 99.832C665.513 99.832 663.816 100.648 663.838 102.002C663.816 103.355 665.513 104.193 668.199 104.193C670.863 104.193 672.56 103.355 672.56 102.002C672.56 100.648 670.863 99.832 668.199 99.832ZM687.519 87.7793C687.519 92.6777 684.168 96.1582 678.582 97.7266L677.744 96.1367C682.18 94.8906 684.941 92.4844 685.349 89.4551H678.754V87.7793H687.519ZM693.621 86.5977V97.4902H691.58V93.1074H687.605V91.4102H691.58V86.5977H693.621ZM693.621 98.2852V105.568H681.031V98.2852H693.621ZM683.029 99.918V103.936H691.601V99.918H683.029ZM703.059 90.5938C703.059 93.0859 704.906 95.4277 707.871 96.373L706.818 97.9629C704.605 97.2324 702.93 95.7178 702.07 93.7949C701.2 95.8896 699.492 97.5439 697.193 98.3496L696.141 96.7383C699.127 95.7285 700.975 93.2363 700.996 90.5938V89.7559H696.678V88.1016H707.291V89.7559H703.059V90.5938ZM711.889 86.5977V100.648H709.848V86.5977H711.889ZM712.469 103.764V105.418H699.299V99.3164H701.361V103.764H712.469ZM734.115 86.5762V91.1309H736.908V92.8281H734.115V97.8125H732.074V86.5762H734.115ZM721.74 87.6719V90.4648H726.789V87.6719H728.809V96.6953H719.742V87.6719H721.74ZM721.74 95.084H726.789V92.0762H721.74V95.084ZM734.266 98.8223V100.455H723.889V103.936H734.61V105.547H721.848V98.8223H734.266ZM742.758 87.6719C745.702 87.6719 747.871 89.5195 747.893 92.248C747.871 94.9336 745.702 96.8027 742.758 96.8027C739.815 96.8027 737.623 94.9336 737.645 92.248C737.623 89.5195 739.815 87.6719 742.758 87.6719ZM742.758 89.3906C740.954 89.3906 739.621 90.5508 739.643 92.248C739.621 93.9668 740.954 95.084 742.758 95.1055C744.563 95.084 745.895 93.9668 745.895 92.248C745.895 90.5508 744.563 89.3906 742.758 89.3906ZM752.469 86.5762V91.0449H755.262V92.7207H752.469V97.4688H750.428V86.5762H752.469ZM743.811 99.2734C743.811 100.938 744.627 102.689 746.389 103.742C748.14 102.604 748.989 100.734 748.989 99.2734V98.3066H750.987V99.2734C750.987 101.293 752.297 103.227 754.811 104.064L753.78 105.59C751.911 104.902 750.621 103.613 749.977 102.023C749.354 103.581 748.194 105.031 746.411 105.762C744.574 105.053 743.413 103.688 742.823 102.109C742.124 103.624 740.857 104.913 739.063 105.59L738.053 104.064C740.502 103.184 741.856 101.143 741.856 99.2734V98.3066H743.811V99.2734ZM762.788 92.248C762.788 95.4707 764.893 98.8008 767.858 100.068L766.741 101.658C764.474 100.659 762.669 98.543 761.778 95.9648C760.886 98.7148 759.071 101.057 756.836 102.152L755.655 100.541C758.555 99.1875 760.704 95.5566 760.725 92.248V90.207H756.321V88.5098H767.17V90.207H762.788V92.248ZM771.639 86.5762V105.826H769.598V86.5762H771.639ZM783.805 88.2734V97.2539H774.803V88.2734H783.805ZM776.801 89.9277V95.6426H781.807V89.9277H776.801ZM789.176 86.5547V92.3125H791.969V94.0312H789.176V100.67H787.135V86.5547H789.176ZM789.993 103.764V105.418H776.973V99.3164H779.014V103.764H789.993ZM795.864 102.518L794.145 108.447H792.319L793.458 102.518H795.864ZM819.681 97.6191V99.2734H811.818V105.805H809.82V99.2734H802.064V97.6191H819.681ZM817.468 87.6074V95.1699H804.277V87.6074H817.468ZM806.275 89.2402V93.5801H815.427V89.2402H806.275ZM837.992 96.4805V98.1562H820.439V96.4805H837.992ZM836.015 103.764V105.418H822.652V99.8535H824.714V103.764H836.015ZM830.257 87.9727C830.257 90.4219 833.329 92.7852 836.982 93.3652L836.144 94.9766C833.125 94.4395 830.451 92.8174 829.226 90.6367C827.991 92.8389 825.294 94.4609 822.265 94.9766L821.47 93.3652C825.122 92.7852 828.173 90.4648 828.173 87.9727V87.0918H830.257V87.9727ZM849.777 87.9512C852.828 87.9297 854.998 89.8203 855.019 92.5273C854.998 95.2344 852.828 97.125 849.777 97.125C846.748 97.125 844.513 95.2344 844.535 92.5273C844.513 89.8203 846.748 87.9297 849.777 87.9512ZM849.777 89.7129C847.908 89.7129 846.533 90.8301 846.554 92.5273C846.533 94.2246 847.908 95.3418 849.777 95.3418C851.646 95.3418 853.021 94.2246 853.021 92.5273C853.021 90.8301 851.646 89.7129 849.777 89.7129ZM859.424 86.5762V105.869H857.383V86.5762H859.424ZM843.611 100.025C847.113 100.025 851.968 99.9824 856.179 99.3809L856.33 100.863C851.968 101.701 847.306 101.723 843.869 101.723L843.611 100.025ZM871.955 88.4238V101.078H862.931V88.4238H871.955ZM864.951 90.0352V99.4238H869.978V90.0352H864.951ZM877.799 86.5762V105.869H875.758V86.5762H877.799ZM896.174 86.5977V100.584H894.133V86.5977H896.174ZM896.754 103.764V105.418H883.584V99.166H885.646V103.764H896.754ZM885.732 87.8867C888.633 87.8867 890.846 89.8633 890.846 92.6562C890.846 95.4922 888.633 97.4473 885.732 97.4473C882.832 97.4473 880.598 95.4922 880.598 92.6562C880.598 89.8633 882.832 87.8867 885.732 87.8867ZM885.732 89.6699C883.928 89.6699 882.596 90.8945 882.596 92.6562C882.596 94.4609 883.928 95.6641 885.732 95.6641C887.494 95.6641 888.848 94.4609 888.848 92.6562C888.848 90.8945 887.494 89.6699 885.732 89.6699ZM905.654 92.248C905.654 95.4707 907.76 98.8008 910.725 100.068L909.608 101.658C907.341 100.659 905.536 98.543 904.645 95.9648C903.753 98.7148 901.938 101.057 899.703 102.152L898.522 100.541C901.422 99.1875 903.57 95.5566 903.592 92.248V90.207H899.188V88.5098H910.037V90.207H905.654V92.248ZM914.506 86.5762V105.826H912.465V86.5762H914.506ZM937.635 86.5977V97.877H935.594V96.9531H931.834V95.6211H935.594V86.5977H937.635ZM921.586 93.6875C925.303 93.709 930.03 93.666 934.176 93.2148L934.284 94.5254C932.468 94.7725 930.588 94.9229 928.741 95.0195V97.877H926.721V95.1055C924.981 95.1484 923.327 95.1592 921.823 95.1484L921.586 93.6875ZM937.635 98.5215V102.689H926.549V104.15H938.215V105.633H924.551V101.336H935.616V99.9395H924.465V98.5215H937.635ZM932.479 87.1562V92.334H923.37V87.1562H932.479ZM925.411 88.6172V90.873H930.481V88.6172H925.411ZM954.212 89.7559V91.4102H944.651V89.7559H948.432V87.1348H950.452V89.7559H954.212ZM949.442 92.5703C951.891 92.5703 953.61 94.3965 953.632 96.9961C953.61 99.6172 951.891 101.465 949.442 101.465C947.036 101.465 945.253 99.6172 945.274 96.9961C945.253 94.3965 947.036 92.5703 949.442 92.5703ZM949.442 94.2676C948.046 94.2676 947.079 95.4062 947.079 96.9961C947.079 98.6289 948.046 99.7246 949.442 99.7246C950.817 99.7246 951.827 98.6289 951.827 96.9961C951.827 95.4062 950.817 94.2676 949.442 94.2676ZM961.173 86.5762V105.826H959.239V96.2656H957.026V104.924H955.093V87.0059H957.026V94.5898H959.239V86.5762H961.173ZM968.204 88.0156C971.083 88.0156 973.124 90.6367 973.145 94.7617C973.124 98.9082 971.083 101.529 968.204 101.529C965.325 101.529 963.263 98.9082 963.284 94.7617C963.263 90.6367 965.325 88.0156 968.204 88.0156ZM968.204 89.8418C966.442 89.8418 965.239 91.7324 965.239 94.7617C965.239 97.8125 966.442 99.7031 968.204 99.7031C969.987 99.7031 971.19 97.8125 971.19 94.7617C971.19 91.7324 969.987 89.8418 968.204 89.8418ZM981.03 91.2812V93.0215H978.044V97.0176H981.03V98.6934H978.044V105.826H976.003V86.5762H978.044V91.2812H981.03ZM1001.24 86.5117V91.0234H1004.05V92.6992H1001.24V97.1035H999.197V86.5117H1001.24ZM1001.24 98.0059V102.475H990.839V104.086H1001.9V105.633H988.841V101.035H999.218V99.5312H988.798V98.0059H1001.24ZM997.607 88.209V89.8203H986.134V88.209H990.861V86.4043H992.902V88.209H997.607ZM991.87 90.5508C994.685 90.5508 996.533 91.7539 996.533 93.709C996.533 95.6641 994.685 96.8457 991.87 96.8457C989.034 96.8457 987.187 95.6641 987.187 93.709C987.187 91.7539 989.034 90.5508 991.87 90.5508ZM991.87 92.0117C990.216 92.0117 989.142 92.6777 989.163 93.709C989.142 94.7402 990.216 95.3633 991.87 95.3633C993.525 95.3633 994.599 94.7402 994.62 93.709C994.599 92.6777 993.525 92.0117 991.87 92.0117ZM1011.56 92.248C1011.56 95.4707 1013.66 98.8008 1016.63 100.068L1015.51 101.658C1013.24 100.659 1011.44 98.543 1010.55 95.9648C1009.65 98.7148 1007.84 101.057 1005.6 102.152L1004.42 100.541C1007.32 99.1875 1009.47 95.5566 1009.49 92.248V90.207H1005.09V88.5098H1015.94V90.207H1011.56V92.248ZM1020.41 86.5762V105.826H1018.37V86.5762H1020.41ZM1045.15 101.723V103.42H1027.53V101.723H1035.29V97.2754H1029.55V88.123H1043.04V97.2754H1037.31V101.723H1045.15ZM1031.53 89.7559V95.6641H1041.04V89.7559H1031.53ZM1063.5 101.787V103.463H1045.88V101.787H1063.5ZM1061.35 87.9941V94.0098H1050.05V96.8242H1061.8V98.457H1048.03V92.3555H1059.33V89.6484H1047.99V87.9941H1061.35ZM1072.77 87.9727C1072.77 89.4014 1072.53 90.7119 1072.08 91.9043H1074.81V86.9844H1076.74V97.3613H1074.81V93.5586H1071.22C1070 95.46 1068.05 96.9746 1065.4 98.0918L1064.37 96.5664C1068.18 95.0518 1070.29 92.6885 1070.66 89.627H1065.25V87.9727H1072.77ZM1080.65 86.5977V97.6621H1078.72V86.5977H1080.65ZM1071.09 99.4453C1071.07 101.11 1071.9 102.851 1073.65 103.914C1075.4 102.754 1076.25 100.885 1076.27 99.4453V98.2852H1078.25V99.4453C1078.25 101.443 1079.58 103.42 1082.07 104.236L1081.08 105.74C1079.17 105.063 1077.88 103.774 1077.21 102.174C1076.6 103.721 1075.46 105.149 1073.67 105.891C1071.83 105.192 1070.68 103.807 1070.1 102.217C1069.41 103.764 1068.13 105.053 1066.32 105.74L1065.29 104.236C1067.76 103.355 1069.14 101.314 1069.14 99.4453V98.2852H1071.09V99.4453ZM1087.81 88.0156C1090.42 88.0156 1092.34 90.2285 1092.65 93.7949H1096.62V86.5762H1098.64V105.869H1096.62V95.4492H1092.67C1092.44 99.1982 1090.49 101.529 1087.81 101.529C1084.93 101.529 1082.91 98.9082 1082.94 94.7617C1082.91 90.6367 1084.93 88.0156 1087.81 88.0156ZM1087.81 89.8418C1086.07 89.8418 1084.87 91.7324 1084.87 94.7617C1084.87 97.8125 1086.07 99.7031 1087.81 99.7031C1089.55 99.7031 1090.76 97.8125 1090.76 94.7617C1090.76 91.7324 1089.55 89.8418 1087.81 89.8418ZM1118.56 101.723V103.42H1100.95V101.723H1105.16V96.6953C1103.58 95.8252 1102.62 94.4395 1102.62 92.7207C1102.62 89.6914 1105.59 87.6934 1109.71 87.6934C1113.86 87.6934 1116.82 89.6914 1116.82 92.7207C1116.82 94.418 1115.9 95.7822 1114.35 96.6523V101.723H1118.56ZM1109.71 89.3262C1106.68 89.3262 1104.6 90.6367 1104.6 92.7207C1104.6 94.7832 1106.68 96.1367 1109.71 96.1367C1112.72 96.1367 1114.85 94.7832 1114.85 92.7207C1114.85 90.6367 1112.72 89.3262 1109.71 89.3262ZM1107.18 101.723H1112.29V97.4258C1111.51 97.6299 1110.64 97.7266 1109.71 97.7266C1108.81 97.7266 1107.95 97.6299 1107.18 97.4473V101.723ZM1121.49 104.15C1120.65 104.15 1119.94 103.463 1119.97 102.625C1119.94 101.787 1120.65 101.1 1121.49 101.1C1122.31 101.1 1123.02 101.787 1123.02 102.625C1123.02 103.463 1122.31 104.15 1121.49 104.15ZM1131.42 88.4668L1129.7 94.3965H1127.88L1129.02 88.4668H1131.42ZM1127.1 88.4668L1125.39 94.3965H1123.56L1124.7 88.4668H1127.1Z" fill="#121218"/>
</g>
<g filter="url(#filter1_dddd_2446_13823)">
<rect x="959" y="188" width="384" height="66" rx="33" fill="white" fill-opacity="0.7"/>
<path d="M989.962 219.354L991.681 213.424H993.507L992.368 219.354H989.962ZM994.281 219.354L995.999 213.424H997.825L996.687 219.354H994.281ZM1015.75 211.576V230.826H1013.79V220.965H1011.32V229.838H1009.41V211.963H1011.32V219.289H1013.79V211.576H1015.75ZM1002.21 213.854V224.123C1004 224.112 1005.94 223.973 1008.12 223.543L1008.34 225.326C1005.69 225.799 1003.48 225.928 1001.42 225.928H1000.17V213.854H1002.21ZM1038.38 211.598V225.777H1036.34V219.096H1032.35V217.398H1036.34V211.598H1038.38ZM1032.48 213.037C1032.45 218.064 1029 221.846 1023.47 223.629L1022.61 221.996C1026.9 220.61 1029.81 217.989 1030.24 214.734H1023.6V213.037H1032.48ZM1038.88 228.764V230.418H1025.99V224.316H1028.05V228.764H1038.88ZM1055.81 211.576V216.432H1058.61V218.086H1055.81V223.006H1053.77V211.576H1055.81ZM1050.53 212.951C1050.53 217.936 1047.16 221.523 1041.51 223.156L1040.67 221.502C1045.17 220.224 1047.95 217.721 1048.32 214.605H1041.53V212.951H1050.53ZM1049.67 223.221C1053.56 223.221 1056.03 224.66 1056.03 227.002C1056.03 229.365 1053.56 230.805 1049.67 230.805C1045.8 230.805 1043.27 229.365 1043.29 227.002C1043.27 224.66 1045.8 223.221 1049.67 223.221ZM1049.67 224.832C1046.98 224.832 1045.29 225.648 1045.31 227.002C1045.29 228.355 1046.98 229.193 1049.67 229.193C1052.33 229.193 1054.03 228.355 1054.03 227.002C1054.03 225.648 1052.33 224.832 1049.67 224.832ZM1067.81 211.898C1072.15 211.898 1074.68 213.059 1074.68 215.207C1074.68 217.355 1072.15 218.537 1067.81 218.537C1063.47 218.537 1060.93 217.355 1060.93 215.207C1060.93 213.059 1063.47 211.898 1067.81 211.898ZM1067.81 213.402C1064.74 213.402 1063.04 214.068 1063.06 215.207C1063.04 216.389 1064.74 217.012 1067.81 217.012C1070.88 217.012 1072.58 216.389 1072.58 215.207C1072.58 214.068 1070.88 213.402 1067.81 213.402ZM1076.6 219.719V221.352H1059.04V219.719H1076.6ZM1074.38 222.834V227.346H1063.17V229.064H1074.92V230.633H1061.17V225.863H1072.36V224.359H1061.15V222.834H1074.38ZM1091.88 213.359V215.057H1085.12V224.445C1088.34 224.435 1090.56 224.316 1093.09 223.822L1093.32 225.498C1090.55 226.014 1088.21 226.143 1084.58 226.143H1083.05V213.359H1091.88ZM1098.18 211.576V230.869H1096.14V220.148H1090.79V218.451H1096.14V211.576H1098.18ZM1121.22 211.576V223.027H1119.18V218.15H1115.59V216.475H1119.18V211.576H1121.22ZM1114.78 223.564C1118.82 223.564 1121.29 224.896 1121.29 227.195C1121.29 229.494 1118.82 230.805 1114.78 230.826C1110.74 230.805 1108.24 229.494 1108.27 227.195C1108.24 224.896 1110.74 223.564 1114.78 223.564ZM1114.78 225.154C1111.96 225.154 1110.29 225.885 1110.29 227.195C1110.29 228.484 1111.96 229.236 1114.78 229.215C1117.59 229.236 1119.27 228.484 1119.27 227.195C1119.27 225.885 1117.59 225.154 1114.78 225.154ZM1112.07 214.971C1112.07 217.42 1113.81 219.783 1116.71 220.771L1115.66 222.383C1113.5 221.631 1111.91 220.095 1111.08 218.193C1110.23 220.353 1108.55 222.082 1106.25 222.92L1105.17 221.287C1108.16 220.256 1109.99 217.656 1109.99 214.992V214.562H1105.82V212.908H1116.19V214.562H1112.07V214.971ZM1138.67 211.598V217.312H1141.42V218.988H1138.67V224.553H1136.63V211.598H1138.67ZM1123.4 222.404C1124.89 222.404 1126.62 222.404 1128.42 222.34V221.051C1126.23 220.825 1124.84 219.794 1124.86 218.236C1124.84 216.475 1126.66 215.379 1129.43 215.4C1132.18 215.379 1134.01 216.475 1134.01 218.236C1134.01 219.783 1132.64 220.814 1130.47 221.051V222.275C1132.18 222.189 1133.92 222.05 1135.54 221.824L1135.71 223.285C1131.56 224.016 1127.01 224.037 1123.61 224.037L1123.4 222.404ZM1138.67 225.455V230.826H1136.63V227.045H1125.8V225.455H1138.67ZM1135 213.23V214.756H1123.89V213.23H1128.42V211.426H1130.47V213.23H1135ZM1129.43 216.797C1127.78 216.775 1126.79 217.312 1126.79 218.236C1126.79 219.139 1127.78 219.719 1129.43 219.719C1131.07 219.719 1132.06 219.139 1132.06 218.236C1132.06 217.312 1131.07 216.775 1129.43 216.797ZM1157.82 211.576V230.826H1155.78V211.576H1157.82ZM1153.91 214.627V216.281H1142.31V214.627H1147.06V211.77H1149.12V214.627H1153.91ZM1148.13 217.678C1150.95 217.678 1152.99 219.525 1152.99 222.146C1152.99 224.789 1150.95 226.615 1148.13 226.637C1145.34 226.615 1143.3 224.789 1143.3 222.146C1143.3 219.525 1145.34 217.678 1148.13 217.678ZM1148.13 219.354C1146.46 219.354 1145.23 220.492 1145.23 222.146C1145.23 223.822 1146.46 224.939 1148.13 224.918C1149.81 224.939 1151.03 223.822 1151.03 222.146C1151.03 220.492 1149.81 219.354 1148.13 219.354ZM1182.54 221.652V223.285H1174.89V226.83H1172.87V223.285H1164.92V221.652H1182.54ZM1180.59 228.764V230.418H1167.11V225.154H1169.13V228.764H1180.59ZM1169.26 212.178V214.52H1178.18V212.178H1180.22V219.955H1167.24V212.178H1169.26ZM1169.26 218.322H1178.18V216.045H1169.26V218.322ZM1190.09 214.648C1190.07 217.205 1191.83 219.611 1194.73 220.578L1193.61 222.211C1191.48 221.448 1189.92 219.891 1189.1 217.936C1188.25 220.084 1186.62 221.771 1184.37 222.619L1183.28 220.965C1186.28 219.912 1188.02 217.377 1188.05 214.541V212.564H1190.09V214.648ZM1199.35 223.994V230.826H1197.31V225.605H1186.31V223.994H1199.35ZM1199.35 211.576V222.984H1197.31V217.141H1193.25V215.465H1197.31V211.576H1199.35ZM1216.65 211.576V219.375H1219.74V221.072H1216.65V230.826H1214.63V211.576H1216.65ZM1212.95 214.584V216.26H1201.54V214.584H1206.29V211.834H1208.33V214.584H1212.95ZM1207.32 217.678C1210.07 217.678 1212.09 219.525 1212.11 222.146C1212.09 224.789 1210.07 226.615 1207.32 226.637C1204.55 226.615 1202.53 224.789 1202.53 222.146C1202.53 219.525 1204.55 217.678 1207.32 217.678ZM1207.32 219.354C1205.69 219.354 1204.47 220.492 1204.49 222.146C1204.47 223.822 1205.69 224.939 1207.32 224.918C1208.96 224.939 1210.16 223.822 1210.16 222.146C1210.16 220.492 1208.96 219.354 1207.32 219.354ZM1235.58 213.424V215.314C1235.58 217.699 1235.58 220.363 1234.85 224.295L1232.79 224.08C1233.54 220.363 1233.54 217.635 1233.54 215.314V215.078H1221.85V213.424H1235.58ZM1237.56 226.529V228.227H1220.01V226.529H1226.69V219.74H1228.71V226.529H1237.56ZM1259.03 211.598V222.275H1256.99V211.598H1259.03ZM1250.07 214.154C1250.05 216.711 1251.92 219.053 1254.87 219.955L1253.88 221.566C1251.61 220.836 1249.92 219.321 1249.04 217.355C1248.17 219.472 1246.45 221.137 1244.14 221.91L1243.13 220.299C1246.14 219.311 1247.99 216.818 1247.99 214.154V212.285H1250.07V214.154ZM1259.16 223.328V224.961H1256.63V228.936H1259.36V230.59H1245.95V228.936H1248.7V224.961H1246.12V223.328H1259.16ZM1250.72 228.936H1254.61V224.961H1250.72V228.936ZM1266.64 213.016C1269.26 213.016 1271.17 215.229 1271.48 218.795H1275.45V211.576H1277.47V230.869H1275.45V220.449H1271.5C1271.27 224.198 1269.32 226.529 1266.64 226.529C1263.77 226.529 1261.75 223.908 1261.77 219.762C1261.75 215.637 1263.77 213.016 1266.64 213.016ZM1266.64 214.842C1264.9 214.842 1263.7 216.732 1263.7 219.762C1263.7 222.812 1264.9 224.703 1266.64 224.703C1268.39 224.703 1269.59 222.812 1269.59 219.762C1269.59 216.732 1268.39 214.842 1266.64 214.842ZM1297.39 226.723V228.42H1279.78V226.723H1283.99V221.695C1282.41 220.825 1281.45 219.439 1281.45 217.721C1281.45 214.691 1284.42 212.693 1288.54 212.693C1292.69 212.693 1295.65 214.691 1295.65 217.721C1295.65 219.418 1294.73 220.782 1293.18 221.652V226.723H1297.39ZM1288.54 214.326C1285.51 214.326 1283.43 215.637 1283.43 217.721C1283.43 219.783 1285.51 221.137 1288.54 221.137C1291.55 221.137 1293.68 219.783 1293.68 217.721C1293.68 215.637 1291.55 214.326 1288.54 214.326ZM1286.01 226.723H1291.12V222.426C1290.34 222.63 1289.47 222.727 1288.54 222.727C1287.64 222.727 1286.78 222.63 1286.01 222.447V226.723ZM1301.68 213.445L1301.48 224.51H1299.36L1299.16 213.445H1301.68ZM1300.43 229.15C1299.59 229.15 1298.88 228.463 1298.9 227.625C1298.88 226.787 1299.59 226.1 1300.43 226.1C1301.25 226.1 1301.96 226.787 1301.96 227.625C1301.96 228.463 1301.25 229.15 1300.43 229.15ZM1312.02 213.467L1310.3 219.396H1308.47L1309.61 213.467H1312.02ZM1307.7 213.467L1305.98 219.396H1304.15L1305.29 213.467H1307.7Z" fill="#121218"/>
</g>
<g filter="url(#filter2_dddd_2446_13823)">
<rect x="494" y="313" width="469" height="66" rx="33" fill="white" fill-opacity="0.7"/>
<path d="M524.899 344.354L526.618 338.424H528.444L527.305 344.354H524.899ZM529.217 344.354L530.936 338.424H532.762L531.624 344.354H529.217ZM551.803 346.223V347.877H544.177V351.615H542.114V347.877H534.186V346.223H551.803ZM549.848 353.742V355.418H536.399V349.768H538.44V353.742H549.848ZM542.973 337.027C547.12 337.027 549.805 338.531 549.805 340.938C549.805 343.344 547.12 344.826 542.973 344.826C538.848 344.826 536.12 343.344 536.12 340.938C536.12 338.531 538.848 337.027 542.973 337.027ZM542.973 338.66C540.159 338.66 538.29 339.52 538.311 340.938C538.29 342.334 540.159 343.172 542.973 343.172C545.809 343.172 547.657 342.334 547.657 340.938C547.657 339.52 545.809 338.66 542.973 338.66ZM570.136 345.943V347.576H552.561V345.943H560.36V343.902H554.753V337.457H567.966V339.068H556.772V342.27H568.095V343.902H562.337V345.943H570.136ZM561.327 348.822C565.474 348.822 567.966 350.09 567.966 352.324C567.966 354.559 565.474 355.805 561.327 355.826C557.159 355.805 554.645 354.559 554.645 352.324C554.645 350.09 557.159 348.822 561.327 348.822ZM561.327 350.412C558.384 350.412 556.708 351.1 556.708 352.324C556.708 353.549 558.384 354.236 561.327 354.215C564.227 354.236 565.925 353.549 565.925 352.324C565.925 351.1 564.227 350.412 561.327 350.412ZM574.374 352.518L572.655 358.447H570.829L571.968 352.518H574.374ZM587.599 339.348C587.578 342.012 589.404 344.439 592.369 345.428L591.337 347.039C589.114 346.255 587.438 344.687 586.568 342.678C585.708 344.837 584.022 346.545 581.734 347.361L580.703 345.771C583.71 344.697 585.515 342.098 585.515 339.348V337.5H587.599V339.348ZM596.558 349.059V355.826H594.517V350.713H583.517V349.059H596.558ZM596.558 336.576V348.135H594.517V336.576H596.558ZM614.074 336.555V342.141H616.888V343.838H614.074V350.498H612.033V336.555H614.074ZM608.402 338.209V339.863H601.828V345.471C605.577 345.481 607.693 345.363 610.099 344.869L610.336 346.523C607.736 347.039 605.459 347.168 601.334 347.168H599.808V338.209H608.402ZM614.89 353.764V355.418H601.871V349.059H603.912V353.764H614.89ZM620.761 352.518L619.043 358.447H617.217L618.355 352.518H620.761ZM631.172 348.113V350.154H640.217V348.113H642.258V355.59H629.152V348.113H631.172ZM631.172 353.957H640.217V351.744H631.172V353.957ZM644.535 345.213V346.91H626.982V345.213H644.535ZM636.801 337.607C636.801 339.82 639.873 341.969 643.568 342.42L642.838 344.031C639.712 343.591 636.994 342.119 635.77 340.078C634.513 342.13 631.784 343.591 628.701 344.031L627.928 342.42C631.666 341.947 634.717 339.885 634.717 337.607V336.791H636.801V337.607ZM656.057 338.037V339.111C656.035 340.4 656.035 342.312 655.563 344.805L653.543 344.611C653.962 342.474 654.027 340.927 654.059 339.713H646.346V338.037H656.057ZM651.137 342.355V346.33C653.199 346.266 655.326 346.115 657.26 345.836L657.389 347.318C653.371 348.027 648.774 348.092 645.379 348.113L645.186 346.459C646.367 346.448 647.71 346.438 649.117 346.395V342.355H651.137ZM660.569 336.576V342.699H663.211V344.418H660.569V351.035H658.485V336.576H660.569ZM661.192 353.764V355.418H648.108V349.725H650.149V353.764H661.192ZM665.881 354.15C665.043 354.15 664.334 353.463 664.356 352.625C664.334 351.787 665.043 351.1 665.881 351.1C666.698 351.1 667.407 351.787 667.407 352.625C667.407 353.463 666.698 354.15 665.881 354.15ZM671.022 354.15C670.184 354.15 669.475 353.463 669.497 352.625C669.475 351.787 670.184 351.1 671.022 351.1C671.838 351.1 672.547 351.787 672.547 352.625C672.547 353.463 671.838 354.15 671.022 354.15ZM676.163 354.15C675.325 354.15 674.616 353.463 674.637 352.625C674.616 351.787 675.325 351.1 676.163 351.1C676.979 351.1 677.688 351.787 677.688 352.625C677.688 353.463 676.979 354.15 676.163 354.15ZM688.786 338.016C691.396 338.016 693.309 340.229 693.62 343.795H697.595V336.576H699.614V355.869H697.595V345.449H693.642C693.416 349.198 691.461 351.529 688.786 351.529C685.907 351.529 683.888 348.908 683.909 344.762C683.888 340.637 685.907 338.016 688.786 338.016ZM688.786 339.842C687.046 339.842 685.843 341.732 685.843 344.762C685.843 347.812 687.046 349.703 688.786 349.703C690.526 349.703 691.729 347.812 691.729 344.762C691.729 341.732 690.526 339.842 688.786 339.842ZM717.861 336.576V355.869H715.819V336.576H717.861ZM712.361 338.359V340.057H705.206V349.402C708.859 349.392 711.19 349.295 713.907 348.801L714.122 350.498C711.243 351.014 708.73 351.143 704.734 351.143H703.144V338.359H712.361ZM727.212 341.475C727.212 344.998 729.189 348.5 732.132 349.832L730.886 351.465C728.695 350.369 727.051 348.188 726.202 345.557C725.354 348.328 723.667 350.67 721.454 351.83L720.165 350.176C723.152 348.758 725.15 345.041 725.15 341.475V338.188H727.212V341.475ZM736.322 336.576V355.869H734.302V344.633H730.005V342.979H734.302V336.576H736.322ZM756.222 347.898V349.51H748.359V355.826H746.361V349.51H738.605V347.898H756.222ZM742.816 337.35V339.863H751.968V337.35H754.009V345.707H740.796V337.35H742.816ZM742.816 344.074H751.968V341.496H742.816V344.074ZM773.029 336.576V355.869H771.009V345.363H767.185V343.688H771.009V336.576H773.029ZM766.863 338.295V339.949H759.923V343.688H766.047V345.32H759.923V349.617C763.146 349.606 765.381 349.531 767.937 349.08L768.152 350.734C765.359 351.186 762.931 351.293 759.365 351.314H757.861V338.295H766.863ZM787.113 341.475C787.092 344.998 789.219 348.521 792.205 349.854L790.98 351.465C788.768 350.412 787.017 348.253 786.125 345.621C785.223 348.436 783.45 350.767 781.141 351.895L779.894 350.176C782.924 348.822 785.051 345.148 785.051 341.475V338.188H787.113V341.475ZM795.986 336.576V355.869H793.945V336.576H795.986ZM805.123 340.035C805.123 342.484 806.82 344.826 809.764 345.814L808.733 347.404C806.552 346.652 804.951 345.148 804.113 343.258C803.276 345.342 801.61 346.975 799.344 347.77L798.248 346.18C801.256 345.148 803.061 342.678 803.082 340.014V339.498H798.85V337.844H809.27V339.498H805.123V340.035ZM813.524 336.576V341.518H816.317V343.236H813.524V348.178H811.483V336.576H813.524ZM813.524 349.123V355.826H811.483V350.777H800.805V349.123H813.524ZM826.27 339.756V341.41H816.709V339.756H820.491V337.135H822.51V339.756H826.27ZM821.5 342.57C823.949 342.57 825.668 344.396 825.69 346.996C825.668 349.617 823.949 351.465 821.5 351.465C819.094 351.465 817.311 349.617 817.332 346.996C817.311 344.396 819.094 342.57 821.5 342.57ZM821.5 344.268C820.104 344.268 819.137 345.406 819.137 346.996C819.137 348.629 820.104 349.725 821.5 349.725C822.875 349.725 823.885 348.629 823.885 346.996C823.885 345.406 822.875 344.268 821.5 344.268ZM833.231 336.576V355.826H831.297V346.266H829.084V354.924H827.151V337.006H829.084V344.59H831.297V336.576H833.231ZM840.262 338.016C843.141 338.016 845.182 340.637 845.204 344.762C845.182 348.908 843.141 351.529 840.262 351.529C837.383 351.529 835.321 348.908 835.342 344.762C835.321 340.637 837.383 338.016 840.262 338.016ZM840.262 339.842C838.5 339.842 837.297 341.732 837.297 344.762C837.297 347.812 838.5 349.703 840.262 349.703C842.045 349.703 843.248 347.812 843.248 344.762C843.248 341.732 842.045 339.842 840.262 339.842ZM853.088 341.281V343.021H850.102V347.018H853.088V348.693H850.102V355.826H848.061V336.576H850.102V341.281H853.088ZM873.296 336.512V341.023H876.11V342.699H873.296V347.104H871.255V336.512H873.296ZM873.296 348.006V352.475H862.897V354.086H873.962V355.633H860.899V351.035H871.276V349.531H860.856V348.006H873.296ZM869.665 338.209V339.82H858.192V338.209H862.919V336.404H864.96V338.209H869.665ZM863.928 340.551C866.743 340.551 868.591 341.754 868.591 343.709C868.591 345.664 866.743 346.846 863.928 346.846C861.093 346.846 859.245 345.664 859.245 343.709C859.245 341.754 861.093 340.551 863.928 340.551ZM863.928 342.012C862.274 342.012 861.2 342.678 861.221 343.709C861.2 344.74 862.274 345.363 863.928 345.363C865.583 345.363 866.657 344.74 866.678 343.709C866.657 342.678 865.583 342.012 863.928 342.012ZM891.821 336.576V344.396H894.614V346.072H891.821V355.826H889.78V336.576H891.821ZM882.325 338.639C882.325 343.451 881.444 347.834 877.964 351.551L876.352 350.412C879.167 347.49 880.187 344.171 880.392 340.314H877.04V338.639H882.325ZM887.632 338.639C887.632 343.516 887.03 348.629 883.485 352.818L881.852 351.701C884.71 348.36 885.569 344.429 885.72 340.314H882.948V338.639H887.632ZM912.495 351.723V353.42H894.878V351.723H899.089V346.695C897.51 345.825 896.554 344.439 896.554 342.721C896.554 339.691 899.519 337.693 903.644 337.693C907.79 337.693 910.755 339.691 910.755 342.721C910.755 344.418 909.831 345.782 908.284 346.652V351.723H912.495ZM903.644 339.326C900.614 339.326 898.53 340.637 898.53 342.721C898.53 344.783 900.614 346.137 903.644 346.137C906.651 346.137 908.778 344.783 908.778 342.721C908.778 340.637 906.651 339.326 903.644 339.326ZM901.108 351.723H906.222V347.426C905.438 347.63 904.567 347.727 903.644 347.727C902.741 347.727 901.882 347.63 901.108 347.447V351.723ZM916.39 349.381C916.411 346.566 917.249 345.707 918.667 344.826C919.57 344.268 920.257 343.494 920.257 342.355C920.257 341.002 919.226 340.164 917.937 340.164C916.777 340.164 915.659 340.873 915.552 342.463H913.232C913.318 339.734 915.38 338.23 917.937 338.23C920.73 338.23 922.599 339.906 922.599 342.355C922.599 344.074 921.782 345.234 920.407 346.072C919.118 346.846 918.624 347.641 918.581 349.381V349.51H916.39V349.381ZM917.572 354.15C916.734 354.15 916.025 353.463 916.046 352.625C916.025 351.787 916.734 351.1 917.572 351.1C918.388 351.1 919.097 351.787 919.097 352.625C919.097 353.463 918.388 354.15 917.572 354.15ZM932.079 338.467L930.361 344.396H928.535L929.673 338.467H932.079ZM927.761 338.467L926.042 344.396H924.216L925.355 338.467H927.761Z" fill="#121218"/>
</g>
<g filter="url(#filter3_dddd_2446_13823)">
<rect x="-12" y="63" width="506" height="69" rx="34.5" fill="white" fill-opacity="0.7"/>
</g>
<g filter="url(#filter4_dddd_2446_13823)">
<rect x="268" y="188" width="607" height="69" rx="34.5" fill="white" fill-opacity="0.7"/>
</g>
<g filter="url(#filter5_dddd_2446_13823)">
<rect x="1456" y="188" width="607" height="69" rx="34.5" fill="white" fill-opacity="0.7"/>
</g>
<g filter="url(#filter6_dddd_2446_13823)">
<rect x="1084" y="313" width="607" height="69" rx="34.5" fill="white" fill-opacity="0.7"/>
</g>
<g filter="url(#filter7_dddd_2446_13823)">
<rect x="-197" y="313" width="607" height="69" rx="34.5" fill="white" fill-opacity="0.7"/>
</g>
<g filter="url(#filter8_dddd_2446_13823)">
<rect x="1269" y="63" width="607" height="69" rx="34.5" fill="white" fill-opacity="0.7"/>
</g>
<rect width="338" height="429" transform="matrix(-1 0 0 1 1948 0)" fill="url(#paint0_linear_2446_13823)"/>
<rect x="-28" width="338" height="429" fill="url(#paint1_linear_2446_13823)"/>
</g>
<defs>
<filter id="filter0_dddd_2446_13823" x="560" y="60" width="643" height="133" filterUnits="userSpaceOnUse" color-interpolation-filters="sRGB">
<feFlood flood-opacity="0" result="BackgroundImageFix"/>
<feColorMatrix in="SourceAlpha" type="matrix" values="0 0 0 0 0 0 0 0 0 0 0 0 0 0 0 0 0 0 127 0" result="hardAlpha"/>
<feOffset dy="3"/>
<feGaussianBlur stdDeviation="3"/>
<feColorMatrix type="matrix" values="0 0 0 0 0.113725 0 0 0 0 0.407843 0 0 0 0 1 0 0 0 0.07 0"/>
<feBlend mode="normal" in2="BackgroundImageFix" result="effect1_dropShadow_2446_13823"/>
<feColorMatrix in="SourceAlpha" type="matrix" values="0 0 0 0 0 0 0 0 0 0 0 0 0 0 0 0 0 0 127 0" result="hardAlpha"/>
<feOffset dy="11"/>
<feGaussianBlur stdDeviation="5.5"/>
<feColorMatrix type="matrix" values="0 0 0 0 0.113725 0 0 0 0 0.407843 0 0 0 0 1 0 0 0 0.06 0"/>
<feBlend mode="normal" in2="effect1_dropShadow_2446_13823" result="effect2_dropShadow_2446_13823"/>
<feColorMatrix in="SourceAlpha" type="matrix" values="0 0 0 0 0 0 0 0 0 0 0 0 0 0 0 0 0 0 127 0" result="hardAlpha"/>
<feOffset dy="26"/>
<feGaussianBlur stdDeviation="7.5"/>
<feColorMatrix type="matrix" values="0 0 0 0 0.113725 0 0 0 0 0.407843 0 0 0 0 1 0 0 0 0.03 0"/>
<feBlend mode="normal" in2="effect2_dropShadow_2446_13823" result="effect3_dropShadow_2446_13823"/>
<feColorMatrix in="SourceAlpha" type="matrix" values="0 0 0 0 0 0 0 0 0 0 0 0 0 0 0 0 0 0 127 0" result="hardAlpha"/>
<feOffset dy="46"/>
<feGaussianBlur stdDeviation="9"/>
<feColorMatrix type="matrix" values="0 0 0 0 0.113725 0 0 0 0 0.407843 0 0 0 0 1 0 0 0 0.01 0"/>
<feBlend mode="normal" in2="effect3_dropShadow_2446_13823" result="effect4_dropShadow_2446_13823"/>
<feBlend mode="normal" in="SourceGraphic" in2="effect4_dropShadow_2446_13823" result="shape"/>
</filter>
<filter id="filter1_dddd_2446_13823" x="941" y="185" width="420" height="133" filterUnits="userSpaceOnUse" color-interpolation-filters="sRGB">
<feFlood flood-opacity="0" result="BackgroundImageFix"/>
<feColorMatrix in="SourceAlpha" type="matrix" values="0 0 0 0 0 0 0 0 0 0 0 0 0 0 0 0 0 0 127 0" result="hardAlpha"/>
<feOffset dy="3"/>
<feGaussianBlur stdDeviation="3"/>
<feColorMatrix type="matrix" values="0 0 0 0 0.113725 0 0 0 0 0.407843 0 0 0 0 1 0 0 0 0.07 0"/>
<feBlend mode="normal" in2="BackgroundImageFix" result="effect1_dropShadow_2446_13823"/>
<feColorMatrix in="SourceAlpha" type="matrix" values="0 0 0 0 0 0 0 0 0 0 0 0 0 0 0 0 0 0 127 0" result="hardAlpha"/>
<feOffset dy="11"/>
<feGaussianBlur stdDeviation="5.5"/>
<feColorMatrix type="matrix" values="0 0 0 0 0.113725 0 0 0 0 0.407843 0 0 0 0 1 0 0 0 0.06 0"/>
<feBlend mode="normal" in2="effect1_dropShadow_2446_13823" result="effect2_dropShadow_2446_13823"/>
<feColorMatrix in="SourceAlpha" type="matrix" values="0 0 0 0 0 0 0 0 0 0 0 0 0 0 0 0 0 0 127 0" result="hardAlpha"/>
<feOffset dy="26"/>
<feGaussianBlur stdDeviation="7.5"/>
<feColorMatrix type="matrix" values="0 0 0 0 0.113725 0 0 0 0 0.407843 0 0 0 0 1 0 0 0 0.03 0"/>
<feBlend mode="normal" in2="effect2_dropShadow_2446_13823" result="effect3_dropShadow_2446_13823"/>
<feColorMatrix in="SourceAlpha" type="matrix" values="0 0 0 0 0 0 0 0 0 0 0 0 0 0 0 0 0 0 127 0" result="hardAlpha"/>
<feOffset dy="46"/>
<feGaussianBlur stdDeviation="9"/>
<feColorMatrix type="matrix" values="0 0 0 0 0.113725 0 0 0 0 0.407843 0 0 0 0 1 0 0 0 0.01 0"/>
<feBlend mode="normal" in2="effect3_dropShadow_2446_13823" result="effect4_dropShadow_2446_13823"/>
<feBlend mode="normal" in="SourceGraphic" in2="effect4_dropShadow_2446_13823" result="shape"/>
</filter>
<filter id="filter2_dddd_2446_13823" x="476" y="310" width="505" height="133" filterUnits="userSpaceOnUse" color-interpolation-filters="sRGB">
<feFlood flood-opacity="0" result="BackgroundImageFix"/>
<feColorMatrix in="SourceAlpha" type="matrix" values="0 0 0 0 0 0 0 0 0 0 0 0 0 0 0 0 0 0 127 0" result="hardAlpha"/>
<feOffset dy="3"/>
<feGaussianBlur stdDeviation="3"/>
<feColorMatrix type="matrix" values="0 0 0 0 0.113725 0 0 0 0 0.407843 0 0 0 0 1 0 0 0 0.07 0"/>
<feBlend mode="normal" in2="BackgroundImageFix" result="effect1_dropShadow_2446_13823"/>
<feColorMatrix in="SourceAlpha" type="matrix" values="0 0 0 0 0 0 0 0 0 0 0 0 0 0 0 0 0 0 127 0" result="hardAlpha"/>
<feOffset dy="11"/>
<feGaussianBlur stdDeviation="5.5"/>
<feColorMatrix type="matrix" values="0 0 0 0 0.113725 0 0 0 0 0.407843 0 0 0 0 1 0 0 0 0.06 0"/>
<feBlend mode="normal" in2="effect1_dropShadow_2446_13823" result="effect2_dropShadow_2446_13823"/>
<feColorMatrix in="SourceAlpha" type="matrix" values="0 0 0 0 0 0 0 0 0 0 0 0 0 0 0 0 0 0 127 0" result="hardAlpha"/>
<feOffset dy="26"/>
<feGaussianBlur stdDeviation="7.5"/>
<feColorMatrix type="matrix" values="0 0 0 0 0.113725 0 0 0 0 0.407843 0 0 0 0 1 0 0 0 0.03 0"/>
<feBlend mode="normal" in2="effect2_dropShadow_2446_13823" result="effect3_dropShadow_2446_13823"/>
<feColorMatrix in="SourceAlpha" type="matrix" values="0 0 0 0 0 0 0 0 0 0 0 0 0 0 0 0 0 0 127 0" result="hardAlpha"/>
<feOffset dy="46"/>
<feGaussianBlur stdDeviation="9"/>
<feColorMatrix type="matrix" values="0 0 0 0 0.113725 0 0 0 0 0.407843 0 0 0 0 1 0 0 0 0.01 0"/>
<feBlend mode="normal" in2="effect3_dropShadow_2446_13823" result="effect4_dropShadow_2446_13823"/>
<feBlend mode="normal" in="SourceGraphic" in2="effect4_dropShadow_2446_13823" result="shape"/>
</filter>
<filter id="filter3_dddd_2446_13823" x="-30" y="60" width="542" height="136" filterUnits="userSpaceOnUse" color-interpolation-filters="sRGB">
<feFlood flood-opacity="0" result="BackgroundImageFix"/>
<feColorMatrix in="SourceAlpha" type="matrix" values="0 0 0 0 0 0 0 0 0 0 0 0 0 0 0 0 0 0 127 0" result="hardAlpha"/>
<feOffset dy="3"/>
<feGaussianBlur stdDeviation="3"/>
<feColorMatrix type="matrix" values="0 0 0 0 0.113725 0 0 0 0 0.407843 0 0 0 0 1 0 0 0 0.07 0"/>
<feBlend mode="normal" in2="BackgroundImageFix" result="effect1_dropShadow_2446_13823"/>
<feColorMatrix in="SourceAlpha" type="matrix" values="0 0 0 0 0 0 0 0 0 0 0 0 0 0 0 0 0 0 127 0" result="hardAlpha"/>
<feOffset dy="11"/>
<feGaussianBlur stdDeviation="5.5"/>
<feColorMatrix type="matrix" values="0 0 0 0 0.113725 0 0 0 0 0.407843 0 0 0 0 1 0 0 0 0.06 0"/>
<feBlend mode="normal" in2="effect1_dropShadow_2446_13823" result="effect2_dropShadow_2446_13823"/>
<feColorMatrix in="SourceAlpha" type="matrix" values="0 0 0 0 0 0 0 0 0 0 0 0 0 0 0 0 0 0 127 0" result="hardAlpha"/>
<feOffset dy="26"/>
<feGaussianBlur stdDeviation="7.5"/>
<feColorMatrix type="matrix" values="0 0 0 0 0.113725 0 0 0 0 0.407843 0 0 0 0 1 0 0 0 0.03 0"/>
<feBlend mode="normal" in2="effect2_dropShadow_2446_13823" result="effect3_dropShadow_2446_13823"/>
<feColorMatrix in="SourceAlpha" type="matrix" values="0 0 0 0 0 0 0 0 0 0 0 0 0 0 0 0 0 0 127 0" result="hardAlpha"/>
<feOffset dy="46"/>
<feGaussianBlur stdDeviation="9"/>
<feColorMatrix type="matrix" values="0 0 0 0 0.113725 0 0 0 0 0.407843 0 0 0 0 1 0 0 0 0.01 0"/>
<feBlend mode="normal" in2="effect3_dropShadow_2446_13823" result="effect4_dropShadow_2446_13823"/>
<feBlend mode="normal" in="SourceGraphic" in2="effect4_dropShadow_2446_13823" result="shape"/>
</filter>
<filter id="filter4_dddd_2446_13823" x="250" y="185" width="643" height="136" filterUnits="userSpaceOnUse" color-interpolation-filters="sRGB">
<feFlood flood-opacity="0" result="BackgroundImageFix"/>
<feColorMatrix in="SourceAlpha" type="matrix" values="0 0 0 0 0 0 0 0 0 0 0 0 0 0 0 0 0 0 127 0" result="hardAlpha"/>
<feOffset dy="3"/>
<feGaussianBlur stdDeviation="3"/>
<feColorMatrix type="matrix" values="0 0 0 0 0.113725 0 0 0 0 0.407843 0 0 0 0 1 0 0 0 0.07 0"/>
<feBlend mode="normal" in2="BackgroundImageFix" result="effect1_dropShadow_2446_13823"/>
<feColorMatrix in="SourceAlpha" type="matrix" values="0 0 0 0 0 0 0 0 0 0 0 0 0 0 0 0 0 0 127 0" result="hardAlpha"/>
<feOffset dy="11"/>
<feGaussianBlur stdDeviation="5.5"/>
<feColorMatrix type="matrix" values="0 0 0 0 0.113725 0 0 0 0 0.407843 0 0 0 0 1 0 0 0 0.06 0"/>
<feBlend mode="normal" in2="effect1_dropShadow_2446_13823" result="effect2_dropShadow_2446_13823"/>
<feColorMatrix in="SourceAlpha" type="matrix" values="0 0 0 0 0 0 0 0 0 0 0 0 0 0 0 0 0 0 127 0" result="hardAlpha"/>
<feOffset dy="26"/>
<feGaussianBlur stdDeviation="7.5"/>
<feColorMatrix type="matrix" values="0 0 0 0 0.113725 0 0 0 0 0.407843 0 0 0 0 1 0 0 0 0.03 0"/>
<feBlend mode="normal" in2="effect2_dropShadow_2446_13823" result="effect3_dropShadow_2446_13823"/>
<feColorMatrix in="SourceAlpha" type="matrix" values="0 0 0 0 0 0 0 0 0 0 0 0 0 0 0 0 0 0 127 0" result="hardAlpha"/>
<feOffset dy="46"/>
<feGaussianBlur stdDeviation="9"/>
<feColorMatrix type="matrix" values="0 0 0 0 0.113725 0 0 0 0 0.407843 0 0 0 0 1 0 0 0 0.01 0"/>
<feBlend mode="normal" in2="effect3_dropShadow_2446_13823" result="effect4_dropShadow_2446_13823"/>
<feBlend mode="normal" in="SourceGraphic" in2="effect4_dropShadow_2446_13823" result="shape"/>
</filter>
<filter id="filter5_dddd_2446_13823" x="1438" y="185" width="643" height="136" filterUnits="userSpaceOnUse" color-interpolation-filters="sRGB">
<feFlood flood-opacity="0" result="BackgroundImageFix"/>
<feColorMatrix in="SourceAlpha" type="matrix" values="0 0 0 0 0 0 0 0 0 0 0 0 0 0 0 0 0 0 127 0" result="hardAlpha"/>
<feOffset dy="3"/>
<feGaussianBlur stdDeviation="3"/>
<feColorMatrix type="matrix" values="0 0 0 0 0.113725 0 0 0 0 0.407843 0 0 0 0 1 0 0 0 0.07 0"/>
<feBlend mode="normal" in2="BackgroundImageFix" result="effect1_dropShadow_2446_13823"/>
<feColorMatrix in="SourceAlpha" type="matrix" values="0 0 0 0 0 0 0 0 0 0 0 0 0 0 0 0 0 0 127 0" result="hardAlpha"/>
<feOffset dy="11"/>
<feGaussianBlur stdDeviation="5.5"/>
<feColorMatrix type="matrix" values="0 0 0 0 0.113725 0 0 0 0 0.407843 0 0 0 0 1 0 0 0 0.06 0"/>
<feBlend mode="normal" in2="effect1_dropShadow_2446_13823" result="effect2_dropShadow_2446_13823"/>
<feColorMatrix in="SourceAlpha" type="matrix" values="0 0 0 0 0 0 0 0 0 0 0 0 0 0 0 0 0 0 127 0" result="hardAlpha"/>
<feOffset dy="26"/>
<feGaussianBlur stdDeviation="7.5"/>
<feColorMatrix type="matrix" values="0 0 0 0 0.113725 0 0 0 0 0.407843 0 0 0 0 1 0 0 0 0.03 0"/>
<feBlend mode="normal" in2="effect2_dropShadow_2446_13823" result="effect3_dropShadow_2446_13823"/>
<feColorMatrix in="SourceAlpha" type="matrix" values="0 0 0 0 0 0 0 0 0 0 0 0 0 0 0 0 0 0 127 0" result="hardAlpha"/>
<feOffset dy="46"/>
<feGaussianBlur stdDeviation="9"/>
<feColorMatrix type="matrix" values="0 0 0 0 0.113725 0 0 0 0 0.407843 0 0 0 0 1 0 0 0 0.01 0"/>
<feBlend mode="normal" in2="effect3_dropShadow_2446_13823" result="effect4_dropShadow_2446_13823"/>
<feBlend mode="normal" in="SourceGraphic" in2="effect4_dropShadow_2446_13823" result="shape"/>
</filter>
<filter id="filter6_dddd_2446_13823" x="1066" y="310" width="643" height="136" filterUnits="userSpaceOnUse" color-interpolation-filters="sRGB">
<feFlood flood-opacity="0" result="BackgroundImageFix"/>
<feColorMatrix in="SourceAlpha" type="matrix" values="0 0 0 0 0 0 0 0 0 0 0 0 0 0 0 0 0 0 127 0" result="hardAlpha"/>
<feOffset dy="3"/>
<feGaussianBlur stdDeviation="3"/>
<feColorMatrix type="matrix" values="0 0 0 0 0.113725 0 0 0 0 0.407843 0 0 0 0 1 0 0 0 0.07 0"/>
<feBlend mode="normal" in2="BackgroundImageFix" result="effect1_dropShadow_2446_13823"/>
<feColorMatrix in="SourceAlpha" type="matrix" values="0 0 0 0 0 0 0 0 0 0 0 0 0 0 0 0 0 0 127 0" result="hardAlpha"/>
<feOffset dy="11"/>
<feGaussianBlur stdDeviation="5.5"/>
<feColorMatrix type="matrix" values="0 0 0 0 0.113725 0 0 0 0 0.407843 0 0 0 0 1 0 0 0 0.06 0"/>
<feBlend mode="normal" in2="effect1_dropShadow_2446_13823" result="effect2_dropShadow_2446_13823"/>
<feColorMatrix in="SourceAlpha" type="matrix" values="0 0 0 0 0 0 0 0 0 0 0 0 0 0 0 0 0 0 127 0" result="hardAlpha"/>
<feOffset dy="26"/>
<feGaussianBlur stdDeviation="7.5"/>
<feColorMatrix type="matrix" values="0 0 0 0 0.113725 0 0 0 0 0.407843 0 0 0 0 1 0 0 0 0.03 0"/>
<feBlend mode="normal" in2="effect2_dropShadow_2446_13823" result="effect3_dropShadow_2446_13823"/>
<feColorMatrix in="SourceAlpha" type="matrix" values="0 0 0 0 0 0 0 0 0 0 0 0 0 0 0 0 0 0 127 0" result="hardAlpha"/>
<feOffset dy="46"/>
<feGaussianBlur stdDeviation="9"/>
<feColorMatrix type="matrix" values="0 0 0 0 0.113725 0 0 0 0 0.407843 0 0 0 0 1 0 0 0 0.01 0"/>
<feBlend mode="normal" in2="effect3_dropShadow_2446_13823" result="effect4_dropShadow_2446_13823"/>
<feBlend mode="normal" in="SourceGraphic" in2="effect4_dropShadow_2446_13823" result="shape"/>
</filter>
<filter id="filter7_dddd_2446_13823" x="-215" y="310" width="643" height="136" filterUnits="userSpaceOnUse" color-interpolation-filters="sRGB">
<feFlood flood-opacity="0" result="BackgroundImageFix"/>
<feColorMatrix in="SourceAlpha" type="matrix" values="0 0 0 0 0 0 0 0 0 0 0 0 0 0 0 0 0 0 127 0" result="hardAlpha"/>
<feOffset dy="3"/>
<feGaussianBlur stdDeviation="3"/>
<feColorMatrix type="matrix" values="0 0 0 0 0.113725 0 0 0 0 0.407843 0 0 0 0 1 0 0 0 0.07 0"/>
<feBlend mode="normal" in2="BackgroundImageFix" result="effect1_dropShadow_2446_13823"/>
<feColorMatrix in="SourceAlpha" type="matrix" values="0 0 0 0 0 0 0 0 0 0 0 0 0 0 0 0 0 0 127 0" result="hardAlpha"/>
<feOffset dy="11"/>
<feGaussianBlur stdDeviation="5.5"/>
<feColorMatrix type="matrix" values="0 0 0 0 0.113725 0 0 0 0 0.407843 0 0 0 0 1 0 0 0 0.06 0"/>
<feBlend mode="normal" in2="effect1_dropShadow_2446_13823" result="effect2_dropShadow_2446_13823"/>
<feColorMatrix in="SourceAlpha" type="matrix" values="0 0 0 0 0 0 0 0 0 0 0 0 0 0 0 0 0 0 127 0" result="hardAlpha"/>
<feOffset dy="26"/>
<feGaussianBlur stdDeviation="7.5"/>
<feColorMatrix type="matrix" values="0 0 0 0 0.113725 0 0 0 0 0.407843 0 0 0 0 1 0 0 0 0.03 0"/>
<feBlend mode="normal" in2="effect2_dropShadow_2446_13823" result="effect3_dropShadow_2446_13823"/>
<feColorMatrix in="SourceAlpha" type="matrix" values="0 0 0 0 0 0 0 0 0 0 0 0 0 0 0 0 0 0 127 0" result="hardAlpha"/>
<feOffset dy="46"/>
<feGaussianBlur stdDeviation="9"/>
<feColorMatrix type="matrix" values="0 0 0 0 0.113725 0 0 0 0 0.407843 0 0 0 0 1 0 0 0 0.01 0"/>
<feBlend mode="normal" in2="effect3_dropShadow_2446_13823" result="effect4_dropShadow_2446_13823"/>
<feBlend mode="normal" in="SourceGraphic" in2="effect4_dropShadow_2446_13823" result="shape"/>
</filter>
<filter id="filter8_dddd_2446_13823" x="1251" y="60" width="643" height="136" filterUnits="userSpaceOnUse" color-interpolation-filters="sRGB">
<feFlood flood-opacity="0" result="BackgroundImageFix"/>
<feColorMatrix in="SourceAlpha" type="matrix" values="0 0 0 0 0 0 0 0 0 0 0 0 0 0 0 0 0 0 127 0" result="hardAlpha"/>
<feOffset dy="3"/>
<feGaussianBlur stdDeviation="3"/>
<feColorMatrix type="matrix" values="0 0 0 0 0.113725 0 0 0 0 0.407843 0 0 0 0 1 0 0 0 0.07 0"/>
<feBlend mode="normal" in2="BackgroundImageFix" result="effect1_dropShadow_2446_13823"/>
<feColorMatrix in="SourceAlpha" type="matrix" values="0 0 0 0 0 0 0 0 0 0 0 0 0 0 0 0 0 0 127 0" result="hardAlpha"/>
<feOffset dy="11"/>
<feGaussianBlur stdDeviation="5.5"/>
<feColorMatrix type="matrix" values="0 0 0 0 0.113725 0 0 0 0 0.407843 0 0 0 0 1 0 0 0 0.06 0"/>
<feBlend mode="normal" in2="effect1_dropShadow_2446_13823" result="effect2_dropShadow_2446_13823"/>
<feColorMatrix in="SourceAlpha" type="matrix" values="0 0 0 0 0 0 0 0 0 0 0 0 0 0 0 0 0 0 127 0" result="hardAlpha"/>
<feOffset dy="26"/>
<feGaussianBlur stdDeviation="7.5"/>
<feColorMatrix type="matrix" values="0 0 0 0 0.113725 0 0 0 0 0.407843 0 0 0 0 1 0 0 0 0.03 0"/>
<feBlend mode="normal" in2="effect2_dropShadow_2446_13823" result="effect3_dropShadow_2446_13823"/>
<feColorMatrix in="SourceAlpha" type="matrix" values="0 0 0 0 0 0 0 0 0 0 0 0 0 0 0 0 0 0 127 0" result="hardAlpha"/>
<feOffset dy="46"/>
<feGaussianBlur stdDeviation="9"/>
<feColorMatrix type="matrix" values="0 0 0 0 0.113725 0 0 0 0 0.407843 0 0 0 0 1 0 0 0 0.01 0"/>
<feBlend mode="normal" in2="effect3_dropShadow_2446_13823" result="effect4_dropShadow_2446_13823"/>
<feBlend mode="normal" in="SourceGraphic" in2="effect4_dropShadow_2446_13823" result="shape"/>
</filter>
<linearGradient id="paint0_linear_2446_13823" x1="338" y1="243.5" x2="-1.35951e-05" y2="243.5" gradientUnits="userSpaceOnUse">
<stop stop-color="white" stop-opacity="0"/>
<stop offset="1" stop-color="white"/>
</linearGradient>
<linearGradient id="paint1_linear_2446_13823" x1="310" y1="243.5" x2="-28" y2="243.5" gradientUnits="userSpaceOnUse">
<stop stop-color="white" stop-opacity="0"/>
<stop offset="1" stop-color="white"/>
</linearGradient>
<clipPath id="clip0_2446_13823">
<rect width="1920" height="429" fill="white"/>
</clipPath>
</defs>
</svg>
