<svg width="82" height="94" viewBox="0 0 82 94" fill="none" xmlns="http://www.w3.org/2000/svg">
<path d="M43.235 27.751C46.8224 27.751 50.3748 28.4582 53.6891 29.8311C57.0034 31.2039 60.0148 33.2163 62.5514 35.7529C65.0881 38.2896 67.1005 41.301 68.4733 44.6152C68.95 45.7661 69.3465 46.9458 69.6608 48.1455C70.6405 51.8852 67.4183 55.0693 63.5524 55.0693H22.9176C19.0517 55.0693 15.8296 51.8852 16.8092 48.1455C17.1236 46.9458 17.5201 45.7661 17.9967 44.6152C19.3696 41.301 21.382 38.2896 23.9186 35.7529C26.4552 33.2163 29.4667 31.2039 32.7809 29.8311C36.0952 28.4582 39.6476 27.751 43.235 27.751ZM43.6686 0C51.3319 0 57.5446 6.21266 57.5446 13.876C57.5444 21.5392 51.3318 27.751 43.6686 27.751C36.0054 27.7509 29.7928 21.5391 29.7926 13.876C29.7926 6.21268 36.0053 4.07195e-05 43.6686 0Z" fill="#1D68FF"/>
<path d="M16.0273 67.5596V74.0693H18.6484V76.0459H16.0273V82.7275H13.6426V67.5596H16.0273ZM16.7148 84.6611V86.5947H3.26562V81.7178H5.65039V84.6611H16.7148ZM0.472656 78.8389C1.92285 78.8389 3.60938 78.8281 5.37109 78.7529V77.5283C3.21191 77.2705 1.84766 76.207 1.84766 74.6494C1.84766 72.7373 3.7168 71.6201 6.53125 71.6416C9.36719 71.6201 11.2148 72.7373 11.2148 74.6494C11.2148 76.1963 9.88281 77.249 7.75586 77.5283V78.6455C9.41016 78.5596 11.0752 78.4092 12.6328 78.1729L12.8262 79.8486C8.72266 80.6221 4.08203 80.665 0.730469 80.708L0.472656 78.8389ZM12.1172 69.2568V70.9971H0.966797V69.2568H5.37109V67.4951H7.75586V69.2568H12.1172ZM6.53125 73.2529C5.02734 73.2529 4.125 73.7471 4.14648 74.6494C4.125 75.4873 5.02734 75.9814 6.53125 75.9814C8.03516 75.9814 8.9375 75.4873 8.9375 74.6494C8.9375 73.7471 8.03516 73.2529 6.53125 73.2529ZM26.6191 73.0811C26.6191 76.0889 28.4023 79.5049 31.4746 80.9229L30.1426 82.8135C27.9512 81.7822 26.3291 79.6982 25.459 77.2705C24.5781 79.9346 22.8809 82.2119 20.6465 83.2861L19.25 81.417C22.3438 79.9561 24.2129 76.3037 24.2344 73.0811V71.4482H20.002V69.4717H30.6797V71.4482H26.6191V73.0811ZM34.8691 67.5596V75.1221H37.8555V77.1201H34.8691V86.9814H32.4844V67.5596H34.8691ZM54.7422 68.999V70.1592C54.7207 71.4912 54.7207 73.4033 54.2695 75.874L51.9062 75.6592C52.2822 73.6504 52.3574 72.168 52.4004 70.9756H44.8379V68.999H54.7422ZM49.8438 73.4248V77.292C51.8525 77.2168 53.915 77.0664 55.7949 76.7979L55.9238 78.5166C51.8848 79.2471 47.3086 79.3115 43.8926 79.333L43.6777 77.4209C44.8271 77.4102 46.1162 77.3994 47.4805 77.3779V73.4248H49.8438ZM59.3828 67.5596V73.6182H61.8965V75.6162H59.3828V82.1045H56.9336V67.5596H59.3828ZM60.0059 84.6611V86.5947H46.5781V80.8154H48.9844V84.6611H60.0059ZM79.084 67.5596V87.0029H76.7207V67.5596H79.084ZM73.1113 69.2568V76.54H66.4297V80.4502C69.4912 80.4287 72.1338 80.2783 75.1523 79.7627L75.3672 81.7178C72.0586 82.2979 69.1582 82.4053 65.6777 82.4053H63.9805V74.6494H70.6836V71.1904H63.959V69.2568H73.1113Z" fill="#1D68FF"/>
</svg>
