<svg width="103" height="104" viewBox="0 0 103 104" fill="none" xmlns="http://www.w3.org/2000/svg">
<g filter="url(#filter0_d_0_16)">
<path d="M47.9116 31.0324C56.8058 31.2576 63.9463 38.539 63.9463 47.4874L63.9414 47.9116C63.8469 51.645 62.5083 55.0686 60.3259 57.7856L71.2399 68.6986L71.411 68.8892C72.2126 69.872 72.156 71.3217 71.2399 72.2379C70.3238 73.154 68.874 73.2106 67.8912 72.4089L67.7006 72.2379L56.6352 61.1714C54.019 62.9237 50.8727 63.9463 47.4874 63.9463L47.0622 63.9414C38.3093 63.7197 31.254 56.6646 31.0324 47.9116L31.0275 47.4874C31.0275 38.397 38.397 31.0275 47.4874 31.0275L47.9116 31.0324ZM47.4874 36.0319C41.1609 36.0319 36.0319 41.1609 36.0319 47.4874C36.0321 53.8138 41.161 58.9419 47.4874 58.9419C53.8137 58.9417 58.9417 53.8137 58.9419 47.4874C58.9419 41.161 53.8138 36.0321 47.4874 36.0319Z" fill="#3779FF"/>
</g>
<defs>
<filter id="filter0_d_0_16" x="0" y="0" width="103" height="103.998" filterUnits="userSpaceOnUse" color-interpolation-filters="sRGB">
<feFlood flood-opacity="0" result="BackgroundImageFix"/>
<feColorMatrix in="SourceAlpha" type="matrix" values="0 0 0 0 0 0 0 0 0 0 0 0 0 0 0 0 0 0 127 0" result="hardAlpha"/>
<feMorphology radius="1" operator="dilate" in="SourceAlpha" result="effect1_dropShadow_0_16"/>
<feOffset/>
<feGaussianBlur stdDeviation="15"/>
<feComposite in2="hardAlpha" operator="out"/>
<feColorMatrix type="matrix" values="0 0 0 0 0.113782 0 0 0 0 0.409188 0 0 0 0 1 0 0 0 0.4 0"/>
<feBlend mode="normal" in2="BackgroundImageFix" result="effect1_dropShadow_0_16"/>
<feBlend mode="normal" in="SourceGraphic" in2="effect1_dropShadow_0_16" result="shape"/>
</filter>
</defs>
</svg>
