<svg width="112" height="21" viewBox="0 0 112 21" fill="none" xmlns="http://www.w3.org/2000/svg">
<path d="M0 1.32991C0 0.667167 0.537258 0.129908 1.2 0.129908H3.75682C4.24157 0.129908 4.67871 0.421555 4.86484 0.869142L10.6815 14.8565H10.9378L16.7545 0.869143C16.9406 0.421556 17.3777 0.129908 17.8625 0.129908H20.4193C21.082 0.129908 21.6193 0.667166 21.6193 1.32991V19.2C21.6193 19.8627 21.082 20.4 20.4193 20.4H19.2588C18.5961 20.4 18.0588 19.8627 18.0588 19.2V6.45731H17.8594L12.4403 19.6014C12.255 20.0508 11.817 20.344 11.3309 20.344H10.2896C9.80293 20.344 9.36444 20.05 9.17956 19.5998L3.75988 6.40132H3.58897V19.2C3.58897 19.8627 3.05172 20.4 2.38897 20.4H1.2C0.537258 20.4 0 19.8627 0 19.2V1.32991Z" fill="#1D68FF"/>
<path d="M25.0863 1.94191C24.612 1.14199 25.1886 0.129908 26.1185 0.129908H27.4993C27.9318 0.129908 28.3307 0.362554 28.5437 0.738885L33.2692 9.08906H33.4686L38.1941 0.738886C38.4071 0.362553 38.8061 0.129908 39.2385 0.129908H40.6234C41.5524 0.129908 42.1291 1.14025 41.6566 1.9402L35.2346 12.8127V19.2C35.2346 19.8627 34.6974 20.4 34.0346 20.4H32.7317C32.069 20.4 31.5317 19.8627 31.5317 19.2V12.8127L25.0863 1.94191Z" fill="#1D68FF"/>
<path d="M45.1185 1.32991C45.1185 0.667167 45.6558 0.129908 46.3185 0.129908H48.8754C49.3601 0.129908 49.7972 0.421554 49.9834 0.869142L55.8 14.8565H56.0564L61.873 0.869143C62.0591 0.421556 62.4963 0.129908 62.981 0.129908H65.5378C66.2006 0.129908 66.7378 0.667166 66.7378 1.32991V19.2C66.7378 19.8627 66.2006 20.4 65.5378 20.4H64.3773C63.7146 20.4 63.1773 19.8627 63.1773 19.2V6.45731H62.9779L57.5588 19.6014C57.3736 20.0508 56.9355 20.344 56.4494 20.344H55.4082C54.9215 20.344 54.483 20.05 54.2981 19.5998L48.8784 6.40132H48.7075V19.2C48.7075 19.8627 48.1702 20.4 47.5075 20.4H46.3185C45.6558 20.4 45.1185 19.8627 45.1185 19.2V1.32991Z" fill="#1D68FF"/>
<path d="M71.7547 20.4C71.0919 20.4 70.5547 19.8627 70.5547 19.2V1.32991C70.5547 0.667167 71.0919 0.129908 71.7547 0.129908H82.7706C83.4333 0.129908 83.9706 0.667166 83.9706 1.32991V1.98162C83.9706 2.64436 83.4333 3.18162 82.7706 3.18162H74.2576V8.7251H82.0585C82.7212 8.7251 83.2585 9.26236 83.2585 9.9251V10.5768C83.2585 11.2396 82.7212 11.7768 82.0585 11.7768H74.2576V17.3203H82.8276C83.4903 17.3203 84.0276 17.8575 84.0276 18.5203V19.2C84.0276 19.8627 83.4903 20.4 82.8276 20.4H71.7547Z" fill="#1D68FF"/>
<path d="M94.5381 20.4H88.7311C88.0683 20.4 87.5311 19.8627 87.5311 19.2V1.32991C87.5311 0.667167 88.0683 0.129908 88.7311 0.129908H94.6521C100.805 0.129908 104.536 3.93755 104.536 10.237C104.536 16.5644 100.805 20.4 94.5381 20.4ZM91.234 17.2363H94.3387C98.6398 17.2363 100.833 14.9125 100.833 10.237C100.833 5.58939 98.6398 3.29361 94.4527 3.29361H91.234V17.2363Z" fill="#1D68FF"/>
<path d="M108.841 20.4C108.178 20.4 107.641 19.8627 107.641 19.2V7.24743C107.641 6.58469 108.178 6.04743 108.841 6.04743H110.087C110.749 6.04743 111.287 6.58469 111.287 7.24743V19.2C111.287 19.8627 110.749 20.4 110.087 20.4H108.841ZM109.492 3.89163C108.353 3.89163 107.384 3.02372 107.384 1.93182C107.384 0.867918 108.353 0 109.492 0C110.66 0 111.6 0.867918 111.6 1.93182C111.6 3.02372 110.66 3.89163 109.492 3.89163Z" fill="#1D68FF"/>
</svg>
