<svg width="25" height="20" viewBox="0 0 25 20" fill="none" xmlns="http://www.w3.org/2000/svg">
<path d="M23.4188 11.744C23.8881 12.5973 24.1228 13.4933 24.1228 14.432C24.1228 16.0107 23.6108 17.312 22.5868 18.336C21.5628 19.3173 20.2828 19.808 18.7468 19.808C17.0401 19.808 15.6748 19.2533 14.6508 18.144C13.6694 16.992 13.1788 15.6267 13.1788 14.048C13.1788 11.744 13.7974 9.48266 15.0347 7.264C16.3148 5.04533 18.0854 3.31733 20.3468 2.08C22.0534 1.184 23.0988 1.03466 23.4828 1.632C23.7814 2.144 23.6534 2.592 23.0988 2.976C22.2454 3.53067 21.4561 4.256 20.7308 5.152C20.0481 6.00533 19.6641 6.77333 19.5788 7.456C19.4934 8.01066 19.5361 8.416 19.7068 8.672C19.7921 8.88533 20.1974 9.14133 20.9228 9.44C21.0081 9.48266 21.1148 9.54666 21.2428 9.632C21.4134 9.71733 21.5414 9.78133 21.6268 9.824C22.3094 10.208 22.9068 10.848 23.4188 11.744ZM8.69875 9.824C9.38142 10.208 9.97875 10.848 10.4908 11.744C10.9601 12.5973 11.1948 13.4933 11.1948 14.432C11.1948 15.968 10.6614 17.248 9.59475 18.272C8.57075 19.296 7.29075 19.808 5.75475 19.808C4.04808 19.808 2.70408 19.2533 1.72275 18.144C0.741417 16.992 0.25075 15.6267 0.25075 14.048C0.25075 11.744 0.869417 9.48266 2.10675 7.264C3.38675 5.04533 5.13608 3.31733 7.35475 2.08C9.10408 1.14133 10.1708 0.991997 10.5548 1.632C10.8534 2.144 10.7254 2.592 10.1708 2.976C9.31742 3.53067 8.52808 4.256 7.80275 5.152C7.12008 6.00533 6.73608 6.77333 6.65075 7.456C6.56542 8.01066 6.60808 8.416 6.77875 8.672C6.90675 8.88533 7.29075 9.14133 7.93075 9.44L8.69875 9.824Z" fill="#1D68FF"/>
</svg>
