<svg width="25" height="20" viewBox="0 0 25 20" fill="none" xmlns="http://www.w3.org/2000/svg">
<path d="M6.28275 0.463997C7.98942 0.463997 9.33342 1.04 10.3148 2.192C11.3388 3.30133 11.8508 4.64533 11.8508 6.224C11.8508 8.528 11.2108 10.7893 9.93075 13.008C8.69342 15.2267 6.94408 16.9547 4.68275 18.192C2.97608 19.088 1.93075 19.2373 1.54675 18.64C1.24808 18.128 1.37608 17.68 1.93075 17.296C2.78408 16.7413 3.55208 16.0373 4.23475 15.184C4.96008 14.288 5.36542 13.4987 5.45075 12.816C5.53608 12.2613 5.49342 11.856 5.32275 11.6C5.23742 11.3867 4.83208 11.1307 4.10675 10.832C4.02142 10.7893 3.89342 10.7253 3.72275 10.64C3.59475 10.5547 3.48808 10.4907 3.40275 10.448C2.72008 10.064 2.12275 9.424 1.61075 8.528C1.14142 7.67466 0.90675 6.77866 0.90675 5.84C0.90675 4.26133 1.41875 2.98133 2.44275 2C3.46675 0.975997 4.74675 0.463997 6.28275 0.463997ZM19.2748 0.463997C20.9814 0.463997 22.3254 1.04 23.3068 2.192C24.2881 3.30133 24.7788 4.64533 24.7788 6.224C24.7788 8.528 24.1388 10.7893 22.8588 13.008C21.6214 15.2267 19.8934 16.9547 17.6748 18.192C15.9254 19.1307 14.8588 19.28 14.4748 18.64C14.1761 18.128 14.3041 17.68 14.8588 17.296C15.7121 16.7413 16.4801 16.0373 17.1628 15.184C17.8881 14.288 18.2934 13.4987 18.3788 12.816C18.4641 12.2613 18.4214 11.856 18.2508 11.6C18.1228 11.3867 17.7388 11.1307 17.0988 10.832L16.3308 10.448C15.6481 10.064 15.0508 9.424 14.5388 8.528C14.0694 7.67466 13.8348 6.77866 13.8348 5.84C13.8348 4.304 14.3468 3.024 15.3708 2C16.4374 0.975997 17.7388 0.463997 19.2748 0.463997Z" fill="#1D68FF"/>
</svg>
