<svg width="556" height="557" viewBox="0 0 556 557" fill="none" xmlns="http://www.w3.org/2000/svg">
<circle cx="277.594" cy="278.5" r="277.594" fill="url(#paint0_radial_1356_14250)"/>
<circle cx="277.85" cy="278.757" r="196.341" fill="url(#paint1_linear_1356_14250)"/>
<path d="M92.7871 233.205C133.339 230.875 197.876 225.289 251.046 302.819C288.572 357.536 352.789 324.704 378.529 307.682C404.268 290.661 463.042 279.723 469.064 281.911" stroke="url(#paint2_linear_1356_14250)" stroke-width="11.25" stroke-linecap="round" stroke-linejoin="round"/>
<path d="M85.6113 242.501C130.771 238.142 195.137 226.245 249.649 291.589C288.121 337.705 319.573 328.13 331.054 320.695C342.535 313.26 401.727 270.189 473.166 267.626" stroke="url(#paint3_linear_1356_14250)" stroke-width="1.125" stroke-linecap="round" stroke-linejoin="round"/>
<circle cx="441.127" cy="262.095" r="5.56423" stroke="#82ABFD" stroke-opacity="0.5" stroke-width="1.6875"/>
<path d="M402.12 246.246C401.7 244.43 402.831 242.617 404.647 242.197L409.598 241.051C411.414 240.631 413.227 241.762 413.647 243.578L414.886 248.934L420.244 247.694C422.06 247.274 423.873 248.406 424.294 250.222L425.44 255.173C425.86 256.989 424.729 258.802 422.913 259.222L417.554 260.462L418.795 265.821C419.215 267.637 418.084 269.45 416.268 269.87L411.317 271.016C409.501 271.436 407.688 270.305 407.268 268.489L406.027 263.13L400.67 264.37C398.854 264.79 397.041 263.658 396.621 261.842L395.474 256.891C395.054 255.076 396.186 253.263 398.001 252.842L403.359 251.602L402.12 246.246Z" fill="white" fill-opacity="0.3"/>
<path d="M77.4096 278.756C77.4096 389.457 167.15 479.198 277.851 479.198C388.552 479.198 478.293 389.457 478.293 278.756C478.293 168.055 388.552 78.3145 277.851 78.3145C167.15 78.3145 77.4096 168.055 77.4096 278.756ZM474.159 278.756C474.159 387.174 386.269 475.064 277.851 475.064C169.434 475.064 81.5436 387.174 81.5436 278.756C81.5436 170.338 169.434 82.4485 277.851 82.4485C386.269 82.4485 474.159 170.338 474.159 278.756Z" fill="url(#paint4_linear_1356_14250)"/>
<path d="M81.9511 258.544C79.4022 284.202 81.9319 310.11 89.3957 334.79C96.8595 359.47 109.111 382.438 125.451 402.383C141.792 422.328 161.9 438.859 184.629 451.033C207.358 463.206 232.263 470.784 257.92 473.333C283.578 475.882 309.486 473.352 334.166 465.888C358.846 458.424 381.814 446.173 401.759 429.832C421.704 413.492 438.235 393.384 450.409 370.655C462.582 347.926 470.16 323.021 472.709 297.364C472.709 297.364 458.12 291.234 431.133 293.233C374.233 297.449 314.09 323.986 259.827 306.352C218.761 293.007 225.066 275.113 176.371 257.086C127.676 239.058 81.9511 258.544 81.9511 258.544Z" fill="url(#paint5_linear_1356_14250)" fill-opacity="0.7"/>
<path d="M474.191 278.756C474.191 304.54 469.112 330.071 459.245 353.892C449.378 377.713 434.916 399.358 416.684 417.59C398.452 435.821 376.808 450.284 352.987 460.151C329.165 470.018 303.634 475.096 277.85 475.096C252.067 475.096 226.535 470.018 202.714 460.151C178.893 450.284 157.248 435.821 139.017 417.59C120.785 399.358 106.322 377.713 96.4553 353.892C86.5883 330.071 81.5098 304.54 81.5098 278.756C81.5098 278.756 123.29 279.994 149.947 284.652C206.152 294.471 236.72 320.928 292.461 308.745C334.645 299.525 328.858 272.144 379.096 259.019C429.335 245.894 474.191 278.756 474.191 278.756Z" fill="url(#paint6_linear_1356_14250)" fill-opacity="0.6"/>
<circle cx="156.353" cy="275.681" r="2.23208" fill="#82ABFD" stroke="#82ABFD" stroke-width="1.6875"/>
<circle cx="328.601" cy="435.111" r="3.07583" fill="#82ABFD" fill-opacity="0.1"/>
<circle cx="447.534" cy="322.331" r="3.30722" stroke="#82ABFD" stroke-width="0.5625"/>
<circle cx="302.201" cy="325.662" r="5.56423" stroke="#82ABFD" stroke-width="1.6875"/>
<circle cx="135.592" cy="241.076" r="5.84548" stroke="#DBE6FF" stroke-width="1.125"/>
<circle cx="320.4" cy="332.07" r="3.72013" stroke="white" stroke-opacity="0.7" stroke-width="2.8125"/>
<circle cx="426.515" cy="309.515" r="3.72013" stroke="white" stroke-opacity="0.7" stroke-width="2.8125"/>
<path d="M447.432 278.133C447.984 276.352 449.875 275.356 451.655 275.908L454.035 276.646C455.815 277.198 456.811 279.089 456.26 280.869L455.206 284.266L458.603 285.32C460.384 285.872 461.38 287.762 460.828 289.543L460.091 291.923C459.539 293.703 457.647 294.699 455.867 294.147L452.47 293.094L451.418 296.49C450.866 298.27 448.975 299.266 447.195 298.715L444.815 297.977C443.035 297.426 442.039 295.534 442.591 293.754L443.642 290.358L440.246 289.305C438.466 288.753 437.47 286.863 438.021 285.083L438.76 282.703C439.311 280.923 441.202 279.927 442.982 280.478L446.379 281.531L447.432 278.133Z" fill="white" fill-opacity="0.3"/>
<path d="M116.729 280.691C115.86 279.042 116.493 277.001 118.142 276.132L125.037 272.499C126.686 271.63 128.728 272.263 129.596 273.913L133.108 280.578L139.774 277.067C141.423 276.198 143.464 276.831 144.332 278.48L147.965 285.376C148.834 287.025 148.201 289.066 146.553 289.935L139.887 293.446L143.398 300.11C144.266 301.759 143.634 303.8 141.985 304.669L135.088 308.302C133.439 309.17 131.398 308.538 130.529 306.889L127.019 300.225L120.355 303.736C118.706 304.605 116.664 303.972 115.795 302.322L112.163 295.427C111.294 293.778 111.927 291.737 113.576 290.868L120.24 287.357L116.729 280.691Z" fill="white" fill-opacity="0.3"/>
<rect x="353.592" y="59.9883" width="8.20222" height="20.5055" rx="3.375" transform="rotate(121.75 353.592 59.9883)" fill="#1D68FF"/>
<rect x="340.809" y="68.957" width="8.20222" height="20.5055" rx="3.375" transform="rotate(-148.25 340.809 68.957)" fill="#1D68FF"/>
<rect x="220.578" y="334.633" width="8.20222" height="20.5055" rx="3.375" transform="rotate(88.6051 220.578 334.633)" fill="#82ABFD"/>
<rect x="214.779" y="349.133" width="8.20222" height="20.5055" rx="3.375" transform="rotate(178.605 214.779 349.133)" fill="#82ABFD"/>
<rect x="379.096" y="362.562" width="5.80231" height="14.5058" rx="2.90115" transform="rotate(88.6051 379.096 362.562)" fill="#82ABFD"/>
<rect x="374.992" y="372.818" width="5.80231" height="14.5058" rx="2.90115" transform="rotate(178.605 374.992 372.818)" fill="#82ABFD"/>
<path d="M101.009 327.468C101.311 326.761 104.101 325.639 104.808 325.94C105.515 326.242 106.637 329.032 106.335 329.739C106.034 330.446 103.243 331.568 102.536 331.266C101.829 330.965 100.708 328.175 101.009 327.468Z" fill="white" fill-opacity="0.2"/>
<path d="M441.915 336.182C442.217 335.475 445.007 334.354 445.714 334.655C446.421 334.957 447.543 337.747 447.241 338.454C446.94 339.161 444.15 340.283 443.443 339.981C442.736 339.68 441.614 336.889 441.915 336.182Z" fill="white" fill-opacity="0.2"/>
<path d="M263.917 315.731C264.612 315.403 267.443 316.417 267.771 317.112C268.099 317.807 267.085 320.638 266.39 320.967C265.694 321.295 262.864 320.28 262.535 319.585C262.207 318.89 263.222 316.059 263.917 315.731Z" fill="white" fill-opacity="0.2"/>
<path d="M352.964 321.696C352.964 321.696 352.103 325.526 353.12 327.592C354.137 329.659 357.698 331.313 357.698 331.313C357.698 331.313 353.868 330.451 351.801 331.468C349.734 332.486 348.081 336.046 348.081 336.046C348.081 336.046 348.942 332.216 347.925 330.149C346.908 328.083 343.347 326.429 343.347 326.429C343.347 326.429 347.177 327.291 349.244 326.273C351.311 325.256 352.964 321.696 352.964 321.696Z" fill="white" fill-opacity="0.5"/>
<path d="M190.027 375.973C190.027 375.973 192.072 381.011 194.862 382.559C197.652 384.107 203.009 383.175 203.009 383.175C203.009 383.175 197.971 385.22 196.423 388.01C194.876 390.8 195.807 396.157 195.807 396.157C195.807 396.157 193.762 391.119 190.972 389.571C188.182 388.023 182.826 388.955 182.826 388.955C182.826 388.955 187.863 386.91 189.411 384.12C190.959 381.33 190.027 375.973 190.027 375.973Z" fill="white" fill-opacity="0.1"/>
<circle cx="162.763" cy="310.283" r="5.56423" stroke="#82ABFD" stroke-opacity="0.6" stroke-width="1.6875"/>
<g filter="url(#filter0_d_1356_14250)">
<g clip-path="url(#paint7_diamond_1356_14250_clip_path)" data-figma-skip-parse="true"><g transform="matrix(0.2829 -0.2829 -0.54125 -0.54125 277.851 278.756)"><rect x="0" y="0" width="837.36" height="437.67" fill="url(#paint7_diamond_1356_14250)" opacity="1" shape-rendering="crispEdges"/><rect x="0" y="0" width="837.36" height="437.67" transform="scale(1 -1)" fill="url(#paint7_diamond_1356_14250)" opacity="1" shape-rendering="crispEdges"/><rect x="0" y="0" width="837.36" height="437.67" transform="scale(-1 1)" fill="url(#paint7_diamond_1356_14250)" opacity="1" shape-rendering="crispEdges"/><rect x="0" y="0" width="837.36" height="437.67" transform="scale(-1)" fill="url(#paint7_diamond_1356_14250)" opacity="1" shape-rendering="crispEdges"/></g></g><path d="M277.851 47.7781C277.851 44.8243 275.456 42.4234 272.503 42.4902C215.287 43.7842 160.412 65.8071 118.139 104.566C74.551 144.531 47.5305 199.386 42.4119 258.301C37.2934 317.216 54.4488 375.908 90.4914 422.792C126.534 469.676 178.844 501.343 237.095 511.541C295.345 521.74 355.303 509.729 405.13 477.88C454.957 446.031 491.033 396.658 506.235 339.508C521.438 282.359 514.661 221.587 487.244 169.19C460.655 118.375 416.526 79.0177 363.153 58.3614C360.398 57.2953 357.33 58.7396 356.326 61.5178C355.323 64.2959 356.764 67.3556 359.518 68.4247C410.374 88.1695 452.418 125.706 477.767 174.15C503.943 224.175 510.412 282.196 495.898 336.759C481.384 391.321 446.941 438.459 399.369 468.867C351.797 499.275 294.553 510.742 238.939 501.005C183.325 491.268 133.383 461.034 98.9719 416.273C64.5608 371.511 48.1818 315.475 53.0687 259.227C57.9556 202.979 83.7531 150.607 125.368 112.451C165.668 75.5005 217.964 54.4819 272.503 53.1899C275.456 53.12 277.851 50.732 277.851 47.7781Z" data-figma-gradient-fill="{&#34;type&#34;:&#34;GRADIENT_DIAMOND&#34;,&#34;stops&#34;:[{&#34;color&#34;:{&#34;r&#34;:1.0,&#34;g&#34;:1.0,&#34;b&#34;:1.0,&#34;a&#34;:1.0},&#34;position&#34;:0.20266391336917877},{&#34;color&#34;:{&#34;r&#34;:0.11378185451030731,&#34;g&#34;:0.40918788313865662,&#34;b&#34;:1.0,&#34;a&#34;:1.0},&#34;position&#34;:0.88187831640243530}],&#34;stopsVar&#34;:[{&#34;color&#34;:{&#34;r&#34;:1.0,&#34;g&#34;:1.0,&#34;b&#34;:1.0,&#34;a&#34;:1.0},&#34;position&#34;:0.20266391336917877},{&#34;color&#34;:{&#34;r&#34;:0.11378185451030731,&#34;g&#34;:0.40918788313865662,&#34;b&#34;:1.0,&#34;a&#34;:1.0},&#34;position&#34;:0.88187831640243530}],&#34;transform&#34;:{&#34;m00&#34;:565.799316406250,&#34;m01&#34;:-1082.5002441406250,&#34;m02&#34;:536.20184326171875,&#34;m10&#34;:-565.799316406250,&#34;m11&#34;:-1082.5002441406250,&#34;m12&#34;:1102.9058837890625},&#34;opacity&#34;:1.0,&#34;blendMode&#34;:&#34;NORMAL&#34;,&#34;visible&#34;:true}"/>
</g>
<circle cx="272.469" cy="47.8125" r="4.35743" fill="#1D68FF"/>
<defs>
<filter id="filter0_d_1356_14250" x="24.0879" y="25.0508" width="507.527" height="507.471" filterUnits="userSpaceOnUse" color-interpolation-filters="sRGB">
<feFlood flood-opacity="0" result="BackgroundImageFix"/>
<feColorMatrix in="SourceAlpha" type="matrix" values="0 0 0 0 0 0 0 0 0 0 0 0 0 0 0 0 0 0 127 0" result="hardAlpha"/>
<feMorphology radius="0.5625" operator="dilate" in="SourceAlpha" result="effect1_dropShadow_1356_14250"/>
<feOffset/>
<feGaussianBlur stdDeviation="8.4375"/>
<feComposite in2="hardAlpha" operator="out"/>
<feColorMatrix type="matrix" values="0 0 0 0 0.113782 0 0 0 0 0.409188 0 0 0 0 1 0 0 0 0.4 0"/>
<feBlend mode="normal" in2="BackgroundImageFix" result="effect1_dropShadow_1356_14250"/>
<feBlend mode="normal" in="SourceGraphic" in2="effect1_dropShadow_1356_14250" result="shape"/>
</filter>
<clipPath id="paint7_diamond_1356_14250_clip_path"><path d="M277.851 47.7781C277.851 44.8243 275.456 42.4234 272.503 42.4902C215.287 43.7842 160.412 65.8071 118.139 104.566C74.551 144.531 47.5305 199.386 42.4119 258.301C37.2934 317.216 54.4488 375.908 90.4914 422.792C126.534 469.676 178.844 501.343 237.095 511.541C295.345 521.74 355.303 509.729 405.13 477.88C454.957 446.031 491.033 396.658 506.235 339.508C521.438 282.359 514.661 221.587 487.244 169.19C460.655 118.375 416.526 79.0177 363.153 58.3614C360.398 57.2953 357.33 58.7396 356.326 61.5178C355.323 64.2959 356.764 67.3556 359.518 68.4247C410.374 88.1695 452.418 125.706 477.767 174.15C503.943 224.175 510.412 282.196 495.898 336.759C481.384 391.321 446.941 438.459 399.369 468.867C351.797 499.275 294.553 510.742 238.939 501.005C183.325 491.268 133.383 461.034 98.9719 416.273C64.5608 371.511 48.1818 315.475 53.0687 259.227C57.9556 202.979 83.7531 150.607 125.368 112.451C165.668 75.5005 217.964 54.4819 272.503 53.1899C275.456 53.12 277.851 50.732 277.851 47.7781Z"/></clipPath><radialGradient id="paint0_radial_1356_14250" cx="0" cy="0" r="1" gradientUnits="userSpaceOnUse" gradientTransform="translate(277.594 278.5) rotate(90) scale(306.302)">
<stop stop-color="#1D68FF"/>
<stop offset="1" stop-color="white" stop-opacity="0"/>
</radialGradient>
<linearGradient id="paint1_linear_1356_14250" x1="277.85" y1="235.375" x2="277.85" y2="475.097" gradientUnits="userSpaceOnUse">
<stop offset="0.05" stop-color="white"/>
<stop offset="1" stop-color="#1D68FF"/>
</linearGradient>
<linearGradient id="paint2_linear_1356_14250" x1="90.2969" y1="273.387" x2="460.846" y2="273.387" gradientUnits="userSpaceOnUse">
<stop stop-color="#B3CCFF"/>
<stop offset="1" stop-color="white"/>
</linearGradient>
<linearGradient id="paint3_linear_1356_14250" x1="84.8442" y1="266.783" x2="464.741" y2="266.783" gradientUnits="userSpaceOnUse">
<stop stop-color="white"/>
<stop offset="1" stop-color="#B3CCFF"/>
</linearGradient>
<linearGradient id="paint4_linear_1356_14250" x1="276.206" y1="78.3144" x2="279.497" y2="479.198" gradientUnits="userSpaceOnUse">
<stop stop-color="#1D68FF"/>
<stop offset="0.5" stop-color="white" stop-opacity="0.5"/>
<stop offset="1" stop-color="#1D68FF"/>
</linearGradient>
<linearGradient id="paint5_linear_1356_14250" x1="214.282" y1="138.548" x2="378.327" y2="445.106" gradientUnits="userSpaceOnUse">
<stop stop-color="white"/>
<stop offset="1" stop-color="#1D68FF"/>
</linearGradient>
<linearGradient id="paint6_linear_1356_14250" x1="292.973" y1="206.987" x2="292.973" y2="491.501" gradientUnits="userSpaceOnUse">
<stop stop-color="white"/>
<stop offset="1" stop-color="#1D68FF"/>
</linearGradient>
<linearGradient id="paint7_diamond_1356_14250" x1="0" y1="0" x2="500" y2="500" gradientUnits="userSpaceOnUse">
<stop offset="0.202664" stop-color="white"/>
<stop offset="0.881878" stop-color="#1D68FF"/>
</linearGradient>
</defs>
</svg>
