<svg width="556" height="556" viewBox="0 0 556 556" fill="none" xmlns="http://www.w3.org/2000/svg">
<circle cx="277.594" cy="277.594" r="277.594" fill="url(#paint0_radial_1356_14385)"/>
<circle cx="277.85" cy="277.85" r="196.341" fill="url(#paint1_linear_1356_14385)"/>
<path d="M92.7871 232.299C133.339 229.968 197.876 224.383 251.046 301.913C288.572 356.63 352.789 323.798 378.529 306.776C404.268 289.754 463.042 278.817 469.064 281.005" stroke="url(#paint2_linear_1356_14385)" stroke-width="11.25" stroke-linecap="round" stroke-linejoin="round"/>
<path d="M85.6113 241.595C130.771 237.236 195.137 225.339 249.649 290.682C288.121 336.799 319.573 327.224 331.054 319.789C342.535 312.354 401.727 269.283 473.166 266.719" stroke="url(#paint3_linear_1356_14385)" stroke-width="1.125" stroke-linecap="round" stroke-linejoin="round"/>
<circle cx="441.127" cy="261.189" r="5.56423" stroke="#FFA171" stroke-opacity="0.5" stroke-width="1.6875"/>
<path d="M402.12 245.34C401.7 243.524 402.831 241.711 404.647 241.291L409.598 240.145C411.414 239.725 413.227 240.856 413.647 242.672L414.886 248.028L420.244 246.788C422.06 246.368 423.873 247.5 424.294 249.316L425.44 254.267C425.86 256.083 424.729 257.895 422.913 258.316L417.554 259.556L418.795 264.915C419.215 266.731 418.084 268.544 416.268 268.964L411.317 270.11C409.501 270.53 407.688 269.399 407.268 267.583L406.027 262.223L400.67 263.464C398.854 263.884 397.041 262.752 396.621 260.936L395.474 255.985C395.054 254.169 396.186 252.356 398.001 251.936L403.359 250.696L402.12 245.34Z" fill="white" fill-opacity="0.3"/>
<path d="M77.4096 277.85C77.4096 388.551 167.15 478.292 277.851 478.292C388.552 478.292 478.293 388.551 478.293 277.85C478.293 167.149 388.552 77.4082 277.851 77.4082C167.15 77.4082 77.4096 167.149 77.4096 277.85ZM474.159 277.85C474.159 386.268 386.269 474.158 277.851 474.158C169.434 474.158 81.5436 386.268 81.5436 277.85C81.5436 169.432 169.434 81.5422 277.851 81.5422C386.269 81.5422 474.159 169.432 474.159 277.85Z" fill="url(#paint4_linear_1356_14385)"/>
<path d="M81.9511 257.638C79.4022 283.295 81.9319 309.204 89.3957 333.884C96.8595 358.564 109.111 381.532 125.451 401.477C141.792 421.422 161.9 437.953 184.629 450.126C207.358 462.3 232.263 469.878 257.92 472.427C283.578 474.975 309.486 472.446 334.166 464.982C358.846 457.518 381.814 445.266 401.759 428.926C421.704 412.586 438.235 392.477 450.409 369.748C462.582 347.019 470.16 322.115 472.709 296.457C472.709 296.457 458.12 290.328 431.133 292.327C374.233 296.542 314.09 323.079 259.827 305.446C218.761 292.1 225.066 274.207 176.371 256.179C127.676 238.152 81.9511 257.638 81.9511 257.638Z" fill="url(#paint5_linear_1356_14385)" fill-opacity="0.7"/>
<path d="M474.191 277.85C474.191 303.633 469.112 329.165 459.245 352.986C449.378 376.807 434.916 398.451 416.684 416.683C398.452 434.915 376.808 449.378 352.987 459.245C329.165 469.112 303.634 474.19 277.85 474.19C252.067 474.19 226.535 469.112 202.714 459.245C178.893 449.377 157.248 434.915 139.017 416.683C120.785 398.451 106.322 376.807 96.4553 352.986C86.5883 329.165 81.5098 303.633 81.5098 277.85C81.5098 277.85 123.29 279.088 149.947 283.745C206.152 293.565 236.72 320.022 292.461 307.839C334.645 298.619 328.858 271.238 379.096 258.113C429.335 244.988 474.191 277.85 474.191 277.85Z" fill="url(#paint6_linear_1356_14385)" fill-opacity="0.6"/>
<circle cx="156.353" cy="274.775" r="2.23208" fill="#FFA171" stroke="#FFA171" stroke-width="1.6875"/>
<circle cx="328.601" cy="434.205" r="3.07583" fill="#FFA171" fill-opacity="0.1"/>
<circle cx="447.534" cy="321.424" r="3.30722" stroke="#FFA171" stroke-width="0.5625"/>
<circle cx="302.201" cy="324.756" r="5.56423" stroke="#FFA171" stroke-width="1.6875"/>
<circle cx="135.592" cy="240.17" r="5.84548" stroke="#FFD3BC" stroke-width="1.125"/>
<circle cx="320.4" cy="331.163" r="3.72013" stroke="white" stroke-opacity="0.7" stroke-width="2.8125"/>
<circle cx="426.515" cy="308.609" r="3.72013" stroke="white" stroke-opacity="0.7" stroke-width="2.8125"/>
<path d="M447.432 277.226C447.984 275.446 449.875 274.45 451.655 275.002L454.035 275.74C455.815 276.292 456.811 278.182 456.26 279.963L455.206 283.36L458.603 284.414C460.384 284.966 461.38 286.856 460.828 288.637L460.091 291.016C459.539 292.797 457.647 293.793 455.867 293.241L452.47 292.187L451.418 295.584C450.866 297.364 448.975 298.36 447.195 297.808L444.815 297.071C443.035 296.519 442.039 294.628 442.591 292.847L443.642 289.452L440.246 288.399C438.466 287.847 437.47 285.957 438.021 284.177L438.76 281.797C439.311 280.016 441.202 279.02 442.982 279.572L446.379 280.625L447.432 277.226Z" fill="white" fill-opacity="0.3"/>
<path d="M116.729 279.785C115.86 278.135 116.493 276.094 118.142 275.226L125.037 271.593C126.686 270.724 128.728 271.357 129.596 273.006L133.108 279.672L139.774 276.161C141.423 275.292 143.464 275.925 144.332 277.573L147.965 284.47C148.834 286.119 148.201 288.16 146.553 289.029L139.887 292.54L143.398 299.204C144.266 300.853 143.634 302.894 141.985 303.763L135.088 307.396C133.439 308.264 131.398 307.631 130.529 305.983L127.019 299.319L120.355 302.83C118.706 303.698 116.664 303.065 115.795 301.416L112.163 294.521C111.294 292.872 111.927 290.83 113.576 289.962L120.24 286.451L116.729 279.785Z" fill="white" fill-opacity="0.3"/>
<rect x="183.395" y="483.547" width="8.20222" height="20.5055" rx="3.375" transform="rotate(121.75 183.395 483.547)" fill="#FF732D"/>
<rect x="170.611" y="492.516" width="8.20222" height="20.5055" rx="3.375" transform="rotate(-148.25 170.611 492.516)" fill="#FF732D"/>
<rect x="220.578" y="333.727" width="8.20222" height="20.5055" rx="3.375" transform="rotate(88.6051 220.578 333.727)" fill="#FFA171"/>
<rect x="214.779" y="348.227" width="8.20222" height="20.5055" rx="3.375" transform="rotate(178.605 214.779 348.227)" fill="#FFA171"/>
<rect x="379.094" y="361.66" width="5.80231" height="14.5058" rx="2.90115" transform="rotate(88.6051 379.094 361.66)" fill="#FFA171"/>
<rect x="374.99" y="371.916" width="5.80231" height="14.5058" rx="2.90115" transform="rotate(178.605 374.99 371.916)" fill="#FFA171"/>
<path d="M101.009 326.561C101.311 325.854 104.101 324.732 104.808 325.034C105.515 325.336 106.637 328.126 106.335 328.833C106.034 329.54 103.243 330.662 102.536 330.36C101.829 330.058 100.708 327.268 101.009 326.561Z" fill="white" fill-opacity="0.2"/>
<path d="M441.915 335.276C442.217 334.569 445.007 333.447 445.714 333.749C446.421 334.05 447.543 336.841 447.241 337.548C446.94 338.255 444.15 339.376 443.443 339.075C442.736 338.773 441.614 335.983 441.915 335.276Z" fill="white" fill-opacity="0.2"/>
<path d="M263.917 314.825C264.612 314.496 267.443 315.511 267.771 316.206C268.099 316.901 267.085 319.732 266.39 320.06C265.694 320.388 262.864 319.374 262.535 318.679C262.207 317.984 263.222 315.153 263.917 314.825Z" fill="white" fill-opacity="0.2"/>
<path d="M352.964 320.789C352.964 320.789 352.103 324.619 353.12 326.686C354.137 328.753 357.698 330.406 357.698 330.406C357.698 330.406 353.868 329.545 351.801 330.562C349.734 331.579 348.081 335.14 348.081 335.14C348.081 335.14 348.942 331.31 347.925 329.243C346.908 327.176 343.347 325.523 343.347 325.523C343.347 325.523 347.177 326.385 349.244 325.367C351.311 324.35 352.964 320.789 352.964 320.789Z" fill="white" fill-opacity="0.5"/>
<path d="M190.027 375.067C190.027 375.067 192.072 380.105 194.862 381.652C197.652 383.2 203.009 382.269 203.009 382.269C203.009 382.269 197.971 384.314 196.423 387.104C194.876 389.894 195.807 395.25 195.807 395.25C195.807 395.25 193.762 390.213 190.972 388.665C188.182 387.117 182.826 388.049 182.826 388.049C182.826 388.049 187.863 386.004 189.411 383.214C190.959 380.424 190.027 375.067 190.027 375.067Z" fill="white" fill-opacity="0.1"/>
<circle cx="162.763" cy="309.377" r="5.56423" stroke="#FFA171" stroke-opacity="0.6" stroke-width="1.6875"/>
<g filter="url(#filter0_d_1356_14385)">
<g clip-path="url(#paint7_diamond_1356_14385_clip_path)" data-figma-skip-parse="true"><g transform="matrix(0.2829 -0.2829 -0.54125 -0.54125 277.851 277.85)"><rect x="0" y="0" width="837.36" height="437.67" fill="url(#paint7_diamond_1356_14385)" opacity="1" shape-rendering="crispEdges"/><rect x="0" y="0" width="837.36" height="437.67" transform="scale(1 -1)" fill="url(#paint7_diamond_1356_14385)" opacity="1" shape-rendering="crispEdges"/><rect x="0" y="0" width="837.36" height="437.67" transform="scale(-1 1)" fill="url(#paint7_diamond_1356_14385)" opacity="1" shape-rendering="crispEdges"/><rect x="0" y="0" width="837.36" height="437.67" transform="scale(-1)" fill="url(#paint7_diamond_1356_14385)" opacity="1" shape-rendering="crispEdges"/></g></g><path d="M277.851 46.8719C277.851 43.918 275.456 41.5171 272.503 41.5839C222.86 42.7072 174.779 59.4442 135.129 89.4869C94.057 120.607 64.282 164.3 50.3395 213.908C36.3971 263.517 39.0516 316.324 57.8986 364.284C76.0928 410.584 108.415 449.918 150.204 476.738C152.69 478.333 155.986 477.532 157.525 475.01C159.063 472.489 158.263 469.203 155.778 467.604C115.979 442.001 85.1955 404.501 67.8543 360.372C49.8604 314.582 47.3261 264.166 60.6375 216.803C73.9488 169.439 102.376 127.725 141.59 98.0128C179.38 69.3788 225.193 53.405 272.503 52.2837C275.456 52.2137 277.851 49.8258 277.851 46.8719Z" data-figma-gradient-fill="{&#34;type&#34;:&#34;GRADIENT_DIAMOND&#34;,&#34;stops&#34;:[{&#34;color&#34;:{&#34;r&#34;:1.0,&#34;g&#34;:1.0,&#34;b&#34;:1.0,&#34;a&#34;:1.0},&#34;position&#34;:0.20266391336917877},{&#34;color&#34;:{&#34;r&#34;:1.0,&#34;g&#34;:0.45098039507865906,&#34;b&#34;:0.17647059261798859,&#34;a&#34;:1.0},&#34;position&#34;:0.88187831640243530}],&#34;stopsVar&#34;:[{&#34;color&#34;:{&#34;r&#34;:1.0,&#34;g&#34;:1.0,&#34;b&#34;:1.0,&#34;a&#34;:1.0},&#34;position&#34;:0.20266391336917877},{&#34;color&#34;:{&#34;r&#34;:1.0,&#34;g&#34;:0.45098039507865906,&#34;b&#34;:0.17647059261798859,&#34;a&#34;:1.0},&#34;position&#34;:0.88187831640243530}],&#34;transform&#34;:{&#34;m00&#34;:565.799316406250,&#34;m01&#34;:-1082.5002441406250,&#34;m02&#34;:536.20184326171875,&#34;m10&#34;:-565.799316406250,&#34;m11&#34;:-1082.5002441406250,&#34;m12&#34;:1101.9996337890625},&#34;opacity&#34;:1.0,&#34;blendMode&#34;:&#34;NORMAL&#34;,&#34;visible&#34;:true}"/>
</g>
<circle cx="272.469" cy="46.9063" r="4.35743" fill="#FF732D"/>
<defs>
<filter id="filter0_d_1356_14385" x="24.0879" y="24.1445" width="271.201" height="470.854" filterUnits="userSpaceOnUse" color-interpolation-filters="sRGB">
<feFlood flood-opacity="0" result="BackgroundImageFix"/>
<feColorMatrix in="SourceAlpha" type="matrix" values="0 0 0 0 0 0 0 0 0 0 0 0 0 0 0 0 0 0 127 0" result="hardAlpha"/>
<feMorphology radius="0.5625" operator="dilate" in="SourceAlpha" result="effect1_dropShadow_1356_14385"/>
<feOffset/>
<feGaussianBlur stdDeviation="8.4375"/>
<feComposite in2="hardAlpha" operator="out"/>
<feColorMatrix type="matrix" values="0 0 0 0 1 0 0 0 0 0.45098 0 0 0 0 0.176471 0 0 0 0.4 0"/>
<feBlend mode="normal" in2="BackgroundImageFix" result="effect1_dropShadow_1356_14385"/>
<feBlend mode="normal" in="SourceGraphic" in2="effect1_dropShadow_1356_14385" result="shape"/>
</filter>
<clipPath id="paint7_diamond_1356_14385_clip_path"><path d="M277.851 46.8719C277.851 43.918 275.456 41.5171 272.503 41.5839C222.86 42.7072 174.779 59.4442 135.129 89.4869C94.057 120.607 64.282 164.3 50.3395 213.908C36.3971 263.517 39.0516 316.324 57.8986 364.284C76.0928 410.584 108.415 449.918 150.204 476.738C152.69 478.333 155.986 477.532 157.525 475.01C159.063 472.489 158.263 469.203 155.778 467.604C115.979 442.001 85.1955 404.501 67.8543 360.372C49.8604 314.582 47.3261 264.166 60.6375 216.803C73.9488 169.439 102.376 127.725 141.59 98.0128C179.38 69.3788 225.193 53.405 272.503 52.2837C275.456 52.2137 277.851 49.8258 277.851 46.8719Z"/></clipPath><radialGradient id="paint0_radial_1356_14385" cx="0" cy="0" r="1" gradientUnits="userSpaceOnUse" gradientTransform="translate(277.594 277.594) rotate(90) scale(306.302)">
<stop stop-color="#FF732D"/>
<stop offset="1" stop-color="white" stop-opacity="0"/>
</radialGradient>
<linearGradient id="paint1_linear_1356_14385" x1="277.969" y1="231.094" x2="277.85" y2="474.191" gradientUnits="userSpaceOnUse">
<stop offset="0.1" stop-color="white"/>
<stop offset="1" stop-color="#FF732D"/>
</linearGradient>
<linearGradient id="paint2_linear_1356_14385" x1="90.2969" y1="272.481" x2="460.846" y2="272.481" gradientUnits="userSpaceOnUse">
<stop stop-color="#FFA171"/>
<stop offset="1" stop-color="white"/>
</linearGradient>
<linearGradient id="paint3_linear_1356_14385" x1="84.8442" y1="265.876" x2="464.741" y2="265.876" gradientUnits="userSpaceOnUse">
<stop stop-color="white"/>
<stop offset="1" stop-color="#FFA171"/>
</linearGradient>
<linearGradient id="paint4_linear_1356_14385" x1="276.206" y1="77.4082" x2="279.497" y2="478.292" gradientUnits="userSpaceOnUse">
<stop stop-color="#FF732D"/>
<stop offset="0.5" stop-color="white" stop-opacity="0.5"/>
<stop offset="1" stop-color="#FF732D"/>
</linearGradient>
<linearGradient id="paint5_linear_1356_14385" x1="214.282" y1="137.642" x2="378.327" y2="444.2" gradientUnits="userSpaceOnUse">
<stop stop-color="white"/>
<stop offset="1" stop-color="#FF732D"/>
</linearGradient>
<linearGradient id="paint6_linear_1356_14385" x1="292.973" y1="206.081" x2="292.973" y2="490.595" gradientUnits="userSpaceOnUse">
<stop stop-color="white"/>
<stop offset="1" stop-color="#FF732D"/>
</linearGradient>
<linearGradient id="paint7_diamond_1356_14385" x1="0" y1="0" x2="500" y2="500" gradientUnits="userSpaceOnUse">
<stop offset="0.202664" stop-color="white"/>
<stop offset="0.881878" stop-color="#FF732D"/>
</linearGradient>
</defs>
</svg>
