<svg width="21" height="19" viewBox="0 0 21 19" fill="none" xmlns="http://www.w3.org/2000/svg">
<path d="M14.8301 12.4834C15.7033 12.5277 16.4766 12.9458 16.998 13.5791C17.1103 13.5523 17.2272 13.5371 17.3477 13.5371H19.3838C20.2122 13.5371 20.8838 14.2087 20.8838 15.0371C20.8838 15.8655 20.2122 16.5371 19.3838 16.5371H17.4961C17.0704 17.6822 15.9689 18.4987 14.6758 18.499L14.5205 18.4951C13.2947 18.4329 12.2641 17.6362 11.8555 16.5371H2.11523C1.28681 16.5371 0.615234 15.8655 0.615234 15.0371C0.615255 14.2087 1.28682 13.5371 2.11523 13.5371H12.0586C12.1615 13.5371 12.2623 13.5466 12.3594 13.5664C12.9115 12.9022 13.7447 12.4795 14.6758 12.4795L14.8301 12.4834ZM14.6758 14.2793C14.1721 14.2793 13.7397 14.5875 13.5576 15.0254C13.5576 15.0293 13.5586 15.0332 13.5586 15.0371C13.5586 15.215 13.5246 15.3847 13.4678 15.543C13.496 16.1859 14.0259 16.6982 14.6758 16.6982C15.3434 16.6978 15.8846 16.1569 15.8848 15.4893C15.8847 14.8215 15.3434 14.2797 14.6758 14.2793ZM7.50195 0.503906C8.72713 0.565973 9.75672 1.36188 10.166 2.45996H19.3848L19.5381 2.46777C20.2944 2.54469 20.8857 3.1834 20.8857 3.95996C20.8857 4.73637 20.2951 5.37501 19.5391 5.45215L19.3857 5.45996H9.86426C9.79169 5.45996 9.7202 5.45234 9.65039 5.44238C9.09829 6.09955 8.2729 6.51939 7.34766 6.51953L7.19238 6.51562C6.32491 6.47161 5.55439 6.05994 5.0332 5.43359C4.99361 5.44091 4.95371 5.44801 4.91309 5.45215L4.75977 5.45996H2.11523C1.28681 5.45996 0.615234 4.78839 0.615234 3.95996C0.615255 3.13155 1.28682 2.45996 2.11523 2.45996H4.5293C4.95569 1.31602 6.05521 0.5 7.34766 0.5L7.50195 0.503906ZM7.34766 2.2998C6.72219 2.2998 6.2066 2.77493 6.14355 3.38379C6.21753 3.56128 6.25976 3.75566 6.25977 3.95996C6.25977 3.98354 6.25694 4.00696 6.25586 4.03027C6.45066 4.43737 6.86622 4.71875 7.34766 4.71875C7.78284 4.71858 8.16216 4.48752 8.375 4.14258C8.36774 4.08273 8.36426 4.02177 8.36426 3.95996C8.36426 3.71092 8.42482 3.47624 8.53223 3.26953C8.42086 2.71672 7.93316 2.30003 7.34766 2.2998Z" fill="#9DA0A3"/>
</svg>
