<svg width="93" height="95" viewBox="0 0 93 95" fill="none" xmlns="http://www.w3.org/2000/svg">
<path d="M46.7344 48C52.8408 48 58.8877 49.2032 64.5293 51.54C70.1706 53.8768 75.2966 57.3015 79.6143 61.6191C83.9322 65.937 87.3575 71.0635 89.6944 76.7051C91.36 80.7262 92.45 84.9531 92.9385 89.2607C93.2652 92.1417 90.8838 94.4999 87.9844 94.5H5.4844C2.58491 94.5 0.203627 92.1418 0.530299 89.2607C1.01876 84.9531 2.10788 80.7262 3.77346 76.7051C6.11031 71.0634 9.53562 65.9371 13.8535 61.6191C18.1714 57.3013 23.2979 53.8769 28.9395 51.54C34.5811 49.2032 40.6279 48 46.7344 48ZM47.1094 0.75C60.157 0.750119 70.7344 11.3273 70.7344 24.375C70.7344 37.4227 60.157 47.9999 47.1094 48C34.0617 48 23.4844 37.4227 23.4844 24.375C23.4844 11.3273 34.0617 0.75 47.1094 0.75Z" fill="white" fill-opacity="0.8"/>
</svg>
