<svg width="85" height="54" viewBox="0 0 85 54" fill="none" xmlns="http://www.w3.org/2000/svg">
<path d="M28.1039 35.3489C32.8195 32.7291 38.1407 31.4601 43.4828 31.6799C48.825 31.8999 53.982 33.6007 58.3881 36.596C62.7943 39.5912 66.2791 43.765 68.4604 48.6594L57.0981 53.9456C55.8487 51.1423 53.8522 48.7509 51.3285 47.0354C48.8049 45.32 45.8511 44.3459 42.7914 44.22C39.7319 44.0941 36.6845 44.8212 33.9838 46.3215C31.283 47.822 29.0328 50.038 27.4809 52.7258L16.7504 46.5305C19.46 41.8375 23.3884 37.9686 28.1039 35.3489ZM3.26505 0.768806L3.41935 0.786385L28.5356 4.32447C30.1756 4.55586 31.3179 6.07302 31.0873 7.71314C30.8562 9.35357 29.339 10.4966 27.6986 10.2659L19.8422 9.15845C23.1956 11.2864 25.4231 15.0296 25.4233 19.2952C25.4233 25.9225 20.0505 31.295 13.4233 31.2952C6.79584 31.2952 1.42326 25.9226 1.42326 19.2952C1.4234 13.8396 5.06478 9.23738 10.0492 7.77955L2.58146 6.72779L2.43009 6.7024C0.871431 6.40194 -0.194212 4.92769 0.0297035 3.33814C0.253952 1.74932 1.68466 0.627512 3.26505 0.768806ZM81.3959 0.0656814C82.9762 -0.0754364 84.4071 1.0462 84.6313 2.63502C84.8552 4.22445 83.7894 5.69866 82.2309 5.99928L82.0795 6.02467L75.0229 7.01783C80.1116 8.40841 83.8529 13.0623 83.8529 18.592C83.8529 25.2194 78.4802 30.5919 71.8529 30.592C65.2255 30.592 59.8529 25.2195 59.8529 18.592C59.853 14.2535 62.1552 10.4527 65.6049 8.34498L56.9623 9.56275C55.3218 9.79361 53.8047 8.65053 53.5737 7.01002C53.3429 5.36973 54.4852 3.85262 56.1254 3.62135L81.2416 0.0832595L81.3959 0.0656814Z" fill="#FF732D"/>
</svg>
