<svg width="64" height="42" viewBox="0 0 64 42" fill="none" xmlns="http://www.w3.org/2000/svg">
<path d="M32.6121 24.5101C36.6186 24.6751 40.4863 25.9503 43.7908 28.1966C47.0954 30.4431 49.7095 33.5736 51.3455 37.2445L42.823 41.2093C41.886 39.1069 40.3886 37.3134 38.4959 36.0267C36.6032 34.7402 34.3882 34.0099 32.0935 33.9154C29.7987 33.8209 27.5127 34.3662 25.4871 35.4916C23.4616 36.6169 21.774 38.2785 20.6101 40.2943L12.5623 35.6478C14.5945 32.128 17.5412 29.2269 21.0779 27.2621C24.6146 25.2972 28.6054 24.3452 32.6121 24.5101ZM2.56325 1.3402L21.4011 3.99352C22.6313 4.16708 23.4884 5.30527 23.3152 6.53551C23.1417 7.76573 22.0035 8.62272 20.7732 8.44957L14.8816 7.6195C17.3965 9.21546 19.067 12.022 19.0672 15.2211C19.0672 20.1916 15.0377 24.2211 10.0672 24.2211C5.09677 24.2209 1.06716 20.1915 1.06716 15.2211C1.06733 11.1292 3.79926 7.67751 7.53786 6.58434L1.9363 5.79528C0.70591 5.62195 -0.150913 4.48464 0.0222381 3.25426C0.195666 2.02399 1.33295 1.16706 2.56325 1.3402ZM60.9314 0.812855C62.1617 0.639841 63.2991 1.49666 63.4724 2.72692C63.6456 3.95722 62.7886 5.09451 61.5584 5.26793L56.2654 6.01305C60.0829 7.0553 62.8893 10.5458 62.8894 14.6937C62.8894 19.6643 58.86 23.6937 53.8894 23.6937C48.919 23.6935 44.8894 19.6641 44.8894 14.6937C44.8896 11.4392 46.6178 8.58877 49.2058 7.00817L42.7215 7.92223C41.4911 8.09548 40.353 7.23844 40.1795 6.00817C40.0062 4.77783 40.8632 3.63966 42.0935 3.46618L60.9314 0.812855Z" fill="#FF732D"/>
</svg>
