<svg width="87" height="60" viewBox="0 0 87 60" fill="none" xmlns="http://www.w3.org/2000/svg">
<path d="M18 36.6768C11.6487 36.6768 6.5 31.528 6.5 25.1768C6.5 18.8255 11.6487 13.6768 18 13.6768C24.3513 13.6768 29.5 18.8255 29.5 25.1768C29.5 31.528 24.3513 36.6768 18 36.6768Z" fill="#ED5151" stroke="#ED5151"/>
<path d="M3 13.1729L26.5204 3.67877" stroke="#ED5151" stroke-width="6" stroke-linecap="round"/>
<path d="M69 36.665C75.3513 36.665 80.5 31.5163 80.5 25.165C80.5 18.8138 75.3513 13.665 69 13.665C62.6487 13.665 57.5 18.8138 57.5 25.165C57.5 31.5163 62.6487 36.665 69 36.665Z" fill="#ED5151" stroke="#ED5151"/>
<path d="M84 13.1621L60.4796 3.66802" stroke="#ED5151" stroke-width="6" stroke-linecap="round"/>
<path d="M33.9321 48.4181C33.7222 46.1822 32.6327 44.1212 30.9032 42.6886C29.1737 41.2559 26.946 40.569 24.71 40.7789C22.4741 40.9888 20.4131 42.0783 18.9804 43.8078C17.5478 45.5373 16.8609 47.765 17.0708 50.001L21.9309 49.5447C21.842 48.5978 22.1329 47.6543 22.7396 46.9218C23.3464 46.1893 24.2193 45.7279 25.1663 45.639C26.1133 45.5501 27.0568 45.841 27.7892 46.4477C28.5217 47.0545 28.9832 47.9274 29.0721 48.8744L33.9321 48.4181Z" fill="#ED5151"/>
<path d="M45.8796 47.297C45.9835 48.4042 45.8684 49.5209 45.5407 50.5836C45.213 51.6462 44.6793 52.6339 43.9699 53.4902C43.2605 54.3466 42.3895 55.0548 41.4064 55.5745C40.4233 56.0942 39.3475 56.4152 38.2403 56.5191C37.1332 56.6231 36.0164 56.5079 34.9538 56.1803C33.8912 55.8526 32.9035 55.3188 32.0471 54.6095C31.1908 53.9001 30.4825 53.029 29.9628 52.0459C29.4431 51.0628 29.1222 49.987 29.0182 48.8799L34.0735 48.4053C34.1151 48.8486 34.2436 49.2793 34.4517 49.6729C34.6597 50.0665 34.9433 50.4153 35.2862 50.6993C35.629 50.9833 36.0245 51.197 36.4499 51.3282C36.8754 51.4594 37.3225 51.5055 37.7658 51.4639C38.209 51.4223 38.6398 51.2938 39.0334 51.0857C39.427 50.8776 39.7757 50.5941 40.0598 50.2512C40.3438 49.9083 40.5575 49.5129 40.6887 49.0874C40.8199 48.662 40.866 48.2149 40.8243 47.7716L45.8796 47.297Z" fill="#ED5151"/>
<path d="M57.9175 47.1388C57.7076 44.9029 56.6181 42.8419 54.8886 41.4093C53.1592 39.9766 50.9314 39.2897 48.6954 39.4996C46.4595 39.7095 44.3985 40.799 42.9659 42.5285C41.5332 44.258 40.8463 46.4857 41.0562 48.7217L45.8215 48.2743C45.7302 47.3022 46.0289 46.3337 46.6517 45.5818C47.2746 44.8298 48.1707 44.3561 49.1428 44.2649C50.1149 44.1736 51.0835 44.4723 51.8354 45.0951C52.5873 45.718 53.061 46.6141 53.1523 47.5862L57.9175 47.1388Z" fill="#ED5151"/>
<path d="M69.8388 45.048C69.9427 46.1552 69.8276 47.2719 69.4999 48.3345C69.1723 49.3972 68.6385 50.3849 67.9291 51.2412C67.2198 52.0976 66.3487 52.8058 65.3656 53.3255C64.3825 53.8452 63.3067 54.1662 62.1996 54.2701C61.0924 54.3741 59.9757 54.2589 58.913 53.9312C57.8504 53.6036 56.8627 53.0698 56.0064 52.3605C55.15 51.6511 54.4418 50.78 53.9221 49.7969C53.4024 48.8138 53.0814 47.738 52.9775 46.6309L57.7721 46.1808C57.817 46.6583 57.9554 47.1222 58.1795 47.5462C58.4037 47.9702 58.7091 48.3459 59.0784 48.6518C59.4478 48.9578 59.8738 49.188 60.332 49.3293C60.7903 49.4706 61.272 49.5203 61.7495 49.4754C62.2269 49.4306 62.6909 49.2922 63.1149 49.0681C63.5389 48.8439 63.9146 48.5385 64.2205 48.1691C64.5265 47.7998 64.7567 47.3738 64.898 46.9155C65.0393 46.4572 65.089 45.9756 65.0441 45.4981L69.8388 45.048Z" fill="#ED5151"/>
</svg>
