<svg width="66" height="46" viewBox="0 0 66 46" fill="none" xmlns="http://www.w3.org/2000/svg">
<path d="M14.25 28.0078C9.48654 28.0078 5.625 24.1463 5.625 19.3828C5.625 14.6194 9.48654 10.7578 14.25 10.7578C19.0135 10.7578 22.875 14.6194 22.875 19.3828C22.875 24.1463 19.0135 28.0078 14.25 28.0078Z" fill="#ED5151" stroke="#ED5151" stroke-width="0.75"/>
<path d="M3 10.3802L20.6403 3.25969" stroke="#ED5151" stroke-width="4.5" stroke-linecap="round"/>
<path d="M52.5 27.9994C57.2635 27.9994 61.125 24.1378 61.125 19.3744C61.125 14.6109 57.2635 10.7494 52.5 10.7494C47.7365 10.7494 43.875 14.6109 43.875 19.3744C43.875 24.1378 47.7365 27.9994 52.5 27.9994Z" fill="#ED5151" stroke="#ED5151" stroke-width="0.75"/>
<path d="M63.75 10.3718L46.1097 3.25126" stroke="#ED5151" stroke-width="4.5" stroke-linecap="round"/>
<path d="M26.1986 36.8146C26.0411 35.1376 25.224 33.5919 23.9269 32.5174C22.6298 31.4429 20.959 30.9277 19.282 31.0851C17.605 31.2426 16.0593 32.0597 14.9848 33.3568C13.9103 34.6539 13.3951 36.3248 13.5526 38.0017L17.1976 37.6595C17.1309 36.9493 17.3491 36.2417 17.8042 35.6923C18.2593 35.143 18.9139 34.7969 19.6242 34.7302C20.3344 34.6635 21.042 34.8817 21.5914 35.3368C22.1408 35.7919 22.4868 36.4465 22.5535 37.1568L26.1986 36.8146Z" fill="#ED5151"/>
<path d="M35.1595 35.9734C35.2375 36.8037 35.1511 37.6413 34.9053 38.4383C34.6596 39.2353 34.2593 39.976 33.7273 40.6183C33.1952 41.2605 32.5419 41.7917 31.8046 42.1815C31.0673 42.5713 30.2604 42.812 29.4301 42.89C28.5997 42.9679 27.7621 42.8816 26.9652 42.6358C26.1682 42.3901 25.4274 41.9897 24.7852 41.4577C24.1429 40.9257 23.6117 40.2724 23.2219 39.5351C22.8322 38.7977 22.5914 37.9909 22.5135 37.1605L26.3049 36.8046C26.3361 37.1371 26.4325 37.4601 26.5886 37.7553C26.7446 38.0505 26.9573 38.3121 27.2144 38.5251C27.4716 38.7381 27.7682 38.8984 28.0873 38.9968C28.4064 39.0952 28.7417 39.1297 29.0741 39.0985C29.4066 39.0673 29.7296 38.9709 30.0249 38.8149C30.3201 38.6588 30.5816 38.4462 30.7946 38.189C31.0076 37.9319 31.1679 37.6353 31.2663 37.3162C31.3647 36.9971 31.3993 36.6618 31.3681 36.3293L35.1595 35.9734Z" fill="#ED5151"/>
<path d="M44.1868 35.8549C44.0294 34.1779 43.2123 32.6322 41.9152 31.5577C40.6181 30.4832 38.9472 29.968 37.2703 30.1254C35.5933 30.2828 34.0476 31.1 32.9731 32.3971C31.8986 33.6942 31.3834 35.365 31.5408 37.042L35.1148 36.7065C35.0464 35.9774 35.2703 35.251 35.7375 34.687C36.2046 34.1231 36.8767 33.7678 37.6058 33.6994C38.3349 33.6309 39.0613 33.8549 39.6252 34.3221C40.1892 34.7892 40.5444 35.4613 40.6129 36.1904L44.1868 35.8549Z" fill="#ED5151"/>
<path d="M53.1283 34.2865C53.2062 35.1169 53.1198 35.9544 52.8741 36.7514C52.6283 37.5484 52.228 38.2891 51.696 38.9314C51.164 39.5737 50.5107 40.1048 49.7733 40.4946C49.036 40.8844 48.2292 41.1251 47.3988 41.2031C46.5685 41.281 45.7309 41.1947 44.9339 40.9489C44.137 40.7032 43.3962 40.3029 42.7539 39.7708C42.1117 39.2388 41.5805 38.5855 41.1907 37.8482C40.8009 37.1109 40.5602 36.304 40.4822 35.4736L44.0782 35.1361C44.1119 35.4942 44.2157 35.8422 44.3838 36.1602C44.5519 36.4781 44.781 36.7599 45.058 36.9894C45.335 37.2188 45.6545 37.3915 45.9982 37.4975C46.3419 37.6034 46.7031 37.6407 47.0612 37.6071C47.4194 37.5735 47.7673 37.4696 48.0853 37.3015C48.4033 37.1334 48.6851 36.9043 48.9145 36.6273C49.144 36.3503 49.3166 36.0309 49.4226 35.6871C49.5286 35.3434 49.5659 34.9822 49.5322 34.6241L53.1283 34.2865Z" fill="#ED5151"/>
</svg>
