<svg width="63" height="52" viewBox="0 0 63 52" fill="none" xmlns="http://www.w3.org/2000/svg">
<mask id="path-1-inside-1_1356_14891" fill="white">
<path d="M36.999 44.9531C36.999 48.681 33.9769 51.7031 30.249 51.7031C26.5211 51.7031 23.499 48.681 23.499 44.9531C23.499 41.2252 26.5211 38.2031 30.249 38.2031C33.9769 38.2031 36.999 41.2252 36.999 44.9531ZM26.8317 44.9531C26.8317 46.8405 28.3617 48.3705 30.249 48.3705C32.1364 48.3705 33.6664 46.8405 33.6664 44.9531C33.6664 43.0658 32.1364 41.5358 30.249 41.5358C28.3617 41.5358 26.8317 43.0658 26.8317 44.9531Z"/>
</mask>
<path d="M36.999 44.9531C36.999 48.681 33.9769 51.7031 30.249 51.7031C26.5211 51.7031 23.499 48.681 23.499 44.9531C23.499 41.2252 26.5211 38.2031 30.249 38.2031C33.9769 38.2031 36.999 41.2252 36.999 44.9531ZM26.8317 44.9531C26.8317 46.8405 28.3617 48.3705 30.249 48.3705C32.1364 48.3705 33.6664 46.8405 33.6664 44.9531C33.6664 43.0658 32.1364 41.5358 30.249 41.5358C28.3617 41.5358 26.8317 43.0658 26.8317 44.9531Z" fill="#FFCC00" stroke="#FFCC00" stroke-width="1.5" mask="url(#path-1-inside-1_1356_14891)"/>
<path d="M50.0723 33.427C45.3088 33.427 41.4473 29.5655 41.4473 24.802C41.4473 20.0385 45.3088 16.177 50.0723 16.177C54.8357 16.177 58.6973 20.0385 58.6973 24.802C58.6973 29.5655 54.8357 33.427 50.0723 33.427Z" fill="#FFCC00" stroke="#FFCC00" stroke-width="0.75"/>
<path d="M41.0713 8.30213C41.0713 8.30213 46.5176 2.1152 51.0668 2.30098C55.3298 2.47506 60.1963 8.30213 60.1963 8.30213" stroke="#FFCC00" stroke-width="4.5" stroke-linecap="round"/>
<path d="M9.99609 33.4219C5.23264 33.4219 1.37109 29.5603 1.37109 24.7969C1.3711 20.0334 5.23264 16.1719 9.9961 16.1719C14.7596 16.1719 18.6211 20.0334 18.6211 24.7969C18.6211 29.5603 14.7596 33.4219 9.99609 33.4219Z" fill="#FFCC00" stroke="#FFCC00" stroke-width="0.75"/>
<path d="M2.87207 8.62354L21.2471 13.5469" stroke="#FFCC00" stroke-width="4.5" stroke-linecap="round"/>
</svg>
