<svg width="83" height="69" viewBox="0 0 83 69" fill="none" xmlns="http://www.w3.org/2000/svg">
<mask id="path-1-inside-1_536_1074" fill="white">
<path d="M49 59.9375C49 64.9081 44.9706 68.9375 40 68.9375C35.0294 68.9375 31 64.9081 31 59.9375C31 54.9669 35.0294 50.9375 40 50.9375C44.9706 50.9375 49 54.9669 49 59.9375ZM35.4435 59.9375C35.4435 62.454 37.4835 64.494 40 64.494C42.5165 64.494 44.5565 62.454 44.5565 59.9375C44.5565 57.421 42.5165 55.381 40 55.381C37.4835 55.381 35.4435 57.421 35.4435 59.9375Z"/>
</mask>
<path d="M49 59.9375C49 64.9081 44.9706 68.9375 40 68.9375C35.0294 68.9375 31 64.9081 31 59.9375C31 54.9669 35.0294 50.9375 40 50.9375C44.9706 50.9375 49 54.9669 49 59.9375ZM35.4435 59.9375C35.4435 62.454 37.4835 64.494 40 64.494C42.5165 64.494 44.5565 62.454 44.5565 59.9375C44.5565 57.421 42.5165 55.381 40 55.381C37.4835 55.381 35.4435 57.421 35.4435 59.9375Z" fill="#FFCC00" stroke="#FFCC00" stroke-width="2" mask="url(#path-1-inside-1_536_1074)"/>
<path d="M66.4297 44.5693C60.0784 44.5693 54.9297 39.4206 54.9297 33.0693C54.9297 26.7181 60.0784 21.5693 66.4297 21.5693C72.781 21.5693 77.9297 26.7181 77.9297 33.0693C77.9297 39.4206 72.781 44.5693 66.4297 44.5693Z" fill="#FFCC00" stroke="#FFCC00"/>
<path d="M54.4297 11.0695C54.4297 11.0695 61.6914 2.82027 67.757 3.06797C73.4411 3.30008 79.9297 11.0695 79.9297 11.0695" stroke="#FFCC00" stroke-width="6" stroke-linecap="round"/>
<path d="M13 44.5625C6.64872 44.5625 1.5 39.4138 1.5 33.0625C1.5 26.7112 6.64873 21.5625 13 21.5625C19.3513 21.5625 24.5 26.7112 24.5 33.0625C24.5 39.4138 19.3513 44.5625 13 44.5625Z" fill="#FFCC00" stroke="#FFCC00"/>
<path d="M3.49994 11.498L28 18.0625" stroke="#FFCC00" stroke-width="6" stroke-linecap="round"/>
</svg>
