<svg width="58" height="50" viewBox="0 0 58 50" fill="none" xmlns="http://www.w3.org/2000/svg">
<path d="M53.25 25C53.25 28.201 52.6195 31.3706 51.3946 34.3279C50.1696 37.2852 48.3742 39.9723 46.1107 42.2357C43.8473 44.4992 41.1602 46.2946 38.2029 47.5196C35.2456 48.7445 32.076 49.375 28.875 49.375C25.674 49.375 22.5044 48.7445 19.5471 47.5196C16.5898 46.2946 13.9027 44.4992 11.6393 42.2357C9.37584 39.9723 7.58039 37.2852 6.35544 34.3279C5.13048 31.3706 4.5 28.201 4.5 25H14.9143C14.9143 26.8333 15.2754 28.6487 15.977 30.3425C16.6786 32.0363 17.7069 33.5753 19.0033 34.8717C20.2997 36.1681 21.8387 37.1964 23.5325 37.898C25.2263 38.5996 27.0417 38.9607 28.875 38.9607C30.7083 38.9607 32.5237 38.5996 34.2175 37.898C35.9113 37.1964 37.4503 36.1681 38.7467 34.8717C40.0431 33.5753 41.0714 32.0363 41.773 30.3425C42.4746 28.6487 42.8357 26.8333 42.8357 25H53.25Z" fill="#A1F68E"/>
<path d="M35.9334 16C34.3133 16 32.9656 14.6688 33.346 13.094C33.4965 12.471 33.6956 11.8592 33.942 11.2643C34.5639 9.76289 35.4754 8.39868 36.6246 7.24956C37.7737 6.10043 39.1379 5.18889 40.6393 4.56699C42.1407 3.94509 43.7499 3.625 45.375 3.625C47.0001 3.625 48.6093 3.94509 50.1107 4.56699C51.6121 5.1889 52.9763 6.10043 54.1254 7.24956C55.2746 8.39868 56.1861 9.76289 56.808 11.2643C57.0544 11.8592 57.2535 12.471 57.404 13.094C57.7844 14.6688 56.4367 16 54.8166 16L54.4391 16C53.0276 16 51.928 14.8135 51.3879 13.5094C51.0608 12.7198 50.5814 12.0023 49.9771 11.3979C49.3727 10.7936 48.6552 10.3142 47.8656 9.98712C47.076 9.66005 46.2297 9.49171 45.375 9.49171C44.5203 9.49171 43.674 9.66005 42.8844 9.98712C42.0948 10.3142 41.3773 10.7936 40.7729 11.3979C40.1686 12.0023 39.6892 12.7198 39.3621 13.5094C38.822 14.8135 37.7224 16 36.3109 16L35.9334 16Z" fill="#A1F68E"/>
<path d="M2.93335 16C1.31331 16 -0.034394 14.6688 0.346034 13.094C0.496545 12.471 0.695575 11.8592 0.941989 11.2643C1.56389 9.76289 2.47543 8.39868 3.62455 7.24956C4.77368 6.10043 6.13789 5.18889 7.63929 4.56699C9.1407 3.94509 10.7499 3.625 12.375 3.625C14.0001 3.625 15.6093 3.94509 17.1107 4.56699C18.6121 5.1889 19.9763 6.10043 21.1254 7.24956C22.2746 8.39868 23.1861 9.76289 23.808 11.2643C24.0544 11.8592 24.2535 12.471 24.404 13.094C24.7844 14.6688 23.4367 16 21.8166 16L21.4391 16C20.0276 16 18.928 14.8135 18.3879 13.5094C18.0608 12.7198 17.5814 12.0023 16.9771 11.3979C16.3727 10.7936 15.6552 10.3142 14.8656 9.98712C14.076 9.66005 13.2297 9.49171 12.375 9.49171C11.5203 9.49171 10.674 9.66005 9.88438 9.98712C9.09476 10.3142 8.37729 10.7936 7.77294 11.3979C7.16859 12.0023 6.68919 12.7198 6.36212 13.5094C5.82195 14.8135 4.72244 16 3.31092 16L2.93335 16Z" fill="#A1F68E"/>
</svg>
