<svg width="77" height="66" viewBox="0 0 77 66" fill="none" xmlns="http://www.w3.org/2000/svg">
<path d="M71 33C71 37.268 70.1594 41.4941 68.5261 45.4372C66.8928 49.3803 64.4989 52.9631 61.481 55.981C58.4631 58.9989 54.8803 61.3928 50.9372 63.0261C46.9941 64.6594 42.768 65.5 38.5 65.5C34.232 65.5 30.0059 64.6594 26.0628 63.0261C22.1197 61.3928 18.5369 58.9989 15.519 55.981C12.5011 52.9631 10.1072 49.3803 8.47391 45.4372C6.84064 41.4941 6 37.268 6 33L19.8858 33C19.8858 35.4445 20.3672 37.865 21.3027 40.1234C22.2381 42.3817 23.6092 44.4338 25.3377 46.1623C27.0662 47.8908 29.1183 49.2619 31.3766 50.1973C33.635 51.1328 36.0555 51.6142 38.5 51.6142C40.9445 51.6142 43.365 51.1328 45.6234 50.1973C47.8817 49.2619 49.9338 47.8908 51.6623 46.1623C53.3908 44.4338 54.7619 42.3817 55.6973 40.1234C56.6328 37.865 57.1142 35.4445 57.1142 33H71Z" fill="#A1F68E"/>
<path d="M47.9111 21C45.7511 21 43.9541 19.225 44.4614 17.1254C44.6621 16.2947 44.9274 15.4789 45.256 14.6857C46.0852 12.6839 47.3006 10.8649 48.8327 9.33274C50.3649 7.80057 52.1839 6.58519 54.1857 5.75599C56.1876 4.92679 58.3332 4.5 60.5 4.5C62.6668 4.5 64.8124 4.92679 66.8143 5.75599C68.8162 6.58519 70.6351 7.80057 72.1673 9.33274C73.6994 10.8649 74.9148 12.6839 75.744 14.6857C76.0726 15.4789 76.3379 16.2947 76.5386 17.1254C77.0459 19.225 75.2489 21 73.0889 21L72.5854 21C70.7034 21 69.2374 19.4179 68.5172 17.6792C68.0811 16.6263 67.4419 15.6697 66.6361 14.8639C65.8303 14.0581 64.8737 13.4189 63.8208 12.9828C62.768 12.5467 61.6396 12.3223 60.5 12.3223C59.3604 12.3223 58.232 12.5467 57.1792 12.9828C56.1263 13.4189 55.1697 14.0581 54.3639 14.8639C53.5581 15.6697 52.9189 16.6263 52.4828 17.6792C51.7626 19.4179 50.2966 21 48.4146 21L47.9111 21Z" fill="#A1F68E"/>
<path d="M3.91113 21C1.75107 21 -0.0458549 19.225 0.461382 17.1254C0.662062 16.2947 0.927435 15.4789 1.25599 14.6857C2.08519 12.6839 3.30057 10.8649 4.83274 9.33274C6.36491 7.80057 8.18385 6.58519 10.1857 5.75599C12.1876 4.92679 14.3332 4.5 16.5 4.5C18.6668 4.5 20.8124 4.92679 22.8143 5.75599C24.8162 6.58519 26.6351 7.80057 28.1673 9.33274C29.6994 10.8649 30.9148 12.6839 31.744 14.6857C32.0726 15.4789 32.3379 16.2947 32.5386 17.1254C33.0459 19.225 31.2489 21 29.0889 21L28.5854 21C26.7034 21 25.2374 19.4179 24.5172 17.6792C24.0811 16.6263 23.4419 15.6697 22.6361 14.8639C21.8303 14.0581 20.8737 13.4189 19.8208 12.9828C18.768 12.5467 17.6396 12.3223 16.5 12.3223C15.3604 12.3223 14.232 12.5467 13.1792 12.9828C12.1263 13.4189 11.1697 14.0581 10.3639 14.8639C9.55812 15.6697 8.91892 16.6263 8.48282 17.6792C7.7626 19.4179 6.29659 21 4.41456 21L3.91113 21Z" fill="#A1F68E"/>
</svg>
