<svg width="61" height="50" viewBox="0 0 61 50" fill="none" xmlns="http://www.w3.org/2000/svg">
<path d="M56.3525 25C56.3525 28.201 55.7025 31.3706 54.4396 34.3279C53.1767 37.2852 51.3256 39.9723 48.992 42.2357C46.6584 44.4992 43.8881 46.2946 40.8391 47.5196C37.7902 48.7445 34.5223 49.375 31.2222 49.375C27.922 49.375 24.6541 48.7445 21.6052 47.5196C18.5562 46.2946 15.7859 44.4992 13.4523 42.2357C11.1187 39.9723 9.26765 37.2852 8.00473 34.3279C6.74181 31.3706 6.0918 28.201 6.0918 25H16.8288C16.8288 26.8333 17.2011 28.6487 17.9245 30.3425C18.6478 32.0363 19.708 33.5753 21.0445 34.8717C22.3811 36.1681 23.9678 37.1964 25.7141 37.898C27.4604 38.5996 29.332 38.9607 31.2222 38.9607C33.1123 38.9607 34.984 38.5996 36.7302 37.898C38.4765 37.1964 40.0632 36.1681 41.3998 34.8717C42.7363 33.5753 43.7965 32.0363 44.5198 30.3425C45.2432 28.6487 45.6155 26.8333 45.6155 25H56.3525Z" fill="#1D68FF"/>
<path d="M3 3.20386L22.2683 10.3285C23.6164 10.827 23.5592 12.7531 22.1839 13.1707L3 18.9965" stroke="#1D68FF" stroke-width="4.5" stroke-linecap="round"/>
<path d="M38.2573 16C36.587 16 35.196 14.6253 35.6116 13.0076C35.7641 12.4144 35.9619 11.8316 36.2042 11.2643C36.8454 9.76289 37.7852 8.39868 38.9699 7.24956C40.1546 6.10043 41.5611 5.18889 43.109 4.56699C44.657 3.94509 46.316 3.625 47.9915 3.625C49.667 3.625 51.326 3.94509 52.874 4.56699C54.4219 5.1889 55.8284 6.10043 57.0131 7.24956C58.1979 8.39868 59.1376 9.76289 59.7788 11.2643C60.0211 11.8316 60.219 12.4144 60.3714 13.0076C60.787 14.6253 59.396 16 57.7257 16L57.2613 16C55.8475 16 54.7459 14.8095 54.1907 13.5094C53.8535 12.7198 53.3593 12.0023 52.7362 11.3979C52.1131 10.7936 51.3734 10.3142 50.5593 9.98712C49.7452 9.66005 48.8727 9.49171 47.9915 9.49171C47.1103 9.49171 46.2378 9.66005 45.4237 9.98712C44.6096 10.3142 43.8699 10.7936 43.2468 11.3979C42.6238 12.0023 42.1295 12.7198 41.7923 13.5094C41.2371 14.8095 40.1355 16 38.7217 16L38.2573 16Z" fill="#1D68FF"/>
</svg>
