<svg width="80" height="66" viewBox="0 0 80 66" fill="none" xmlns="http://www.w3.org/2000/svg">
<path d="M74.1383 33C74.1383 37.268 73.2716 41.4941 71.5877 45.4372C69.9038 49.3803 67.4357 52.9631 64.3242 55.981C61.2128 58.9989 57.519 61.3928 53.4537 63.0261C49.3885 64.6594 45.0313 65.5 40.6311 65.5C36.2309 65.5 31.8738 64.6594 27.8085 63.0261C23.7432 61.3928 20.0494 58.9989 16.938 55.981C13.8266 52.9631 11.3584 49.3803 9.67454 45.4372C7.99065 41.4941 7.12396 37.268 7.12396 33L21.44 33C21.44 35.4445 21.9364 37.865 22.9009 40.1234C23.8653 42.3817 25.2789 44.4338 27.061 46.1623C28.843 47.8908 30.9586 49.2619 33.287 50.1973C35.6154 51.1328 38.1109 51.6142 40.6311 51.6142C43.1513 51.6142 45.6469 51.1328 47.9752 50.1973C50.3036 49.2619 52.4192 47.8908 54.2013 46.1623C55.9833 44.4338 57.3969 42.3817 58.3614 40.1234C59.3258 37.865 59.8222 35.4445 59.8222 33H74.1383Z" fill="#1D68FF"/>
<path d="M3 3.93848L28.691 13.438C30.4885 14.1027 30.4123 16.6707 28.5785 17.2276L3 24.9954" stroke="#1D68FF" stroke-width="6" stroke-linecap="round"/>
<path d="M50.0097 21C47.7827 21 45.928 19.167 46.4822 17.0101C46.6854 16.2192 46.9492 15.4422 47.2723 14.6857C48.1272 12.6839 49.3802 10.8649 50.9599 9.33274C52.5395 7.80057 54.4148 6.58519 56.4787 5.75599C58.5426 4.92679 60.7547 4.5 62.9887 4.5C65.2226 4.5 67.4347 4.92679 69.4986 5.75599C71.5625 6.58519 73.4379 7.80057 75.0175 9.33274C76.5971 10.8649 77.8502 12.6839 78.7051 14.6857C79.0281 15.4422 79.2919 16.2192 79.4952 17.0101C80.0493 19.167 78.1947 21 75.9677 21L75.3484 21C73.4634 21 71.9946 19.4127 71.2543 17.6792C70.8047 16.6263 70.1457 15.6697 69.3149 14.8639C68.4841 14.0581 67.4979 13.4189 66.4124 12.9828C65.327 12.5467 64.1636 12.3223 62.9887 12.3223C61.8138 12.3223 60.6504 12.5467 59.5649 12.9828C58.4795 13.4189 57.4932 14.0581 56.6624 14.8639C55.8317 15.6697 55.1727 16.6263 54.7231 17.6792C53.9828 19.4127 52.514 21 50.629 21L50.0097 21Z" fill="#1D68FF"/>
</svg>
