<svg width="37" height="28" viewBox="0 0 37 28" fill="none" xmlns="http://www.w3.org/2000/svg">
<rect width="23.1639" height="18.7211" rx="1.8" transform="matrix(0.967842 0.251559 -0.266258 0.963902 13.7812 0.526367)" fill="#C5C8CB"/>
<path d="M20.0866 6.83125L3.83772 8.66107C2.49162 8.81266 1.52707 9.99406 1.68335 11.2998L3.19244 23.9092C3.34871 25.215 4.56663 26.1506 5.91273 25.999L22.1616 24.1692C23.5077 24.0176 24.4722 22.8362 24.316 21.5305L22.8069 8.92104C22.6506 7.6153 21.4327 6.67966 20.0866 6.83125Z" fill="#EDF0F3" stroke="#C5C8CB" stroke-width="2" stroke-linejoin="round"/>
<path d="M16.7815 13.5934C17.6789 13.4923 18.3219 12.7047 18.2177 11.8342C18.1135 10.9637 17.3016 10.34 16.4042 10.441C15.5068 10.5421 14.8638 11.3297 14.9679 12.2002C15.0721 13.0707 15.8841 13.6945 16.7815 13.5934Z" fill="#EDF0F3" stroke="#C5C8CB" stroke-width="2" stroke-miterlimit="10"/>
<path d="M15.91 20.071L10.7731 16.1323C10.4461 15.8812 10.0327 15.7607 9.61722 15.7954C9.20175 15.8301 8.81564 16.0175 8.5378 16.3191L3.00649 22.3333M12.415 25.2673L17.9508 18.4869C18.2039 18.1762 18.5676 17.9686 18.9704 17.9048C19.3733 17.8409 19.7862 17.9255 20.128 18.1419L24.2243 20.7426" fill="#EDF0F3"/>
<path d="M15.91 20.071L10.7731 16.1323C10.4461 15.8812 10.0327 15.7607 9.61722 15.7954C9.20175 15.8301 8.81564 16.0175 8.5378 16.3191L3.00649 22.3333M12.415 25.2673L17.9508 18.4869C18.2039 18.1762 18.5676 17.9686 18.9704 17.9048C19.3733 17.8409 19.7862 17.9255 20.128 18.1419L24.2243 20.7426" stroke="#C5C8CB" stroke-width="2" stroke-linecap="round" stroke-linejoin="round"/>
</svg>
