<svg width="36" height="27" viewBox="0 0 36 27" fill="none" xmlns="http://www.w3.org/2000/svg">
<rect x="0.210475" y="0.364638" width="22.5639" height="18.1211" rx="1.5" transform="matrix(0.967842 0.251559 -0.266258 0.963902 13.185 0.286754)" fill="#82ABFD" stroke="#82ABFD" stroke-width="0.6"/>
<path d="M19.3861 6.63191L3.13722 8.46173C1.79112 8.61332 0.826574 9.79472 0.982846 11.1005L2.49194 23.7099C2.64821 25.0156 3.86613 25.9513 5.21223 25.7997L21.4611 23.9699C22.8072 23.8183 23.7717 22.6369 23.6155 21.3311L22.1064 8.7217C21.9501 7.41595 20.7322 6.48032 19.3861 6.63191Z" fill="#DBE6FF" stroke="#82ABFD" stroke-width="1.8" stroke-linejoin="round"/>
<path d="M16.0802 13.3933C16.9776 13.2923 17.6206 12.5047 17.5164 11.6342C17.4122 10.7637 16.6003 10.1399 15.7029 10.241C14.8055 10.342 14.1625 11.1296 14.2666 12.0001C14.3708 12.8706 15.1828 13.4944 16.0802 13.3933Z" fill="#DBE6FF" stroke="#82ABFD" stroke-width="1.8" stroke-miterlimit="10"/>
<path d="M15.2095 19.8717L10.0726 15.933C9.74565 15.6819 9.33219 15.5614 8.91672 15.5961C8.50125 15.6309 8.11514 15.8182 7.8373 16.1198L2.30599 22.134M11.7145 25.0681L17.2503 18.2876C17.5034 17.977 17.8671 17.7693 18.2699 17.7055C18.6728 17.6417 19.0857 17.7262 19.4275 17.9426L23.5238 20.5433" fill="#DBE6FF"/>
<path d="M15.2095 19.8717L10.0726 15.933C9.74565 15.6819 9.33219 15.5614 8.91672 15.5961C8.50125 15.6309 8.11514 15.8182 7.8373 16.1198L2.30599 22.134M11.7145 25.0681L17.2503 18.2876C17.5034 17.977 17.8671 17.7693 18.2699 17.7055C18.6728 17.6417 19.0857 17.7262 19.4275 17.9426L23.5238 20.5433" stroke="#82ABFD" stroke-width="1.8" stroke-linecap="round" stroke-linejoin="round"/>
</svg>
