<svg width="158" height="160" viewBox="0 0 158 160" fill="none" xmlns="http://www.w3.org/2000/svg">
<g clip-path="url(#clip0_3946_17247)">
<g filter="url(#filter0_n_3946_17247)">
<circle cx="79.3347" cy="79.3347" r="79.3347" fill="#1D68FF"/>
</g>
<g filter="url(#filter1_g_3946_17247)">
<path d="M39.165 81.3435C39.165 57.6796 58.3485 38.4961 82.0125 38.4961H100.758C111.111 38.4961 119.504 46.8889 119.504 57.2419V101.428C119.504 111.781 111.111 120.174 100.758 120.174H57.9108C47.5578 120.174 39.165 111.781 39.165 101.428V81.3435Z" fill="white"/>
</g>
<g filter="url(#filter2_g_3946_17247)">
<path d="M97.2507 89.6274C97.2507 91.7705 96.8155 93.8925 95.97 95.8724C95.1245 97.8523 93.8852 99.6513 92.3229 101.167C90.7606 102.682 88.9059 103.884 86.8646 104.704C84.8234 105.524 82.6356 105.946 80.4261 105.946C78.2167 105.946 76.0289 105.524 73.9876 104.704C71.9464 103.884 70.0917 102.682 68.5294 101.167C66.9671 99.6513 65.7278 97.8523 64.8823 95.8724C64.0367 93.8925 63.6016 91.7705 63.6016 89.6274L70.7899 89.6274C70.7899 90.8549 71.0392 92.0702 71.5234 93.2042C72.0077 94.3382 72.7175 95.3686 73.6123 96.2365C74.5071 97.1044 75.5694 97.7928 76.7385 98.2625C77.9076 98.7323 79.1607 98.974 80.4261 98.974C81.6916 98.974 82.9446 98.7323 84.1137 98.2625C85.2829 97.7928 86.3451 97.1044 87.24 96.2365C88.1348 95.3686 88.8446 94.3382 89.3288 93.2042C89.8131 92.0702 90.0623 90.8549 90.0623 89.6274H97.2507Z" fill="#1D68FF"/>
</g>
<g filter="url(#filter3_g_3946_17247)">
<path d="M52.8896 70.6289L65.7896 75.3988C66.6921 75.7326 66.6539 77.022 65.7331 77.3016L52.8896 81.202" stroke="#1D68FF" stroke-width="3.01271" stroke-linecap="round"/>
</g>
<g filter="url(#filter4_g_3946_17247)">
<path d="M93.745 78.9143C92.6268 78.9143 91.6955 77.9939 91.9738 76.9108C92.0758 76.5137 92.2083 76.1236 92.3705 75.7437C92.7998 74.7386 93.4289 73.8252 94.2221 73.0559C95.0153 72.2866 95.9569 71.6763 96.9932 71.26C98.0296 70.8436 99.1403 70.6293 100.262 70.6293C101.384 70.6293 102.494 70.8436 103.531 71.26C104.567 71.6763 105.509 72.2866 106.302 73.0559C107.095 73.8252 107.724 74.7386 108.154 75.7437C108.316 76.1236 108.448 76.5137 108.55 76.9108C108.828 77.9939 107.897 78.9143 106.779 78.9143L106.468 78.9143C105.522 78.9143 104.784 78.1172 104.412 77.2468C104.187 76.7182 103.856 76.2378 103.439 75.8332C103.021 75.4286 102.526 75.1077 101.981 74.8887C101.436 74.6697 100.852 74.557 100.262 74.557C99.6721 74.557 99.0879 74.6697 98.5429 74.8887C97.9979 75.1077 97.5026 75.4286 97.0855 75.8332C96.6683 76.2378 96.3374 76.7182 96.1117 77.2468C95.74 78.1172 95.0025 78.9143 94.056 78.9143L93.745 78.9143Z" fill="#1D68FF"/>
</g>
</g>
<rect x="0.334746" y="0.334746" width="157.331" height="158.669" rx="78.6653" stroke="#1D68FF" stroke-width="0.669492"/>
<defs>
<filter id="filter0_n_3946_17247" x="0" y="0" width="158.67" height="158.668" filterUnits="userSpaceOnUse" color-interpolation-filters="sRGB">
<feFlood flood-opacity="0" result="BackgroundImageFix"/>
<feBlend mode="normal" in="SourceGraphic" in2="BackgroundImageFix" result="shape"/>
<feTurbulence type="fractalNoise" baseFrequency="1.4936708211898804 1.4936708211898804" stitchTiles="stitch" numOctaves="3" result="noise" seed="7881" />
<feColorMatrix in="noise" type="luminanceToAlpha" result="alphaNoise" />
<feComponentTransfer in="alphaNoise" result="coloredNoise1">
<feFuncA type="discrete" tableValues="1 1 1 1 1 1 1 1 1 1 1 1 1 1 1 1 1 1 1 1 1 1 1 1 1 1 1 1 1 1 1 1 1 1 1 1 1 1 1 1 1 1 1 1 1 1 1 1 1 1 1 0 0 0 0 0 0 0 0 0 0 0 0 0 0 0 0 0 0 0 0 0 0 0 0 0 0 0 0 0 0 0 0 0 0 0 0 0 0 0 0 0 0 0 0 0 0 0 0 0 "/>
</feComponentTransfer>
<feComposite operator="in" in2="shape" in="coloredNoise1" result="noise1Clipped" />
<feFlood flood-color="rgba(255, 255, 255, 0.25)" result="color1Flood" />
<feComposite operator="in" in2="noise1Clipped" in="color1Flood" result="color1" />
<feMerge result="effect1_noise_3946_17247">
<feMergeNode in="shape" />
<feMergeNode in="color1" />
</feMerge>
</filter>
<filter id="filter1_g_3946_17247" x="33.8091" y="33.1402" width="91.0507" height="92.3916" filterUnits="userSpaceOnUse" color-interpolation-filters="sRGB">
<feFlood flood-opacity="0" result="BackgroundImageFix"/>
<feBlend mode="normal" in="SourceGraphic" in2="BackgroundImageFix" result="shape"/>
<feTurbulence type="fractalNoise" baseFrequency="3.7341773509979248 3.7341773509979248" numOctaves="3" seed="2022" />
<feDisplacementMap in="shape" scale="10.711864471435547" xChannelSelector="R" yChannelSelector="G" result="displacedImage" width="100%" height="100%" />
<feMerge result="effect1_texture_3946_17247">
<feMergeNode in="displacedImage"/>
</feMerge>
</filter>
<filter id="filter2_g_3946_17247" x="60.9236" y="86.9509" width="39.0053" height="21.6723" filterUnits="userSpaceOnUse" color-interpolation-filters="sRGB">
<feFlood flood-opacity="0" result="BackgroundImageFix"/>
<feBlend mode="normal" in="SourceGraphic" in2="BackgroundImageFix" result="shape"/>
<feTurbulence type="fractalNoise" baseFrequency="3.7341773509979248 3.7341773509979248" numOctaves="3" seed="6352" />
<feDisplacementMap in="shape" scale="5.3559322357177734" xChannelSelector="R" yChannelSelector="G" result="displacedImage" width="100%" height="100%" />
<feMerge result="effect1_texture_3946_17247">
<feMergeNode in="displacedImage"/>
</feMerge>
</filter>
<filter id="filter3_g_3946_17247" x="48.7048" y="66.4431" width="21.9253" height="18.9419" filterUnits="userSpaceOnUse" color-interpolation-filters="sRGB">
<feFlood flood-opacity="0" result="BackgroundImageFix"/>
<feBlend mode="normal" in="SourceGraphic" in2="BackgroundImageFix" result="shape"/>
<feTurbulence type="fractalNoise" baseFrequency="3.7341773509979248 3.7341773509979248" numOctaves="3" seed="6352" />
<feDisplacementMap in="shape" scale="5.3559322357177734" xChannelSelector="R" yChannelSelector="G" result="displacedImage" width="100%" height="100%" />
<feMerge result="effect1_texture_3946_17247">
<feMergeNode in="displacedImage"/>
</feMerge>
</filter>
<filter id="filter4_g_3946_17247" x="89.2459" y="67.9509" width="22.0317" height="13.6411" filterUnits="userSpaceOnUse" color-interpolation-filters="sRGB">
<feFlood flood-opacity="0" result="BackgroundImageFix"/>
<feBlend mode="normal" in="SourceGraphic" in2="BackgroundImageFix" result="shape"/>
<feTurbulence type="fractalNoise" baseFrequency="3.7341773509979248 3.7341773509979248" numOctaves="3" seed="6352" />
<feDisplacementMap in="shape" scale="5.3559322357177734" xChannelSelector="R" yChannelSelector="G" result="displacedImage" width="100%" height="100%" />
<feMerge result="effect1_texture_3946_17247">
<feMergeNode in="displacedImage"/>
</feMerge>
</filter>
<clipPath id="clip0_3946_17247">
<rect width="158" height="159.339" rx="79" fill="white"/>
</clipPath>
</defs>
</svg>
