<svg width="118" height="119" viewBox="0 0 118 119" fill="none" xmlns="http://www.w3.org/2000/svg">
<g clip-path="url(#clip0_3946_16873)">
<g filter="url(#filter0_g_3946_16873)">
<circle cx="59.25" cy="59.25" r="59.25" fill="url(#paint0_linear_3946_16873)"/>
</g>
<g filter="url(#filter1_g_3946_16873)">
<circle cx="60.575" cy="40.825" r="18.825" fill="url(#paint1_radial_3946_16873)"/>
</g>
<g filter="url(#filter2_g_3946_16873)">
<path d="M90.45 96.5C93.9294 96.5 96.804 93.6597 96.2222 90.2293C94.9299 82.6103 91.3033 75.5203 85.7665 69.9835C78.7339 62.9509 69.1956 59 59.25 59C49.3044 59 39.7661 62.9509 32.7335 69.9835C27.1967 75.5203 23.5701 82.6102 22.2778 90.2293C21.696 93.6597 24.5706 96.5 28.05 96.5L59.25 96.5H90.45Z" fill="url(#paint2_radial_3946_16873)"/>
</g>
<g filter="url(#filter3_dg_3946_16873)">
<path d="M71.25 31C76.5432 31 80.75 35.0749 80.75 40C80.75 44.9251 76.5432 49 71.25 49C65.9568 49 61.75 44.9251 61.75 40C61.75 35.0749 65.9568 31 71.25 31Z" stroke="white" stroke-width="2"/>
<path d="M49.25 31C43.9568 31 39.75 35.0749 39.75 40C39.75 44.9251 43.9568 49 49.25 49C54.5432 49 58.75 44.9251 58.75 40C58.75 35.0749 54.5432 31 49.25 31Z" stroke="white" stroke-width="2"/>
</g>
</g>
<rect x="0.25" y="0.25" width="117.5" height="118.5" rx="58.75" stroke="#1D68FF" stroke-width="0.5"/>
<defs>
<filter id="filter0_g_3946_16873" x="-40" y="-40" width="198.5" height="198.5" filterUnits="userSpaceOnUse" color-interpolation-filters="sRGB">
<feFlood flood-opacity="0" result="BackgroundImageFix"/>
<feBlend mode="normal" in="SourceGraphic" in2="BackgroundImageFix" result="shape"/>
<feTurbulence type="fractalNoise" baseFrequency="5 5" numOctaves="3" seed="7881" />
<feDisplacementMap in="shape" scale="80" xChannelSelector="R" yChannelSelector="G" result="displacedImage" width="100%" height="100%" />
<feMerge result="effect1_texture_3946_16873">
<feMergeNode in="displacedImage"/>
</feMerge>
</filter>
<filter id="filter1_g_3946_16873" x="39.75" y="20" width="41.6504" height="41.6484" filterUnits="userSpaceOnUse" color-interpolation-filters="sRGB">
<feFlood flood-opacity="0" result="BackgroundImageFix"/>
<feBlend mode="normal" in="SourceGraphic" in2="BackgroundImageFix" result="shape"/>
<feTurbulence type="fractalNoise" baseFrequency="5 5" numOctaves="3" seed="363" />
<feDisplacementMap in="shape" scale="4" xChannelSelector="R" yChannelSelector="G" result="displacedImage" width="100%" height="100%" />
<feMerge result="effect1_texture_3946_16873">
<feMergeNode in="displacedImage"/>
</feMerge>
</filter>
<filter id="filter2_g_3946_16873" x="20.2021" y="57" width="78.0957" height="41.5" filterUnits="userSpaceOnUse" color-interpolation-filters="sRGB">
<feFlood flood-opacity="0" result="BackgroundImageFix"/>
<feBlend mode="normal" in="SourceGraphic" in2="BackgroundImageFix" result="shape"/>
<feTurbulence type="fractalNoise" baseFrequency="5 5" numOctaves="3" seed="41" />
<feDisplacementMap in="shape" scale="4" xChannelSelector="R" yChannelSelector="G" result="displacedImage" width="100%" height="100%" />
<feMerge result="effect1_texture_3946_16873">
<feMergeNode in="displacedImage"/>
</feMerge>
</filter>
<filter id="filter3_dg_3946_16873" x="36.75" y="29" width="47" height="24" filterUnits="userSpaceOnUse" color-interpolation-filters="sRGB">
<feFlood flood-opacity="0" result="BackgroundImageFix"/>
<feColorMatrix in="SourceAlpha" type="matrix" values="0 0 0 0 0 0 0 0 0 0 0 0 0 0 0 0 0 0 127 0" result="hardAlpha"/>
<feOffset dy="1"/>
<feGaussianBlur stdDeviation="1"/>
<feComposite in2="hardAlpha" operator="out"/>
<feColorMatrix type="matrix" values="0 0 0 0 0.113782 0 0 0 0 0.409188 0 0 0 0 1 0 0 0 0.2 0"/>
<feBlend mode="normal" in2="BackgroundImageFix" result="effect1_dropShadow_3946_16873"/>
<feBlend mode="normal" in="SourceGraphic" in2="effect1_dropShadow_3946_16873" result="shape"/>
<feTurbulence type="fractalNoise" baseFrequency="3.3333332538604736 3.3333332538604736" numOctaves="3" seed="314" />
<feDisplacementMap in="shape" scale="1" xChannelSelector="R" yChannelSelector="G" result="displacedImage" width="100%" height="100%" />
<feMerge result="effect2_texture_3946_16873">
<feMergeNode in="displacedImage"/>
</feMerge>
</filter>
<linearGradient id="paint0_linear_3946_16873" x1="21" y1="24" x2="71.5182" y2="111.5" gradientUnits="userSpaceOnUse">
<stop stop-color="#ECF2FF"/>
<stop offset="1" stop-color="#1D68FF"/>
</linearGradient>
<radialGradient id="paint1_radial_3946_16873" cx="0" cy="0" r="1" gradientUnits="userSpaceOnUse" gradientTransform="translate(60.575 40.825) rotate(90) scale(18.825)">
<stop stop-color="#1D68FF"/>
<stop offset="1" stop-color="white"/>
</radialGradient>
<radialGradient id="paint2_radial_3946_16873" cx="0" cy="0" r="1" gradientUnits="userSpaceOnUse" gradientTransform="translate(59.25 77.75) rotate(90) scale(18.75 37.5)">
<stop stop-color="#1D68FF"/>
<stop offset="1" stop-color="white"/>
</radialGradient>
<clipPath id="clip0_3946_16873">
<rect width="118" height="119" rx="59" fill="white"/>
</clipPath>
</defs>
</svg>
