<svg width="158" height="160" viewBox="0 0 158 160" fill="none" xmlns="http://www.w3.org/2000/svg">
<g clip-path="url(#clip0_3946_17039)">
<g filter="url(#filter0_n_3946_17039)">
<circle cx="79.3347" cy="79.3347" r="79.3347" fill="#1D68FF"/>
</g>
<g filter="url(#filter1_dg_3946_17039)">
<ellipse cx="95.4021" cy="52.4914" rx="14.0593" ry="13.3898" fill="white" fill-opacity="0.4"/>
<path d="M95.4023 39.7715C102.828 39.7716 108.792 45.4965 108.792 52.4912C108.792 59.486 102.828 65.2118 95.4023 65.2119C87.9762 65.2119 82.0127 59.4861 82.0127 52.4912C82.0128 45.4965 87.9763 39.7715 95.4023 39.7715Z" stroke="white" stroke-opacity="0.3" stroke-width="1.33898"/>
<ellipse cx="14.0593" cy="13.3898" rx="14.0593" ry="13.3898" transform="matrix(-1 0 0 1 80.0039 39.1016)" fill="white" fill-opacity="0.4"/>
<path d="M65.9443 39.7715C58.5184 39.7716 52.5548 45.4965 52.5547 52.4912C52.5547 59.486 58.5183 65.2118 65.9443 65.2119C73.3705 65.2119 79.334 59.4861 79.334 52.4912C79.3339 45.4965 73.3704 39.7715 65.9443 39.7715Z" stroke="white" stroke-opacity="0.3" stroke-width="1.33898"/>
</g>
<g filter="url(#filter2_g_3946_17039)">
<circle cx="81.1087" cy="53.597" r="25.2064" fill="url(#paint0_radial_3946_17039)"/>
</g>
<g filter="url(#filter3_g_3946_17039)">
<path d="M121.111 128.142C125.77 128.142 129.619 124.338 128.84 119.745C127.11 109.543 122.254 100.05 114.84 92.6364C105.424 83.2199 92.6519 77.9297 79.3349 77.9297C66.0179 77.9297 53.2463 83.2198 43.8298 92.6364C36.4161 100.05 31.5601 109.543 29.8298 119.745C29.0508 124.338 32.8998 128.142 37.5586 128.142L79.3349 128.142H121.111Z" fill="url(#paint1_radial_3946_17039)"/>
</g>
<g filter="url(#filter4_g_3946_17039)">
<path d="M80.2415 48.2646C80.4757 47.5114 81.5417 47.5114 81.7759 48.2646L84.7434 57.8101C84.9041 58.3272 84.5177 58.852 83.9762 58.852H78.0412C77.4997 58.852 77.1133 58.3272 77.274 57.8101L80.2415 48.2646Z" fill="url(#paint2_linear_3946_17039)"/>
</g>
<g filter="url(#filter5_g_3946_17039)">
<path d="M81.0088 94.8367L88.7434 79.2064C88.9164 78.8567 89.3158 78.6819 89.6901 78.792L98.7699 81.4625C99.4248 81.6551 99.5562 82.5251 98.9875 82.9026L81.0088 94.8367H91.4028C91.9485 94.8367 92.3354 95.369 92.167 95.8881L82.5764 125.447C82.2939 126.317 81.0088 126.114 81.0088 125.199V94.8367Z" fill="url(#paint3_linear_3946_17039)"/>
</g>
<g filter="url(#filter6_g_3946_17039)">
<path d="M69.3101 78.9906L81.31 92.2537C81.5322 92.4992 81.5809 92.8559 81.4329 93.152L81.0672 93.8833C81.0286 93.9605 80.9778 94.031 80.9167 94.0921L80.3394 94.6694V111.919C80.3394 112.772 79.1846 113.037 78.8129 112.269L70.8551 95.8227C70.597 95.2892 70.9856 94.6694 71.5783 94.6694H80.3394L58.6047 83.4915C57.9721 83.1662 58.0432 82.2398 58.7181 82.0149L68.4603 78.7675C68.7628 78.6667 69.0962 78.7542 69.3101 78.9906Z" fill="url(#paint4_linear_3946_17039)"/>
</g>
</g>
<rect x="0.334746" y="0.334746" width="157.331" height="158.669" rx="78.6653" stroke="#1D68FF" stroke-width="0.669492"/>
<defs>
<filter id="filter0_n_3946_17039" x="0" y="0" width="158.67" height="158.668" filterUnits="userSpaceOnUse" color-interpolation-filters="sRGB">
<feFlood flood-opacity="0" result="BackgroundImageFix"/>
<feBlend mode="normal" in="SourceGraphic" in2="BackgroundImageFix" result="shape"/>
<feTurbulence type="fractalNoise" baseFrequency="3.7341773509979248 3.7341773509979248" stitchTiles="stitch" numOctaves="3" result="noise" seed="7881" />
<feColorMatrix in="noise" type="luminanceToAlpha" result="alphaNoise" />
<feComponentTransfer in="alphaNoise" result="coloredNoise1">
<feFuncA type="discrete" tableValues="1 1 1 1 1 1 1 1 1 1 1 1 1 1 1 1 1 1 1 1 1 1 1 1 1 1 1 1 1 1 1 1 1 1 1 1 1 1 1 1 1 1 1 1 1 1 1 1 1 1 1 0 0 0 0 0 0 0 0 0 0 0 0 0 0 0 0 0 0 0 0 0 0 0 0 0 0 0 0 0 0 0 0 0 0 0 0 0 0 0 0 0 0 0 0 0 0 0 0 0 "/>
</feComponentTransfer>
<feComposite operator="in" in2="shape" in="coloredNoise1" result="noise1Clipped" />
<feFlood flood-color="rgba(255, 255, 255, 0.25)" result="color1Flood" />
<feComposite operator="in" in2="noise1Clipped" in="color1Flood" result="color1" />
<feMerge result="effect1_noise_3946_17039">
<feMergeNode in="shape" />
<feMergeNode in="color1" />
</feMerge>
</filter>
<filter id="filter1_dg_3946_17039" x="49.2078" y="36.4236" width="62.9311" height="33.4762" filterUnits="userSpaceOnUse" color-interpolation-filters="sRGB">
<feFlood flood-opacity="0" result="BackgroundImageFix"/>
<feColorMatrix in="SourceAlpha" type="matrix" values="0 0 0 0 0 0 0 0 0 0 0 0 0 0 0 0 0 0 127 0" result="hardAlpha"/>
<feOffset dy="1.33898"/>
<feGaussianBlur stdDeviation="1.33898"/>
<feComposite in2="hardAlpha" operator="out"/>
<feColorMatrix type="matrix" values="0 0 0 0 0.113782 0 0 0 0 0.409188 0 0 0 0 1 0 0 0 0.2 0"/>
<feBlend mode="normal" in2="BackgroundImageFix" result="effect1_dropShadow_3946_17039"/>
<feBlend mode="normal" in="SourceGraphic" in2="effect1_dropShadow_3946_17039" result="shape"/>
<feTurbulence type="fractalNoise" baseFrequency="3.7341773509979248 3.7341773509979248" numOctaves="3" seed="314" />
<feDisplacementMap in="shape" scale="5.3559322357177734" xChannelSelector="R" yChannelSelector="G" result="displacedImage" width="100%" height="100%" />
<feMerge result="effect2_texture_3946_17039">
<feMergeNode in="displacedImage"/>
</feMerge>
</filter>
<filter id="filter2_g_3946_17039" x="53.2244" y="25.7127" width="55.769" height="55.77" filterUnits="userSpaceOnUse" color-interpolation-filters="sRGB">
<feFlood flood-opacity="0" result="BackgroundImageFix"/>
<feBlend mode="normal" in="SourceGraphic" in2="BackgroundImageFix" result="shape"/>
<feTurbulence type="fractalNoise" baseFrequency="3.7341773509979248 3.7341773509979248" numOctaves="3" seed="363" />
<feDisplacementMap in="shape" scale="5.3559322357177734" xChannelSelector="R" yChannelSelector="G" result="displacedImage" width="100%" height="100%" />
<feMerge result="effect1_texture_3946_17039">
<feMergeNode in="displacedImage"/>
</feMerge>
</filter>
<filter id="filter3_g_3946_17039" x="27.0515" y="75.2517" width="104.567" height="55.5669" filterUnits="userSpaceOnUse" color-interpolation-filters="sRGB">
<feFlood flood-opacity="0" result="BackgroundImageFix"/>
<feBlend mode="normal" in="SourceGraphic" in2="BackgroundImageFix" result="shape"/>
<feTurbulence type="fractalNoise" baseFrequency="3.7341773509979248 3.7341773509979248" numOctaves="3" seed="41" />
<feDisplacementMap in="shape" scale="5.3559322357177734" xChannelSelector="R" yChannelSelector="G" result="displacedImage" width="100%" height="100%" />
<feMerge result="effect1_texture_3946_17039">
<feMergeNode in="displacedImage"/>
</feMerge>
</filter>
<filter id="filter4_g_3946_17039" x="74.5593" y="45.0213" width="12.8989" height="16.5083" filterUnits="userSpaceOnUse" color-interpolation-filters="sRGB">
<feFlood flood-opacity="0" result="BackgroundImageFix"/>
<feBlend mode="normal" in="SourceGraphic" in2="BackgroundImageFix" result="shape"/>
<feTurbulence type="fractalNoise" baseFrequency="3.7341773509979248 3.7341773509979248" numOctaves="3" seed="1054" />
<feDisplacementMap in="shape" scale="5.3559322357177734" xChannelSelector="R" yChannelSelector="G" result="displacedImage" width="100%" height="100%" />
<feMerge result="effect1_texture_3946_17039">
<feMergeNode in="displacedImage"/>
</feMerge>
</filter>
<filter id="filter5_g_3946_17039" x="78.3308" y="76.0798" width="23.6938" height="52.602" filterUnits="userSpaceOnUse" color-interpolation-filters="sRGB">
<feFlood flood-opacity="0" result="BackgroundImageFix"/>
<feBlend mode="normal" in="SourceGraphic" in2="BackgroundImageFix" result="shape"/>
<feTurbulence type="fractalNoise" baseFrequency="3.7341773509979248 3.7341773509979248" numOctaves="3" seed="4877" />
<feDisplacementMap in="shape" scale="5.3559322357177734" xChannelSelector="R" yChannelSelector="G" result="displacedImage" width="100%" height="100%" />
<feMerge result="effect1_texture_3946_17039">
<feMergeNode in="displacedImage"/>
</feMerge>
</filter>
<filter id="filter6_g_3946_17039" x="55.491" y="76.0486" width="28.7046" height="39.352" filterUnits="userSpaceOnUse" color-interpolation-filters="sRGB">
<feFlood flood-opacity="0" result="BackgroundImageFix"/>
<feBlend mode="normal" in="SourceGraphic" in2="BackgroundImageFix" result="shape"/>
<feTurbulence type="fractalNoise" baseFrequency="3.7341773509979248 3.7341773509979248" numOctaves="3" seed="8661" />
<feDisplacementMap in="shape" scale="5.3559322357177734" xChannelSelector="R" yChannelSelector="G" result="displacedImage" width="100%" height="100%" />
<feMerge result="effect1_texture_3946_17039">
<feMergeNode in="displacedImage"/>
</feMerge>
</filter>
<radialGradient id="paint0_radial_3946_17039" cx="0" cy="0" r="1" gradientUnits="userSpaceOnUse" gradientTransform="translate(75.9559 73.6441) rotate(-90) scale(45.5254)">
<stop stop-color="#1D68FF"/>
<stop offset="1" stop-color="white"/>
</radialGradient>
<radialGradient id="paint1_radial_3946_17039" cx="0" cy="0" r="1" gradientUnits="userSpaceOnUse" gradientTransform="translate(79.0002 89.0391) rotate(89.562) scale(43.7902 87.5804)">
<stop stop-color="#1D68FF"/>
<stop offset="1" stop-color="white"/>
</radialGradient>
<linearGradient id="paint2_linear_3946_17039" x1="81.0087" y1="38.4325" x2="81.0087" y2="63.8731" gradientUnits="userSpaceOnUse">
<stop stop-color="#FEFEFE"/>
<stop offset="1" stop-color="#1D68FF"/>
</linearGradient>
<linearGradient id="paint3_linear_3946_17039" x1="94.3986" y1="78.9991" x2="63.8627" y2="131.889" gradientUnits="userSpaceOnUse">
<stop stop-color="white"/>
<stop offset="1" stop-color="#1D68FF"/>
</linearGradient>
<linearGradient id="paint4_linear_3946_17039" x1="69.6276" y1="80.3381" x2="91.0513" y2="116.491" gradientUnits="userSpaceOnUse">
<stop stop-color="white"/>
<stop offset="1" stop-color="#1D68FF"/>
</linearGradient>
<clipPath id="clip0_3946_17039">
<rect width="158" height="159.339" rx="79" fill="white"/>
</clipPath>
</defs>
</svg>
